<?xml version="1.0" standalone="no"?>
<!DOCTYPE svg PUBLIC "-//W3C//DTD SVG 20010904//EN"
 "http://www.w3.org/TR/2001/REC-SVG-20010904/DTD/svg10.dtd">
<svg version="1.0" xmlns="http://www.w3.org/2000/svg"
 width="630.000000pt" height="700.000000pt" viewBox="0 0 630.000000 700.000000"
 preserveAspectRatio="xMidYMid meet">

<g transform="translate(0.000000,700.000000) scale(0.100000,-0.100000)"
fill="#000000" stroke="none">
<path d="M3240 6110 c-65 -12 -108 -32 -249 -119 -69 -43 -220 -136 -336 -206
-208 -126 -286 -179 -170 -115 33 18 71 41 85 50 37 25 161 100 166 100 3 0
21 11 42 24 126 80 332 206 357 219 51 25 158 47 210 42 36 -3 43 -2 25 5 -31
10 -71 10 -130 0z"/>
<path d="M3478 6055 c46 -25 123 -69 170 -98 115 -70 112 -69 112 -64 0 8
-273 174 -314 191 -65 27 -55 18 32 -29z"/>
<path d="M3495 5880 c-4 -6 3 -10 14 -10 25 0 27 6 6 13 -8 4 -17 2 -20 -3z"/>
<path d="M3770 5887 c0 -4 20 -18 103 -71 15 -10 27 -16 27 -13 0 4 -20 18
-102 71 -16 10 -28 16 -28 13z"/>
<path d="M3445 5860 c-3 -5 -1 -10 4 -10 6 0 11 5 11 10 0 6 -2 10 -4 10 -3 0
-8 -4 -11 -10z"/>
<path d="M3560 5860 c0 -5 5 -10 11 -10 5 0 7 5 4 10 -3 6 -8 10 -11 10 -2 0
-4 -4 -4 -10z"/>
<path d="M3600 5840 c0 -5 5 -10 11 -10 5 0 7 5 4 10 -3 6 -8 10 -11 10 -2 0
-4 -4 -4 -10z"/>
<path d="M3746 5745 c10 -8 24 -14 29 -14 6 0 1 6 -9 14 -11 8 -24 15 -30 15
-5 0 -1 -7 10 -15z"/>
<path d="M3214 5725 c-10 -8 -14 -14 -9 -14 6 0 19 6 29 14 11 8 15 15 10 15
-6 0 -19 -7 -30 -15z"/>
<path d="M2340 5594 c-41 -25 -79 -51 -85 -57 -5 -6 1 -4 15 4 127 77 150 91
150 95 0 6 -1 6 -80 -42z"/>
<path d="M2103 5449 c-35 -22 -46 -37 -15 -20 22 13 58 40 52 41 -3 0 -20 -10
-37 -21z"/>
<path d="M2775 5460 c-3 -5 -1 -10 4 -10 6 0 11 5 11 10 0 6 -2 10 -4 10 -3 0
-8 -4 -11 -10z"/>
<path d="M4232 5444 c10 -10 20 -15 24 -12 3 4 -5 12 -18 18 -22 12 -22 12 -6
-6z"/>
<path d="M2017 5396 c-48 -29 -61 -43 -22 -23 31 16 74 46 65 46 -3 0 -22 -10
-43 -23z"/>
<path d="M2679 5403 c-12 -16 -12 -17 1 -7 8 6 22 14 30 17 13 5 12 6 -1 6 -9
1 -23 -7 -30 -16z"/>
<path d="M1905 5329 c-63 -39 -83 -59 -30 -30 40 22 94 61 85 61 -3 0 -27 -14
-55 -31z"/>
<path d="M1804 5264 c-18 -14 -18 -15 4 -4 12 6 22 13 22 15 0 8 -5 6 -26 -11z"/>
<path d="M1724 5214 c-18 -14 -18 -15 4 -4 12 6 22 13 22 15 0 8 -5 6 -26 -11z"/>
<path d="M1620 5154 c-41 -25 -79 -51 -85 -57 -5 -6 1 -4 15 4 127 77 150 91
150 95 0 6 -1 6 -80 -42z"/>
<path d="M1414 5024 c-18 -14 -18 -15 4 -4 12 6 22 13 22 15 0 8 -5 6 -26 -11z"/>
<path d="M1364 4994 c-18 -14 -18 -15 4 -4 12 6 22 13 22 15 0 8 -5 6 -26 -11z"/>
<path d="M1210 4899 c-186 -123 -248 -195 -306 -354 -16 -44 -19 -91 -22 -370
-2 -176 0 -317 3 -313 4 4 8 143 10 310 2 283 4 307 24 367 55 160 108 224
285 343 123 82 144 98 134 98 -3 0 -60 -36 -128 -81z"/>
<path d="M941 3419 c38 -74 109 -129 384 -294 340 -203 352 -211 340 -198 -11
13 -224 143 -400 246 -211 123 -279 178 -320 256 -8 17 -18 31 -20 31 -3 0 4
-19 16 -41z"/>
<path d="M2016 3175 c10 -8 23 -15 28 -15 6 0 1 7 -10 15 -10 8 -23 15 -28 15
-6 0 -1 -7 10 -15z"/>
<path d="M1680 2916 c0 -3 205 -128 283 -173 4 -2 7 -2 7 1 0 3 -62 42 -137
87 -163 97 -153 91 -153 85z"/>
<path d="M3896 2750 c6 -8 27 -36 48 -62 30 -37 38 -58 43 -103 4 -37 1 -65
-8 -83 -19 -39 -93 -109 -174 -166 -84 -59 -104 -78 -50 -46 98 57 177 114
209 151 63 74 68 171 12 244 -25 32 -103 95 -80 65z"/>
<path d="M1995 2725 c11 -9 34 -23 50 -31 28 -14 29 -14 10 1 -11 9 -33 23
-50 31 -28 14 -29 14 -10 -1z"/>
<path d="M3700 2699 c0 -5 5 -7 10 -4 6 3 10 8 10 11 0 2 -4 4 -10 4 -5 0 -10
-5 -10 -11z"/>
<path d="M3668 2683 c7 -3 16 -2 19 1 4 3 -2 6 -13 5 -11 0 -14 -3 -6 -6z"/>
<path d="M2080 2676 c0 -3 9 -10 20 -16 11 -6 20 -8 20 -6 0 3 -9 10 -20 16
-11 6 -20 8 -20 6z"/>
<path d="M2130 2646 c0 -3 9 -10 20 -16 11 -6 20 -8 20 -6 0 3 -9 10 -20 16
-11 6 -20 8 -20 6z"/>
<path d="M3600 2639 c0 -5 5 -7 10 -4 6 3 10 8 10 11 0 2 -4 4 -10 4 -5 0 -10
-5 -10 -11z"/>
<path d="M2199 2603 c13 -10 43 -29 65 -41 34 -20 37 -20 16 -3 -14 11 -43 29
-65 41 -30 15 -34 16 -16 3z"/>
<path d="M2315 2533 c6 -6 28 -20 50 -32 22 -13 31 -15 20 -6 -22 18 -86 53
-70 38z"/>
<path d="M2410 2476 c0 -3 9 -10 20 -16 11 -6 20 -8 20 -6 0 3 -9 10 -20 16
-11 6 -20 8 -20 6z"/>
<path d="M2460 2446 c0 -3 9 -10 20 -16 11 -6 20 -8 20 -6 0 3 -9 10 -20 16
-11 6 -20 8 -20 6z"/>
</g>
</svg>
