<?xml version="1.0" encoding="UTF-8"?>
<svg version="1.1" xmlns="http://www.w3.org/2000/svg" width="512" height="512">
<path d="M0 0 C1.1439901 -0.00623996 2.28798019 -0.01247993 3.46663666 -0.01890898 C6.64252578 -0.03211727 9.81780499 -0.02734515 12.99367905 -0.0149641 C16.41842676 -0.00592603 19.84309105 -0.01987711 23.26782227 -0.03088379 C29.97703364 -0.048687 36.68606621 -0.04482109 43.39528465 -0.03323323 C48.84711553 -0.02420623 54.29889622 -0.02297171 59.75073242 -0.02732849 C60.91383887 -0.02824789 60.91383887 -0.02824789 62.10044241 -0.02918586 C63.67557336 -0.03046474 65.2507043 -0.03176159 66.82583523 -0.03307623 C81.60206543 -0.0444873 96.37819643 -0.03136008 111.15441036 -0.00987476 C123.83801597 0.00799672 136.52147516 0.00489276 149.20507812 -0.0135498 C163.9277818 -0.03494724 178.65039849 -0.04338861 193.37311554 -0.03110075 C194.94250996 -0.02982653 196.51190439 -0.02856905 198.08129883 -0.02732849 C198.8535069 -0.02671139 199.62571498 -0.02609429 200.4213233 -0.02545848 C205.86773609 -0.02200219 211.31409379 -0.02783992 216.76049805 -0.0372467 C223.39627053 -0.04845558 230.0318537 -0.04545024 236.66760445 -0.02412373 C240.05447943 -0.01359812 243.4410386 -0.00951672 246.82791138 -0.02272034 C250.49626987 -0.03359472 254.16373051 -0.02000897 257.83203125 0 C258.90711693 -0.00892289 259.98220261 -0.01784577 261.08986664 -0.02703905 C268.17141167 0.04827079 268.17141167 0.04827079 271.57701874 2.1506424 C273.30417874 5.1912923 273.41920723 7.23525675 273.4239502 10.73254395 C273.44086914 12.6505481 273.44086914 12.6505481 273.45812988 14.6072998 C273.45035286 16.02209699 273.44216019 17.43689194 273.43359375 18.85168457 C273.43901454 20.34330936 273.44613696 21.8349288 273.45483398 23.32653809 C273.47307566 27.37616085 273.46599652 31.42537618 273.45331764 35.4750061 C273.44319427 39.71190493 273.45258147 43.94876875 273.4588623 48.18566895 C273.46614066 55.30096707 273.45654614 62.41609915 273.4375 69.53137207 C273.41573082 77.75896257 273.42278206 85.9861566 273.44480562 94.21373749 C273.46295433 101.27627711 273.46552056 108.33869734 273.45505095 115.40125275 C273.44881307 119.62006632 273.44798836 123.8386935 273.4611969 128.05749512 C273.47274718 132.0237383 273.46474524 135.98947006 273.44161987 139.95565796 C273.43632831 141.41172435 273.43785428 142.86783374 273.44667053 144.32388306 C273.45758997 146.31034819 273.44147263 148.29690733 273.4239502 150.2833252 C273.42168804 151.95135193 273.42168804 151.95135193 273.41938019 153.65307617 C272.91601562 156.50793457 272.91601562 156.50793457 271.57701874 158.86522675 C267.2400607 161.54254601 262.82725781 161.05732801 257.83203125 161.01586914 C256.1160461 161.02522908 256.1160461 161.02522908 254.36539459 161.03477812 C251.18950547 161.04798641 248.01422626 161.04321429 244.8383522 161.03083324 C241.41360449 161.02179517 237.9889402 161.03574625 234.56420898 161.04675293 C227.85499761 161.06455614 221.14596504 161.06069023 214.4367466 161.04910237 C208.98491572 161.04007537 203.53313503 161.03884085 198.08129883 161.04319763 C196.91819238 161.04411703 196.91819238 161.04411703 195.73158884 161.045055 C194.15645789 161.04633388 192.58132695 161.04763073 191.00619602 161.04894537 C176.22996582 161.06035644 161.45383482 161.04722922 146.67762089 161.0257439 C133.99401528 161.00787242 121.31055609 161.01097638 108.62695312 161.02941895 C93.90424945 161.05081638 79.18163276 161.05925775 64.45891571 161.04696989 C62.88952129 161.04569567 61.32012686 161.04443819 59.75073242 161.04319763 C58.97852435 161.04258053 58.20631627 161.04196343 57.41070795 161.04132763 C51.96429516 161.03787133 46.51793746 161.04370906 41.0715332 161.05311584 C34.43576072 161.06432472 27.80017755 161.06131938 21.1644268 161.03999287 C17.77755182 161.02946726 14.39099265 161.02538586 11.00411987 161.03858948 C7.33576138 161.04946386 3.66830074 161.03587811 0 161.01586914 C-1.07508568 161.02479203 -2.15017136 161.03371491 -3.25783539 161.04290819 C-10.33938042 160.96759835 -10.33938042 160.96759835 -13.74498749 158.86522675 C-15.47214749 155.82457684 -15.58717598 153.78061239 -15.59191895 150.2833252 C-15.60319824 149.00465576 -15.61447754 147.72598633 -15.62609863 146.40856934 C-15.61832161 144.99377215 -15.61012894 143.5789772 -15.6015625 142.16418457 C-15.60698329 140.67255978 -15.61410571 139.18094034 -15.62280273 137.68933105 C-15.64104441 133.63970829 -15.63396527 129.59049296 -15.62128639 125.54086304 C-15.61116302 121.30396421 -15.62055022 117.06710039 -15.62683105 112.8302002 C-15.63410941 105.71490207 -15.62451489 98.59976999 -15.60546875 91.48449707 C-15.58369957 83.25690657 -15.59075081 75.02971254 -15.61277437 66.80213165 C-15.63092308 59.73959203 -15.63348931 52.6771718 -15.6230197 45.61461639 C-15.61678182 41.39580282 -15.61595711 37.17717564 -15.62916565 32.95837402 C-15.64071593 28.99213084 -15.63271399 25.02639908 -15.60958862 21.06021118 C-15.60429706 19.60414479 -15.60582303 18.1480354 -15.61463928 16.69198608 C-15.62555872 14.70552095 -15.60944138 12.71896181 -15.59191895 10.73254395 C-15.59041084 9.62052612 -15.58890274 8.5085083 -15.58734894 7.36279297 C-15.08398438 4.50793457 -15.08398438 4.50793457 -13.74498749 2.1506424 C-9.40802945 -0.52667687 -4.99522656 -0.04145887 0 0 Z M0.91601562 16.50793457 C0.91601562 58.74793457 0.91601562 100.98793457 0.91601562 144.50793457 C24.67601562 144.50793457 48.43601563 144.50793457 72.91601562 144.50793457 C73.24601562 134.27793457 73.57601562 124.04793457 73.91601562 113.50793457 C78.43909255 104.46178072 78.43909255 104.46178072 81.35351562 102.13293457 C82.18689453 101.44070801 82.18689453 101.44070801 83.03710938 100.73449707 C87.64472091 97.7266176 91.73539695 97.22844367 97.18554688 97.09387207 C97.86654953 97.07450592 98.54755219 97.05513977 99.24919128 97.03518677 C101.40884155 96.97575325 103.56854619 96.92915257 105.72851562 96.88293457 C107.19924106 96.84472129 108.66994492 96.80566763 110.140625 96.76574707 C113.73222352 96.67008274 117.32398476 96.58591883 120.91601562 96.50793457 C118.6023727 94.96550595 116.52997077 93.80477727 114.04101562 92.63293457 C106.39448502 88.80267975 101.97433984 83.77858643 98.86743164 75.82287598 C97.27833944 70.28613132 97.5441186 64.64916465 97.54541016 58.93273926 C97.54105476 56.77730182 97.50473484 54.62394576 97.46679688 52.46887207 C97.3903295 43.08324805 98.39776836 34.93359269 104.16601562 27.19543457 C109.05628515 22.41630753 114.29505325 19.32869922 120.91601562 17.50793457 C120.91601562 17.17793457 120.91601562 16.84793457 120.91601562 16.50793457 C81.31601563 16.50793457 41.71601563 16.50793457 0.91601562 16.50793457 Z M136.91601562 16.50793457 C139.22965855 18.05036319 141.30206048 19.21109187 143.79101562 20.38293457 C151.43754623 24.21318939 155.85769141 29.23728271 158.96459961 37.19299316 C160.55369181 42.72973782 160.28791265 48.36670449 160.28662109 54.08312988 C160.29097649 56.23856732 160.32729641 58.39192338 160.36523438 60.54699707 C160.44170175 69.93262109 159.43426289 78.08227645 153.66601562 85.82043457 C148.7757461 90.59956161 143.536978 93.68716992 136.91601562 95.50793457 C136.91601562 95.83793457 136.91601562 96.16793457 136.91601562 96.50793457 C137.81320312 96.51728027 138.71039063 96.52662598 139.63476562 96.53625488 C142.99749902 96.58054708 146.35900909 96.64228119 149.72119141 96.7154541 C151.16996779 96.74349493 152.61889235 96.76479268 154.06787109 96.77893066 C163.20957679 96.87343486 170.65704029 96.96978404 177.93945312 103.25402832 C178.38546875 103.81219238 178.83148438 104.37035645 179.29101562 104.94543457 C179.7525 105.50102051 180.21398437 106.05660645 180.68945312 106.62902832 C188.05514042 117.9121353 184.47578725 130.86085487 184.91601562 144.50793457 C208.67601562 144.50793457 232.43601562 144.50793457 256.91601562 144.50793457 C256.91601562 102.26793457 256.91601562 60.02793457 256.91601562 16.50793457 C217.31601562 16.50793457 177.71601563 16.50793457 136.91601562 16.50793457 Z M117.91601562 37.50793457 C111.61007784 45.51817987 112.39903189 54.79055507 112.91601562 64.50793457 C113.72939041 69.57429445 115.06261913 73.10905131 118.97851562 76.50793457 C124.01215423 79.93509277 127.89494114 80.16562117 133.91601562 79.50793457 C138.79247852 77.16000799 141.31939176 74.22032603 143.91601562 69.50793457 C146.17948912 61.03864633 146.23533469 49.43707989 142.97460938 41.27746582 C140.79601359 37.63575405 137.69611331 35.39798341 133.91601562 33.50793457 C127.49176648 32.80311587 122.89757129 33.00081278 117.91601562 37.50793457 Z M90.91601562 115.50793457 C88.83686088 119.0609724 88.67725648 122.1839546 88.72070312 126.24621582 C88.72714844 127.31291504 88.73359375 128.37961426 88.74023438 129.4786377 C88.75699219 130.58143066 88.77375 131.68422363 88.79101562 132.82043457 C88.80003906 133.94256348 88.8090625 135.06469238 88.81835938 136.2208252 C88.84187077 138.98341366 88.87473408 141.74556389 88.91601562 144.50793457 C91.55601562 144.50793457 94.19601563 144.50793457 96.91601562 144.50793457 C96.91601562 139.22793457 96.91601562 133.94793457 96.91601562 128.50793457 C102.19601563 128.50793457 107.47601563 128.50793457 112.91601562 128.50793457 C112.91601562 133.78793457 112.91601562 139.06793457 112.91601562 144.50793457 C123.47601563 144.50793457 134.03601563 144.50793457 144.91601562 144.50793457 C144.91601562 139.22793457 144.91601562 133.94793457 144.91601562 128.50793457 C150.19601562 128.50793457 155.47601563 128.50793457 160.91601562 128.50793457 C160.91601562 133.78793457 160.91601562 139.06793457 160.91601562 144.50793457 C163.55601562 144.50793457 166.19601562 144.50793457 168.91601562 144.50793457 C169.00352975 140.63307822 169.05657998 136.75847814 169.10351562 132.88293457 C169.12865234 131.78852051 169.15378906 130.69410645 169.1796875 129.56652832 C169.36044415 121.55461894 169.36044415 121.55461894 165.91601562 114.50793457 C162.0701949 112.54703396 158.85165172 112.25109052 154.56860352 112.23327637 C153.3070192 112.22374435 152.04543488 112.21421234 150.74562073 112.20439148 C149.37663749 112.20465293 148.00765424 112.20559007 146.63867188 112.20715332 C145.22529475 112.20326291 143.81191878 112.19892753 142.39854431 112.19416809 C139.44054367 112.18671978 136.48266241 112.18698707 133.5246582 112.19226074 C129.74405994 112.19805437 125.96395176 112.18112073 122.18343449 112.15791607 C119.26567249 112.14314633 116.34802767 112.14231139 113.43023491 112.1454258 C112.03684964 112.14491424 110.64345752 112.13970759 109.25010872 112.12961388 C107.29771831 112.11720491 105.34522843 112.12600457 103.39282227 112.13562012 C102.28427383 112.13499069 101.1757254 112.13436127 100.03358459 112.13371277 C96.42238396 112.56718835 94.01649761 113.63138233 90.91601562 115.50793457 Z " fill="#2C2178" transform="translate(127.083984375,7.4920654296875)"/>
<path d="M0 0 C10.53155924 7.95343354 18.14347493 17.4665581 20.6875 30.6875 C21.09926916 35.81782701 21.20329141 40.90872639 21.18847656 46.05371094 C21.18750722 48.41987113 21.22917299 50.78274557 21.2734375 53.1484375 C21.37873768 66.52007441 18.96574664 78.42084908 9.6875 88.6875 C10.92113281 89.10708984 10.92113281 89.10708984 12.1796875 89.53515625 C19.91435447 92.31284843 26.2361854 95.61049714 32.6875 100.6875 C33.5228125 101.31398438 34.358125 101.94046875 35.21875 102.5859375 C44.38191831 110.38622951 51.87337723 123.98029256 52.88980103 136.09963989 C52.98379314 138.90526049 53.0170582 141.70452278 53.0234375 144.51171875 C53.0334227 146.04745293 53.0334227 146.04745293 53.04360962 147.61421204 C53.05369529 149.76826184 53.05842791 151.92234263 53.05810547 154.07641602 C53.06250004 157.37502858 53.09892202 160.672325 53.13671875 163.97070312 C53.14258342 166.06770377 53.14655515 168.16471075 53.1484375 170.26171875 C53.16280853 171.24718185 53.17717957 172.23264496 53.19198608 173.24797058 C53.18583282 174.16604996 53.17967957 175.08412933 53.17333984 176.0300293 C53.17618988 176.83498337 53.17903992 177.63993744 53.18197632 178.46928406 C52.48366835 181.60188681 51.17496091 182.6905685 48.6875 184.6875 C45.8326416 185.19086456 45.8326416 185.19086456 42.46289062 185.19543457 C41.18422119 185.20671387 39.90555176 185.21799316 38.58813477 185.22961426 C37.17333758 185.22183723 35.75854263 185.21364457 34.34375 185.20507812 C32.85212521 185.21049892 31.36050577 185.21762134 29.86889648 185.22631836 C25.81927372 185.24456004 21.77005839 185.2374809 17.72042847 185.22480202 C13.48352964 185.21467864 9.24666582 185.22406585 5.00976562 185.23034668 C-2.1055325 185.23762503 -9.22066458 185.22803052 -16.3359375 185.20898438 C-24.563528 185.18721519 -32.79072203 185.19426643 -41.01830292 185.21629 C-48.08084254 185.2344387 -55.14326277 185.23700494 -62.20581818 185.22653532 C-66.42463175 185.22029744 -70.64325893 185.21947274 -74.86206055 185.23268127 C-78.82830373 185.24423156 -82.79403549 185.23622962 -86.76022339 185.21310425 C-88.21628978 185.20781268 -89.67239917 185.20933866 -91.12844849 185.21815491 C-93.11491362 185.22907434 -95.10147276 185.212957 -97.08789062 185.19543457 C-98.19990845 185.19392647 -99.31192627 185.19241837 -100.4576416 185.19086456 C-103.96733332 184.57204072 -105.14572556 183.46139811 -107.3125 180.6875 C-107.8271637 178.52311707 -107.8271637 178.52311707 -107.84594727 176.15698242 C-107.8617836 175.26472458 -107.87761993 174.37246674 -107.89393616 173.45317078 C-107.88897629 172.49280411 -107.88401642 171.53243744 -107.87890625 170.54296875 C-107.88510483 169.54098953 -107.89130341 168.53901031 -107.89768982 167.50666809 C-107.90479541 165.38083872 -107.90160115 163.25495379 -107.88891602 161.12915039 C-107.87521041 157.92420323 -107.90891718 154.72227133 -107.94726562 151.51757812 C-108.0103839 134.97333597 -106.0597455 121.91118014 -95.3125 108.6875 C-94.68988281 107.85605469 -94.06726563 107.02460938 -93.42578125 106.16796875 C-85.90297419 97.33805659 -74.99665819 92.50327078 -64.3125 88.6875 C-65.00085938 87.81351563 -65.00085938 87.81351563 -65.703125 86.921875 C-66.31671875 86.10203125 -66.9303125 85.2821875 -67.5625 84.4375 C-68.16578125 83.64859375 -68.7690625 82.8596875 -69.390625 82.046875 C-75.13824049 72.00023004 -75.95544309 62.3562077 -75.83398438 51.06054688 C-75.81252595 48.69036601 -75.83389016 46.32321468 -75.859375 43.953125 C-75.88943485 28.24290176 -71.82941926 16.60977501 -61 4.9375 C-44.70456176 -10.48496833 -18.58433045 -12.3339951 0 0 Z M-52.3125 20.6875 C-61.01515115 32.40175562 -60.61629448 48.66730711 -58.6875 62.5625 C-56.74563416 71.4816907 -51.99885931 78.06610058 -44.58203125 83.28125 C-36.80388402 88.10075603 -29.41954533 88.59922895 -20.3125 87.6875 C-11.28941527 85.52049051 -5.04488052 80.67064966 0 73 C6.48846716 61.35536428 6.28706396 45.0301524 3.49609375 32.2109375 C0.41268093 22.58830618 -5.62249056 16.61454957 -14.17578125 11.59375 C-27.4419106 5.45781009 -42.98269335 10.19406491 -52.3125 20.6875 Z M-80.26953125 117.4453125 C-90.76348343 128.9625755 -91.49024995 142.36458302 -91.375 157.1875 C-91.37048828 158.29609375 -91.36597656 159.4046875 -91.36132812 160.546875 C-91.34963172 163.26044027 -91.33169945 165.97397744 -91.3125 168.6875 C-86.0325 168.6875 -80.7525 168.6875 -75.3125 168.6875 C-75.3125 158.1275 -75.3125 147.5675 -75.3125 136.6875 C-70.0325 136.6875 -64.7525 136.6875 -59.3125 136.6875 C-59.3125 147.2475 -59.3125 157.8075 -59.3125 168.6875 C-38.1925 168.6875 -17.0725 168.6875 4.6875 168.6875 C4.6875 158.1275 4.6875 147.5675 4.6875 136.6875 C9.9675 136.6875 15.2475 136.6875 20.6875 136.6875 C20.6875 147.2475 20.6875 157.8075 20.6875 168.6875 C25.9675 168.6875 31.2475 168.6875 36.6875 168.6875 C37.64868975 139.99110024 37.64868975 139.99110024 23.9296875 115.73046875 C12.92376141 105.70242111 0.05409111 104.53583494 -14.171875 104.51953125 C-15.71032074 104.51453865 -15.71032074 104.51453865 -17.27984619 104.50944519 C-19.44144241 104.50440375 -21.60304634 104.502036 -23.76464844 104.50219727 C-27.03854475 104.50001596 -30.31210087 104.48184442 -33.5859375 104.46289062 C-51.41130486 104.41355458 -66.55104162 104.57664081 -80.26953125 117.4453125 Z " fill="#2C2178" transform="translate(451.3125,319.3125)"/>
<path d="M0 0 C10.53155924 7.95343354 18.14347493 17.4665581 20.6875 30.6875 C21.09926916 35.81782701 21.20329141 40.90872639 21.18847656 46.05371094 C21.18750722 48.41987113 21.22917299 50.78274557 21.2734375 53.1484375 C21.37873768 66.52007441 18.96574664 78.42084908 9.6875 88.6875 C10.92113281 89.10708984 10.92113281 89.10708984 12.1796875 89.53515625 C19.91435447 92.31284843 26.2361854 95.61049714 32.6875 100.6875 C33.5228125 101.31398438 34.358125 101.94046875 35.21875 102.5859375 C44.38191831 110.38622951 51.87337723 123.98029256 52.88980103 136.09963989 C52.98379314 138.90526049 53.0170582 141.70452278 53.0234375 144.51171875 C53.0334227 146.04745293 53.0334227 146.04745293 53.04360962 147.61421204 C53.05369529 149.76826184 53.05842791 151.92234263 53.05810547 154.07641602 C53.06250004 157.37502858 53.09892202 160.672325 53.13671875 163.97070312 C53.14258342 166.06770377 53.14655515 168.16471075 53.1484375 170.26171875 C53.16280853 171.24718185 53.17717957 172.23264496 53.19198608 173.24797058 C53.18583282 174.16604996 53.17967957 175.08412933 53.17333984 176.0300293 C53.17618988 176.83498337 53.17903992 177.63993744 53.18197632 178.46928406 C52.48366835 181.60188681 51.17496091 182.6905685 48.6875 184.6875 C45.8326416 185.19086456 45.8326416 185.19086456 42.46289062 185.19543457 C41.18422119 185.20671387 39.90555176 185.21799316 38.58813477 185.22961426 C37.17333758 185.22183723 35.75854263 185.21364457 34.34375 185.20507812 C32.85212521 185.21049892 31.36050577 185.21762134 29.86889648 185.22631836 C25.81927372 185.24456004 21.77005839 185.2374809 17.72042847 185.22480202 C13.48352964 185.21467864 9.24666582 185.22406585 5.00976562 185.23034668 C-2.1055325 185.23762503 -9.22066458 185.22803052 -16.3359375 185.20898438 C-24.563528 185.18721519 -32.79072203 185.19426643 -41.01830292 185.21629 C-48.08084254 185.2344387 -55.14326277 185.23700494 -62.20581818 185.22653532 C-66.42463175 185.22029744 -70.64325893 185.21947274 -74.86206055 185.23268127 C-78.82830373 185.24423156 -82.79403549 185.23622962 -86.76022339 185.21310425 C-88.21628978 185.20781268 -89.67239917 185.20933866 -91.12844849 185.21815491 C-93.11491362 185.22907434 -95.10147276 185.212957 -97.08789062 185.19543457 C-98.19990845 185.19392647 -99.31192627 185.19241837 -100.4576416 185.19086456 C-103.96733332 184.57204072 -105.14572556 183.46139811 -107.3125 180.6875 C-107.8271637 178.52311707 -107.8271637 178.52311707 -107.84594727 176.15698242 C-107.8617836 175.26472458 -107.87761993 174.37246674 -107.89393616 173.45317078 C-107.88897629 172.49280411 -107.88401642 171.53243744 -107.87890625 170.54296875 C-107.88510483 169.54098953 -107.89130341 168.53901031 -107.89768982 167.50666809 C-107.90479541 165.38083872 -107.90160115 163.25495379 -107.88891602 161.12915039 C-107.87521041 157.92420323 -107.90891718 154.72227133 -107.94726562 151.51757812 C-108.0103839 134.97333597 -106.0597455 121.91118014 -95.3125 108.6875 C-94.68988281 107.85605469 -94.06726563 107.02460938 -93.42578125 106.16796875 C-85.90297419 97.33805659 -74.99665819 92.50327078 -64.3125 88.6875 C-65.00085938 87.81351563 -65.00085938 87.81351563 -65.703125 86.921875 C-66.31671875 86.10203125 -66.9303125 85.2821875 -67.5625 84.4375 C-68.16578125 83.64859375 -68.7690625 82.8596875 -69.390625 82.046875 C-75.13824049 72.00023004 -75.95544309 62.3562077 -75.83398438 51.06054688 C-75.81252595 48.69036601 -75.83389016 46.32321468 -75.859375 43.953125 C-75.88943485 28.24290176 -71.82941926 16.60977501 -61 4.9375 C-44.70456176 -10.48496833 -18.58433045 -12.3339951 0 0 Z M-52.3125 20.6875 C-61.01515115 32.40175562 -60.61629448 48.66730711 -58.6875 62.5625 C-56.74563416 71.4816907 -51.99885931 78.06610058 -44.58203125 83.28125 C-36.80388402 88.10075603 -29.41954533 88.59922895 -20.3125 87.6875 C-11.28941527 85.52049051 -5.04488052 80.67064966 0 73 C6.48846716 61.35536428 6.28706396 45.0301524 3.49609375 32.2109375 C0.41268093 22.58830618 -5.62249056 16.61454957 -14.17578125 11.59375 C-27.4419106 5.45781009 -42.98269335 10.19406491 -52.3125 20.6875 Z M-80.26953125 117.4453125 C-90.76348343 128.9625755 -91.49024995 142.36458302 -91.375 157.1875 C-91.37048828 158.29609375 -91.36597656 159.4046875 -91.36132812 160.546875 C-91.34963172 163.26044027 -91.33169945 165.97397744 -91.3125 168.6875 C-86.0325 168.6875 -80.7525 168.6875 -75.3125 168.6875 C-75.3125 158.1275 -75.3125 147.5675 -75.3125 136.6875 C-70.0325 136.6875 -64.7525 136.6875 -59.3125 136.6875 C-59.3125 147.2475 -59.3125 157.8075 -59.3125 168.6875 C-38.1925 168.6875 -17.0725 168.6875 4.6875 168.6875 C4.6875 158.1275 4.6875 147.5675 4.6875 136.6875 C9.9675 136.6875 15.2475 136.6875 20.6875 136.6875 C20.6875 147.2475 20.6875 157.8075 20.6875 168.6875 C25.9675 168.6875 31.2475 168.6875 36.6875 168.6875 C37.64868975 139.99110024 37.64868975 139.99110024 23.9296875 115.73046875 C12.92376141 105.70242111 0.05409111 104.53583494 -14.171875 104.51953125 C-15.71032074 104.51453865 -15.71032074 104.51453865 -17.27984619 104.50944519 C-19.44144241 104.50440375 -21.60304634 104.502036 -23.76464844 104.50219727 C-27.03854475 104.50001596 -30.31210087 104.48184442 -33.5859375 104.46289062 C-51.41130486 104.41355458 -66.55104162 104.57664081 -80.26953125 117.4453125 Z " fill="#2C2178" transform="translate(115.3125,319.3125)"/>
<path d="M0 0 C10.53155924 7.95343354 18.14347493 17.4665581 20.6875 30.6875 C21.09926916 35.81782701 21.20329141 40.90872639 21.18847656 46.05371094 C21.18750722 48.41987113 21.22917299 50.78274557 21.2734375 53.1484375 C21.37873768 66.52007441 18.96574664 78.42084908 9.6875 88.6875 C10.92113281 89.10708984 10.92113281 89.10708984 12.1796875 89.53515625 C19.91435447 92.31284843 26.2361854 95.61049714 32.6875 100.6875 C33.5228125 101.31398438 34.358125 101.94046875 35.21875 102.5859375 C44.38191831 110.38622951 51.87337723 123.98029256 52.88980103 136.09963989 C52.98379314 138.90526049 53.0170582 141.70452278 53.0234375 144.51171875 C53.0334227 146.04745293 53.0334227 146.04745293 53.04360962 147.61421204 C53.05369529 149.76826184 53.05842791 151.92234263 53.05810547 154.07641602 C53.06250004 157.37502858 53.09892202 160.672325 53.13671875 163.97070312 C53.14258342 166.06770377 53.14655515 168.16471075 53.1484375 170.26171875 C53.16280853 171.24718185 53.17717957 172.23264496 53.19198608 173.24797058 C53.18583282 174.16604996 53.17967957 175.08412933 53.17333984 176.0300293 C53.17618988 176.83498337 53.17903992 177.63993744 53.18197632 178.46928406 C52.48366835 181.60188681 51.17496091 182.6905685 48.6875 184.6875 C45.8326416 185.19086456 45.8326416 185.19086456 42.46289062 185.19543457 C41.18422119 185.20671387 39.90555176 185.21799316 38.58813477 185.22961426 C37.17333758 185.22183723 35.75854263 185.21364457 34.34375 185.20507812 C32.85212521 185.21049892 31.36050577 185.21762134 29.86889648 185.22631836 C25.81927372 185.24456004 21.77005839 185.2374809 17.72042847 185.22480202 C13.48352964 185.21467864 9.24666582 185.22406585 5.00976562 185.23034668 C-2.1055325 185.23762503 -9.22066458 185.22803052 -16.3359375 185.20898438 C-24.563528 185.18721519 -32.79072203 185.19426643 -41.01830292 185.21629 C-48.08084254 185.2344387 -55.14326277 185.23700494 -62.20581818 185.22653532 C-66.42463175 185.22029744 -70.64325893 185.21947274 -74.86206055 185.23268127 C-78.82830373 185.24423156 -82.79403549 185.23622962 -86.76022339 185.21310425 C-88.21628978 185.20781268 -89.67239917 185.20933866 -91.12844849 185.21815491 C-93.11491362 185.22907434 -95.10147276 185.212957 -97.08789062 185.19543457 C-98.19990845 185.19392647 -99.31192627 185.19241837 -100.4576416 185.19086456 C-103.96733332 184.57204072 -105.14572556 183.46139811 -107.3125 180.6875 C-107.8271637 178.52311707 -107.8271637 178.52311707 -107.84594727 176.15698242 C-107.8617836 175.26472458 -107.87761993 174.37246674 -107.89393616 173.45317078 C-107.88897629 172.49280411 -107.88401642 171.53243744 -107.87890625 170.54296875 C-107.88510483 169.54098953 -107.89130341 168.53901031 -107.89768982 167.50666809 C-107.90479541 165.38083872 -107.90160115 163.25495379 -107.88891602 161.12915039 C-107.87521041 157.92420323 -107.90891718 154.72227133 -107.94726562 151.51757812 C-108.0103839 134.97333597 -106.0597455 121.91118014 -95.3125 108.6875 C-94.68988281 107.85605469 -94.06726563 107.02460938 -93.42578125 106.16796875 C-85.90297419 97.33805659 -74.99665819 92.50327078 -64.3125 88.6875 C-65.00085938 87.81351563 -65.00085938 87.81351563 -65.703125 86.921875 C-66.31671875 86.10203125 -66.9303125 85.2821875 -67.5625 84.4375 C-68.16578125 83.64859375 -68.7690625 82.8596875 -69.390625 82.046875 C-75.13824049 72.00023004 -75.95544309 62.3562077 -75.83398438 51.06054688 C-75.81252595 48.69036601 -75.83389016 46.32321468 -75.859375 43.953125 C-75.88943485 28.24290176 -71.82941926 16.60977501 -61 4.9375 C-44.70456176 -10.48496833 -18.58433045 -12.3339951 0 0 Z M-52.3125 20.6875 C-61.01515115 32.40175562 -60.61629448 48.66730711 -58.6875 62.5625 C-56.74563416 71.4816907 -51.99885931 78.06610058 -44.58203125 83.28125 C-36.80388402 88.10075603 -29.41954533 88.59922895 -20.3125 87.6875 C-11.28941527 85.52049051 -5.04488052 80.67064966 0 73 C6.48846716 61.35536428 6.28706396 45.0301524 3.49609375 32.2109375 C0.41268093 22.58830618 -5.62249056 16.61454957 -14.17578125 11.59375 C-27.4419106 5.45781009 -42.98269335 10.19406491 -52.3125 20.6875 Z M-80.26953125 117.4453125 C-90.76348343 128.9625755 -91.49024995 142.36458302 -91.375 157.1875 C-91.37048828 158.29609375 -91.36597656 159.4046875 -91.36132812 160.546875 C-91.34963172 163.26044027 -91.33169945 165.97397744 -91.3125 168.6875 C-86.0325 168.6875 -80.7525 168.6875 -75.3125 168.6875 C-75.3125 158.1275 -75.3125 147.5675 -75.3125 136.6875 C-70.0325 136.6875 -64.7525 136.6875 -59.3125 136.6875 C-59.3125 147.2475 -59.3125 157.8075 -59.3125 168.6875 C-38.1925 168.6875 -17.0725 168.6875 4.6875 168.6875 C4.6875 158.1275 4.6875 147.5675 4.6875 136.6875 C9.9675 136.6875 15.2475 136.6875 20.6875 136.6875 C20.6875 147.2475 20.6875 157.8075 20.6875 168.6875 C25.9675 168.6875 31.2475 168.6875 36.6875 168.6875 C37.64868975 139.99110024 37.64868975 139.99110024 23.9296875 115.73046875 C12.92376141 105.70242111 0.05409111 104.53583494 -14.171875 104.51953125 C-15.71032074 104.51453865 -15.71032074 104.51453865 -17.27984619 104.50944519 C-19.44144241 104.50440375 -21.60304634 104.502036 -23.76464844 104.50219727 C-27.03854475 104.50001596 -30.31210087 104.48184442 -33.5859375 104.46289062 C-51.41130486 104.41355458 -66.55104162 104.57664081 -80.26953125 117.4453125 Z " fill="#2C2178" transform="translate(283.3125,255.3125)"/>
<path d="M0 0 C3.66482288 0.53961646 6.92051088 1.78751374 10.333992 3.18993378 C11.49653503 3.64846741 11.49653503 3.64846741 12.68256378 4.11626434 C15.22272898 5.12238873 17.75439899 6.14816757 20.28614044 7.17528534 C22.05838137 7.88405763 23.8309909 8.59190889 25.6039505 9.29888153 C29.30920693 10.77987915 33.01044611 12.27038408 36.708992 13.76805878 C41.44589206 15.68555983 46.19109899 17.5814069 50.93937302 19.47053909 C54.5970652 20.92804909 58.2506177 22.39570382 61.9029541 23.86657715 C63.6512897 24.56951913 65.40078152 25.26959255 67.15144348 25.96672058 C69.59671818 26.94249848 72.03621068 27.93151398 74.474617 28.92430878 C75.19572662 29.20915131 75.91683624 29.49399384 76.65979767 29.78746796 C80.64025802 31.42693351 83.45890958 32.93691422 86.14551544 36.31591034 C86.64888 39.17076874 86.64888 39.17076874 86.65345001 42.54051971 C86.66472931 43.81918915 86.67600861 45.09785858 86.6876297 46.41527557 C86.67985267 47.83007276 86.67166001 49.24486771 86.66309357 50.65966034 C86.66851436 52.15128513 86.67563678 53.64290457 86.6843338 55.13451385 C86.70257548 59.18413662 86.69549634 63.23335195 86.68281746 67.28298187 C86.67269408 71.5198807 86.68208129 75.75674452 86.68836212 79.99364471 C86.69564047 87.10894284 86.68604596 94.22407492 86.66699982 101.33934784 C86.64523063 109.56693834 86.65228188 117.79413237 86.67430544 126.02171326 C86.69245415 133.08425288 86.69502038 140.14667311 86.68455076 147.20922852 C86.67831289 151.42804209 86.67748818 155.64666927 86.69069672 159.86547089 C86.702247 163.83171407 86.69424506 167.79744583 86.67111969 171.76363373 C86.66582812 173.21970012 86.6673541 174.67580951 86.67617035 176.13185883 C86.68708979 178.11832396 86.67097244 180.1048831 86.65345001 182.09130096 C86.65194191 183.20331879 86.65043381 184.31533661 86.64888 185.46105194 C86.02455151 189.00196361 85.00497962 190.18898158 82.14551544 192.31591034 C76.04118307 193.01746953 71.56202705 191.74468204 65.95703888 189.4418869 C65.18201019 189.13619781 64.40698151 188.83050873 63.6084671 188.51555634 C61.0683019 187.50943195 58.53663189 186.48365311 56.00489044 185.45653534 C54.23264952 184.74776304 52.46003998 184.03991179 50.68708038 183.33293915 C46.98182396 181.85194153 43.28058478 180.3614366 39.58203888 178.8637619 C34.84513883 176.94626085 30.09993189 175.05041378 25.35165787 173.16128159 C21.69396568 171.70377159 18.04041319 170.23611686 14.38807678 168.76524353 C12.63974118 168.06230155 10.89024936 167.36222813 9.1395874 166.6651001 C6.69431271 165.6893222 4.25482021 164.70030669 1.81641388 163.7075119 C1.09530426 163.42266937 0.37419464 163.13782684 -0.36876678 162.84435272 C-4.34922713 161.20488717 -7.1678787 159.69490646 -9.85448456 156.31591034 C-10.35784912 153.46105194 -10.35784912 153.46105194 -10.36241913 150.09130096 C-10.37369843 148.81263153 -10.38497772 147.5339621 -10.39659882 146.2165451 C-10.38882179 144.80174792 -10.38062913 143.38695297 -10.37206268 141.97216034 C-10.37748348 140.48053555 -10.3846059 138.98891611 -10.39330292 137.49730682 C-10.4115446 133.44768406 -10.40446546 129.39846873 -10.39178658 125.34883881 C-10.3816632 121.11193998 -10.39105041 116.87507615 -10.39733124 112.63817596 C-10.40460959 105.52287784 -10.39501507 98.40774576 -10.37596893 91.29247284 C-10.35419975 83.06488234 -10.36125099 74.83768831 -10.38327456 66.61010742 C-10.40142326 59.5475678 -10.4039895 52.48514757 -10.39351988 45.42259216 C-10.387282 41.20377859 -10.3864573 36.98515141 -10.39966583 32.76634979 C-10.41121611 28.80010661 -10.40321418 24.83437485 -10.38008881 20.86818695 C-10.37479724 19.41212056 -10.37632322 17.95601117 -10.38513947 16.49996185 C-10.3960589 14.51349671 -10.37994156 12.52693758 -10.36241913 10.54051971 C-10.36091103 9.42850189 -10.35940292 8.31648407 -10.35784912 7.17076874 C-9.30874308 1.22070903 -5.7550633 -0.30924469 0 0 Z M6.14551544 21.31591034 C6.14551544 62.56591034 6.14551544 103.81591034 6.14551544 146.31591034 C14.49869062 150.14609659 14.49869062 150.14609659 22.93653107 153.71947479 C23.92705475 154.11951218 24.91757843 154.51954956 25.93811798 154.93170929 C27.47937347 155.54921303 27.47937347 155.54921303 29.05176544 156.17919159 C30.13888824 156.61603775 31.22601105 157.05288391 32.34607697 157.50296783 C34.62113046 158.41600319 36.89673143 159.32767548 39.17285919 160.23802948 C42.66603015 161.63662401 46.15579721 163.04349208 49.64551544 164.45067596 C51.86406302 165.33985305 54.08280605 166.22854268 56.30176544 167.11669159 C57.34546295 167.5384819 58.38916046 167.96027222 59.46448517 168.39484406 C60.42979156 168.77912064 61.39509796 169.16339722 62.38965607 169.55931854 C63.23806061 169.89953537 64.08646515 170.2397522 64.96057892 170.59027863 C67.23631826 171.47350021 67.23631826 171.47350021 70.14551544 171.31591034 C70.14551544 130.06591034 70.14551544 88.81591034 70.14551544 46.31591034 C61.79234027 42.48572409 61.79234027 42.48572409 53.35449982 38.91234589 C52.36397614 38.5123085 51.37345245 38.11227112 50.3529129 37.70011139 C48.81165741 37.08260765 48.81165741 37.08260765 47.23926544 36.45262909 C46.15214264 36.01578293 45.06501984 35.57893677 43.94495392 35.12885284 C41.66990042 34.21581749 39.39429945 33.3041452 37.11817169 32.3937912 C33.62500074 30.99519667 30.13523368 29.5883286 26.64551544 28.18114471 C24.42696786 27.29196763 22.20822483 26.403278 19.98926544 25.51512909 C18.94556793 25.09333878 17.90187042 24.67154846 16.82654572 24.23697662 C15.86123932 23.85270004 14.89593292 23.46842346 13.90137482 23.07250214 C12.62876801 22.5621769 12.62876801 22.5621769 11.33045197 22.04154205 C9.05471262 21.15832047 9.05471262 21.15832047 6.14551544 21.31591034 Z " fill="#2C2178" transform="translate(417.85448455810547,7.684089660644531)"/>
<path d="M0 0 C2.85946418 2.12692876 3.87903607 3.31394673 4.50336456 6.8548584 C4.50562672 8.52288513 4.50562672 8.52288513 4.50793457 10.22460938 C4.51921387 11.50327881 4.53049316 12.78194824 4.54211426 14.09936523 C4.53433723 15.51416242 4.52614457 16.92895737 4.51757812 18.34375 C4.52299892 19.83537479 4.53012134 21.32699423 4.53881836 22.81860352 C4.55706004 26.86822628 4.5499809 30.91744161 4.53730202 34.96707153 C4.52717864 39.20397036 4.53656585 43.44083418 4.54284668 47.67773438 C4.55012503 54.7930325 4.54053052 61.90816458 4.52148438 69.0234375 C4.49971519 77.251028 4.50676643 85.47822203 4.52879 93.70580292 C4.5469387 100.76834254 4.54950494 107.83076277 4.53903532 114.89331818 C4.53279744 119.11213175 4.53197274 123.33075893 4.54518127 127.54956055 C4.55673156 131.51580373 4.54872962 135.48153549 4.52560425 139.44772339 C4.52031268 140.90378978 4.52183866 142.35989917 4.53065491 143.81594849 C4.54157434 145.80241362 4.525457 147.78897276 4.50793457 149.77539062 C4.50642647 150.88740845 4.50491837 151.99942627 4.50336456 153.1451416 C3.87863814 156.6883101 2.7959189 157.80276338 0 160 C-2.55403732 161.25026739 -5.03510998 162.35044966 -7.67089844 163.39160156 C-8.43891785 163.70429993 -9.20693726 164.01699829 -9.99822998 164.33917236 C-12.53113551 165.36694117 -15.06983922 166.37936091 -17.609375 167.390625 C-19.37831569 168.10185153 -21.14705055 168.81359018 -22.91558838 169.52581787 C-26.62164542 171.01538442 -30.33073086 172.49708297 -34.04199219 173.97363281 C-38.78747619 175.86264344 -43.52387057 177.7733494 -48.25808334 179.69040298 C-51.90886801 181.1654263 -55.56472929 182.62751284 -59.2221756 184.08592987 C-60.97009521 184.78497534 -62.71631673 185.48828296 -64.46074677 186.19599152 C-66.90591747 187.18602073 -69.35752863 188.15806473 -71.81152344 189.12597656 C-72.52453613 189.41891602 -73.23754883 189.71185547 -73.97216797 190.01367188 C-78.85177474 191.90892221 -82.75879581 192.60236152 -88 192 C-90.85946418 189.87307124 -91.87903607 188.68605327 -92.50336456 185.1451416 C-92.50487267 184.03312378 -92.50638077 182.92110596 -92.50793457 181.77539062 C-92.51921387 180.49672119 -92.53049316 179.21805176 -92.54211426 177.90063477 C-92.53433723 176.48583758 -92.52614457 175.07104263 -92.51757812 173.65625 C-92.52299892 172.16462521 -92.53012134 170.67300577 -92.53881836 169.18139648 C-92.55706004 165.13177372 -92.5499809 161.08255839 -92.53730202 157.03292847 C-92.52717864 152.79602964 -92.53656585 148.55916582 -92.54284668 144.32226562 C-92.55012503 137.2069675 -92.54053052 130.09183542 -92.52148438 122.9765625 C-92.49971519 114.748972 -92.50676643 106.52177797 -92.52879 98.29419708 C-92.5469387 91.23165746 -92.54950494 84.16923723 -92.53903532 77.10668182 C-92.53279744 72.88786825 -92.53197274 68.66924107 -92.54518127 64.45043945 C-92.55673156 60.48419627 -92.54872962 56.51846451 -92.52560425 52.55227661 C-92.52031268 51.09621022 -92.52183866 49.64010083 -92.53065491 48.18405151 C-92.54157434 46.19758638 -92.525457 44.21102724 -92.50793457 42.22460938 C-92.50642647 41.11259155 -92.50491837 40.00057373 -92.50336456 38.8548584 C-91.87863814 35.3116899 -90.7959189 34.19723662 -88 32 C-85.44596268 30.74973261 -82.96489002 29.64955034 -80.32910156 28.60839844 C-79.56108215 28.29570007 -78.79306274 27.98300171 -78.00177002 27.66082764 C-75.46886449 26.63305883 -72.93016078 25.62063909 -70.390625 24.609375 C-68.62168431 23.89814847 -66.85294945 23.18640982 -65.08441162 22.47418213 C-61.37835458 20.98461558 -57.66926914 19.50291703 -53.95800781 18.02636719 C-49.21252381 16.13735656 -44.47612943 14.2266506 -39.74191666 12.30959702 C-36.09113199 10.8345737 -32.43527071 9.37248716 -28.7778244 7.91407013 C-27.02990479 7.21502466 -25.28368327 6.51171704 -23.53925323 5.80400848 C-21.09408253 4.81397927 -18.64247137 3.84193527 -16.18847656 2.87402344 C-15.47546387 2.58108398 -14.76245117 2.28814453 -14.02783203 1.98632812 C-9.14822526 0.09107779 -5.24120419 -0.60236152 0 0 Z M-20.83251953 23.18725586 C-22.03031036 23.66452621 -23.2281012 24.14179657 -24.46218872 24.63352966 C-25.76913854 25.16044781 -27.07601132 25.68755707 -28.3828125 26.21484375 C-29.72119301 26.75091116 -31.05972667 27.28659637 -32.39840698 27.82191467 C-35.20228426 28.94440397 -38.0047369 30.07035568 -40.80615234 31.19897461 C-44.40338069 32.64807331 -48.00330482 34.09032379 -51.60421944 35.53023434 C-54.36732976 36.63564131 -57.12935497 37.74373711 -59.89101791 38.85275459 C-61.21849467 39.38565895 -62.54622564 39.91793051 -63.87421036 40.44956779 C-65.72594284 41.1915564 -67.57614667 41.93735654 -69.42626953 42.68334961 C-71.00820602 43.31955482 -71.00820602 43.31955482 -72.62210083 43.96861267 C-74.91077461 44.78832748 -74.91077461 44.78832748 -76 46 C-76.09603022 47.6195634 -76.12187855 49.24333083 -76.12025452 50.86573792 C-76.12162918 51.91888184 -76.12300385 52.97202576 -76.12442017 54.05708313 C-76.12082489 55.22233017 -76.11722961 56.38757721 -76.11352539 57.58813477 C-76.11367142 58.80747711 -76.11381744 60.02681946 -76.1139679 61.28311157 C-76.11338893 64.63627511 -76.10835968 67.98937774 -76.10139394 71.34253049 C-76.09515983 74.84325562 -76.09455656 78.34398148 -76.09336853 81.8447113 C-76.09025538 88.47809656 -76.08204222 95.11146541 -76.07201904 101.74484342 C-76.06085739 109.29490207 -76.05534732 116.84496149 -76.05032361 124.39502633 C-76.03985959 139.93002706 -76.02226047 155.46501142 -76 171 C-72.16095527 170.27629507 -68.7607092 169.23444579 -65.12402344 167.79101562 C-63.96642517 167.33384155 -62.8088269 166.87666748 -61.6161499 166.40563965 C-60.36382453 165.90601117 -59.11156783 165.40621056 -57.859375 164.90625 C-56.56865985 164.39411327 -55.2778255 163.88227688 -53.98687744 163.37072754 C-51.28934041 162.3007524 -48.59297457 161.22789409 -45.89746094 160.15283203 C-42.43679362 158.77275057 -38.97373811 157.39878503 -35.50985336 156.02680206 C-32.84800472 154.97194658 -30.18720393 153.91446992 -27.52674103 152.85612488 C-26.24952402 152.34828332 -24.97203284 151.84113077 -23.69426727 151.33467102 C-21.9146162 150.62869506 -20.13646733 149.91893578 -18.35839844 149.20898438 C-17.3453363 148.80562866 -16.33227417 148.40227295 -15.28851318 147.98669434 C-13.07726189 147.20038469 -13.07726189 147.20038469 -12 146 C-11.90396978 144.3804366 -11.87812145 142.75666917 -11.87974548 141.13426208 C-11.87837082 140.08111816 -11.87699615 139.02797424 -11.87557983 137.94291687 C-11.87917511 136.77766983 -11.88277039 135.61242279 -11.88647461 134.41186523 C-11.88632858 133.19252289 -11.88618256 131.97318054 -11.8860321 130.71688843 C-11.88661107 127.36372489 -11.89164032 124.01062226 -11.89860606 120.65746951 C-11.90484017 117.15674438 -11.90544344 113.65601852 -11.90663147 110.1552887 C-11.90974462 103.52190344 -11.91795778 96.88853459 -11.92798096 90.25515658 C-11.93914261 82.70509793 -11.94465268 75.15503851 -11.94967639 67.60497367 C-11.96014041 52.06997294 -11.97773953 36.53498858 -12 21 C-15.49332668 21 -17.5901294 21.88767508 -20.83251953 23.18725586 Z " fill="#2C2178" transform="translate(100,8)"/>
<path d="M0 0 C3.3744967 1.78836516 6.27199103 4.05851582 9.25 6.4375 C10.01957031 7.02982422 10.78914063 7.62214844 11.58203125 8.23242188 C12.36449219 8.83505859 13.14695312 9.43769531 13.953125 10.05859375 C14.77006836 10.68209717 15.58701172 11.30560059 16.42871094 11.94799805 C19 14 19 14 21.64160156 16.45239258 C30.53844288 24.22368359 38.02220294 24.15809351 49.25 23.8125 C69.76646788 23.41382115 69.76646788 23.41382115 77.2421875 29.96484375 C77.78101563 30.61582031 78.31984375 31.26679688 78.875 31.9375 C79.42929687 32.58589844 79.98359375 33.23429687 80.5546875 33.90234375 C84.40081061 39.48441972 84.32063614 44.70188777 84.3359375 51.26953125 C84.3459227 52.76198616 84.3459227 52.76198616 84.35610962 54.28459167 C84.36621898 56.38673051 84.37092717 58.48890133 84.37060547 60.59106445 C84.37497077 63.79107172 84.41128761 66.98969038 84.44921875 70.18945312 C84.45508899 72.23697448 84.459057 74.28450235 84.4609375 76.33203125 C84.47530853 77.28124954 84.48967957 78.23046783 84.50448608 79.20845032 C84.45529602 86.43685415 82.84039144 91.75867855 78.03515625 97.2421875 C77.38417969 97.78101563 76.73320312 98.31984375 76.0625 98.875 C75.41410156 99.42929687 74.76570313 99.98359375 74.09765625 100.5546875 C68.8360986 104.1799693 64.11431617 104.2971336 57.93041992 104.29052734 C57.0257045 104.29724457 56.12098907 104.30396179 55.18885803 104.31088257 C52.20267215 104.32985553 49.21671114 104.33378652 46.23046875 104.3359375 C44.1492758 104.34236627 42.06808376 104.34909469 39.9868927 104.35610962 C35.62494818 104.36808089 31.26308284 104.37179063 26.90112305 104.37060547 C21.32261328 104.37040237 15.74461348 104.39769572 10.16622448 104.43214989 C5.86727078 104.45443179 1.56843951 104.4584426 -2.73056602 104.45738602 C-4.78658492 104.45974036 -6.84260727 104.46855446 -8.89856911 104.48405075 C-11.78015041 104.50373507 -14.66063586 104.49786279 -17.54223633 104.48583984 C-18.38458832 104.49707886 -19.22694031 104.50831787 -20.09481812 104.51989746 C-26.89578704 104.44810555 -32.10035495 102.54097815 -37.2421875 98.03515625 C-37.78101563 97.38417969 -38.31984375 96.73320312 -38.875 96.0625 C-39.42929687 95.41410156 -39.98359375 94.76570313 -40.5546875 94.09765625 C-44.40081061 88.51558028 -44.32063614 83.29811223 -44.3359375 76.73046875 C-44.3425943 75.73549881 -44.3492511 74.74052887 -44.35610962 73.71540833 C-44.36621898 71.61326949 -44.37092717 69.51109867 -44.37060547 67.40893555 C-44.37497077 64.20892828 -44.41128761 61.01030962 -44.44921875 57.81054688 C-44.45508899 55.76302552 -44.459057 53.71549765 -44.4609375 51.66796875 C-44.48249405 50.24414131 -44.48249405 50.24414131 -44.50448608 48.79154968 C-44.45529602 41.56314585 -42.84039144 36.24132145 -38.03515625 30.7578125 C-37.38417969 30.21898437 -36.73320312 29.68015625 -36.0625 29.125 C-35.41410156 28.57070312 -34.76570313 28.01640625 -34.09765625 27.4453125 C-29.24180429 24.0995672 -24.96909239 23.73115177 -19.1875 23.875 C-18.14819336 23.88853516 -18.14819336 23.88853516 -17.08789062 23.90234375 C-15.39177605 23.92573843 -13.69584129 23.96160359 -12 24 C-12.02094727 23.41508789 -12.04189453 22.83017578 -12.06347656 22.22753906 C-12.14680115 19.56853535 -12.19870897 16.90980645 -12.25 14.25 C-12.28351563 13.32960937 -12.31703125 12.40921875 -12.3515625 11.4609375 C-12.44837056 4.78118169 -12.44837056 4.78118169 -10.484375 1.359375 C-6.88233074 -0.61155488 -3.92668832 -0.95399498 0 0 Z M4 25 C3.96261719 25.75925781 3.92523438 26.51851562 3.88671875 27.30078125 C3.82097656 28.29464844 3.75523437 29.28851563 3.6875 30.3125 C3.62949219 31.29863281 3.57148438 32.28476563 3.51171875 33.30078125 C2.92940459 36.3723773 2.42345172 37.11753967 0 39 C-2.08129883 39.38476562 -2.08129883 39.38476562 -4.45703125 39.40625 C-5.32263672 39.42816406 -6.18824219 39.45007813 -7.08007812 39.47265625 C-7.98177734 39.48167969 -8.88347656 39.49070312 -9.8125 39.5 C-18.36757821 39.46724692 -18.36757821 39.46724692 -26 43 C-29.06266561 48.81025028 -28.33483397 55.33063801 -28.31567383 61.71948242 C-28.31251442 63.92742315 -28.33599663 66.13402154 -28.36132812 68.34179688 C-28.3636016 69.75781082 -28.36430439 71.17382834 -28.36328125 72.58984375 C-28.36626221 73.86722412 -28.36924316 75.14460449 -28.37231445 76.46069336 C-27.96052115 80.37529499 -27.19442124 82.73635592 -25 86 C-20.84140288 88.25071563 -16.80241228 88.29053558 -12.18383789 88.2746582 C-11.41245987 88.27976913 -10.64108185 88.28488007 -9.84632874 88.29014587 C-7.30502491 88.30400742 -4.76399331 88.30308776 -2.22265625 88.30078125 C-0.45055542 88.30466997 1.32154449 88.30900501 3.09364319 88.31376648 C6.80489119 88.32122122 10.51604405 88.32094275 14.22729492 88.31567383 C18.97640086 88.30987914 23.72511681 88.32681373 28.47415829 88.3500185 C32.13308478 88.36477039 35.79191765 88.36562558 39.45086861 88.36250877 C41.20151098 88.36302122 42.95215869 88.36824455 44.70277214 88.37832069 C47.15358501 88.39069662 49.60364203 88.38388696 52.05444336 88.37231445 C52.77307556 88.37995819 53.49170776 88.38760193 54.2321167 88.39547729 C58.87416591 88.3471786 62.06222989 87.45908076 66 85 C69.33668135 79.50693953 68.33435933 72.51109302 68.31567383 66.28051758 C68.31251442 64.07257685 68.33599663 61.86597846 68.36132812 59.65820312 C68.3636016 58.24218918 68.36430439 56.82617166 68.36328125 55.41015625 C68.36626221 54.13277588 68.36924316 52.85539551 68.37231445 51.53930664 C67.96052115 47.62470501 67.19442124 45.26364408 65 42 C60.97900646 39.48543312 56.88384039 39.8631788 52.3046875 40.078125 C34.61821834 40.52808935 21.62405739 40.80657655 7.98828125 28.02734375 C7.14583862 27.15710571 7.14583862 27.15710571 6.28637695 26.26928711 C5.18255808 24.88293956 5.18255808 24.88293956 4 25 Z " fill="#2C2178" transform="translate(348,184)"/>
<path d="M0 0 C0.90471542 -0.00671722 1.80943085 -0.01343445 2.74156189 -0.02035522 C5.72774778 -0.03932819 8.71370879 -0.04325918 11.69995117 -0.04541016 C13.78114412 -0.05183893 15.86233617 -0.05856735 17.94352722 -0.06558228 C22.30547175 -0.07755354 26.66733708 -0.08126328 31.02929688 -0.08007812 C36.60780665 -0.07987503 42.18580645 -0.10716837 47.76419544 -0.14162254 C52.06314915 -0.16390444 56.36198042 -0.16791525 60.66098595 -0.16685867 C62.71700484 -0.16921302 64.77302719 -0.17802712 66.82898903 -0.19352341 C69.71057033 -0.21320773 72.59105578 -0.20733545 75.47265625 -0.1953125 C76.73618423 -0.21217102 76.73618423 -0.21217102 78.02523804 -0.22937012 C84.82620696 -0.15757821 90.03077487 1.74954919 95.17260742 6.25537109 C95.71143555 6.90634766 96.25026367 7.55732422 96.80541992 8.22802734 C97.3597168 8.87642578 97.91401367 9.52482422 98.48510742 10.19287109 C102.33123053 15.77494707 102.25105606 20.99241511 102.26635742 27.56005859 C102.27634262 29.0525135 102.27634262 29.0525135 102.28652954 30.57511902 C102.2966389 32.67725786 102.30134709 34.77942868 102.30102539 36.8815918 C102.30539069 40.08159906 102.34170753 43.28021773 102.37963867 46.47998047 C102.38550891 48.52750182 102.38947692 50.57502969 102.39135742 52.62255859 C102.40572845 53.57177689 102.42009949 54.52099518 102.43490601 55.49897766 C102.38571594 62.72738149 100.77081136 68.0492059 95.96557617 73.53271484 C95.31459961 74.07154297 94.66362305 74.61037109 93.99291992 75.16552734 C93.34452148 75.71982422 92.69612305 76.27412109 92.02807617 76.84521484 C87.17222421 80.19096014 82.89951231 80.55937558 77.11791992 80.41552734 C76.42504883 80.40650391 75.73217773 80.39748047 75.01831055 80.38818359 C73.32219597 80.36478891 71.62626121 80.32892375 69.93041992 80.29052734 C69.96184082 81.16789551 69.96184082 81.16789551 69.99389648 82.06298828 C70.07722108 84.721992 70.12912889 87.3807209 70.18041992 90.04052734 C70.21393555 90.96091797 70.24745117 91.88130859 70.28198242 92.82958984 C70.37879048 99.50934565 70.37879048 99.50934565 68.41479492 102.93115234 C64.81275066 104.90208222 61.85710824 105.24452233 57.93041992 104.29052734 C54.55592322 102.50216219 51.65842889 100.23201152 48.68041992 97.85302734 C47.91084961 97.26070313 47.1412793 96.66837891 46.34838867 96.05810547 C45.56592773 95.45546875 44.7834668 94.85283203 43.97729492 94.23193359 C43.16035156 93.60843018 42.3434082 92.98492676 41.50170898 92.3425293 C38.93041992 90.29052734 38.93041992 90.29052734 36.28881836 87.83813477 C27.39197704 80.06684375 19.90821698 80.13243383 8.68041992 80.47802734 C-11.83604796 80.87670619 -11.83604796 80.87670619 -19.31176758 74.32568359 C-19.8505957 73.67470703 -20.38942383 73.02373047 -20.94458008 72.35302734 C-21.49887695 71.70462891 -22.05317383 71.05623047 -22.62426758 70.38818359 C-26.47039069 64.80610762 -26.39021621 59.58863957 -26.40551758 53.02099609 C-26.41217438 52.02602615 -26.41883118 51.03105621 -26.4256897 50.00593567 C-26.43579905 47.90379683 -26.44050725 45.80162601 -26.44018555 43.69946289 C-26.44455085 40.49945563 -26.48086769 37.30083696 -26.51879883 34.10107422 C-26.52466907 32.05355287 -26.52863707 30.006025 -26.53051758 27.95849609 C-26.55207413 26.53466866 -26.55207413 26.53466866 -26.57406616 25.08207703 C-26.5248761 17.85367319 -24.90997152 12.53184879 -20.10473633 7.04833984 C-19.45375977 6.50951172 -18.8027832 5.97068359 -18.13208008 5.41552734 C-17.48368164 4.86123047 -16.8352832 4.30693359 -16.16723633 3.73583984 C-10.90567868 0.11055804 -6.18389625 -0.00660626 0 0 Z M-8.06958008 19.29052734 C-11.40626143 24.78358782 -10.4039394 31.77943432 -10.38525391 38.01000977 C-10.3820945 40.2179505 -10.4055767 42.42454888 -10.4309082 44.63232422 C-10.43318168 46.04833817 -10.43388447 47.46435569 -10.43286133 48.88037109 C-10.43584229 50.15775146 -10.43882324 51.43513184 -10.44189453 52.7512207 C-10.03010123 56.66582233 -9.26400131 59.02688327 -7.06958008 62.29052734 C-3.04858654 64.80509423 1.04657953 64.42734855 5.62573242 64.21240234 C23.31220158 63.76243799 36.30636254 63.4839508 49.94213867 76.26318359 C50.50376709 76.84334229 51.06539551 77.42350098 51.64404297 78.02124023 C52.74786184 79.40758778 52.74786184 79.40758778 53.93041992 79.29052734 C53.96780273 78.53126953 54.00518555 77.77201172 54.04370117 76.98974609 C54.10944336 75.99587891 54.17518555 75.00201172 54.24291992 73.97802734 C54.30092773 72.99189453 54.35893555 72.00576172 54.41870117 70.98974609 C55.00101533 67.91815005 55.5069682 67.17298767 57.93041992 65.29052734 C60.01171875 64.90576172 60.01171875 64.90576172 62.38745117 64.88427734 C63.25305664 64.86236328 64.11866211 64.84044922 65.01049805 64.81787109 C66.36304688 64.80433594 66.36304688 64.80433594 67.74291992 64.79052734 C76.29799813 64.82328043 76.29799813 64.82328043 83.93041992 61.29052734 C86.99308553 55.48027706 86.2652539 48.95988933 86.24609375 42.57104492 C86.24293434 40.36310419 86.26641655 38.1565058 86.29174805 35.94873047 C86.29402152 34.53271652 86.29472431 33.116699 86.29370117 31.70068359 C86.29668213 30.42330322 86.29966309 29.14592285 86.30273438 27.82983398 C85.89094107 23.91523236 85.12484116 21.55417142 82.93041992 18.29052734 C78.7718228 16.03981172 74.7328322 15.99999176 70.11425781 16.01586914 C68.95719078 16.00820274 68.95719078 16.00820274 67.77674866 16.00038147 C65.23544483 15.98651993 62.69441324 15.98743958 60.15307617 15.98974609 C58.38097534 15.98585737 56.60887544 15.98152233 54.83677673 15.97676086 C51.12552873 15.96930613 47.41437587 15.96958459 43.703125 15.97485352 C38.95401906 15.98064821 34.20530311 15.96371361 29.45626163 15.94050884 C25.79733514 15.92575696 22.13850228 15.92490176 18.47955132 15.92801857 C16.72890894 15.92750612 14.97826123 15.9222828 13.22764778 15.91220665 C10.77683491 15.89983072 8.32677789 15.90664038 5.87597656 15.91821289 C4.79802826 15.90674728 4.79802826 15.90674728 3.69830322 15.89505005 C-0.94374599 15.94334875 -4.13180997 16.83144658 -8.06958008 19.29052734 Z " fill="#2C2178" transform="translate(106.069580078125,183.70947265625)"/>
<path d="M0 0 C5.28 0 10.56 0 16 0 C16 5.28 16 10.56 16 16 C10.72 16 5.44 16 0 16 C0 10.72 0 5.44 0 0 Z " fill="#2C2178" transform="translate(384,240)"/>
<path d="M0 0 C5.28 0 10.56 0 16 0 C16 5.28 16 10.56 16 16 C10.72 16 5.44 16 0 16 C0 10.72 0 5.44 0 0 Z " fill="#2C2178" transform="translate(360,240)"/>
<path d="M0 0 C5.28 0 10.56 0 16 0 C16 5.28 16 10.56 16 16 C10.72 16 5.44 16 0 16 C0 10.72 0 5.44 0 0 Z " fill="#2C2178" transform="translate(336,240)"/>
<path d="M0 0 C5.28 0 10.56 0 16 0 C16 5.28 16 10.56 16 16 C10.72 16 5.44 16 0 16 C0 10.72 0 5.44 0 0 Z " fill="#2C2178" transform="translate(160,216)"/>
<path d="M0 0 C5.28 0 10.56 0 16 0 C16 5.28 16 10.56 16 16 C10.72 16 5.44 16 0 16 C0 10.72 0 5.44 0 0 Z " fill="#2C2178" transform="translate(136,216)"/>
<path d="M0 0 C5.28 0 10.56 0 16 0 C16 5.28 16 10.56 16 16 C10.72 16 5.44 16 0 16 C0 10.72 0 5.44 0 0 Z " fill="#2C2178" transform="translate(112,216)"/>
</svg>
