<?xml version="1.0" standalone="no"?>
<!DOCTYPE svg PUBLIC "-//W3C//DTD SVG 20010904//EN"
 "http://www.w3.org/TR/2001/REC-SVG-20010904/DTD/svg10.dtd">
<svg version="1.0" xmlns="http://www.w3.org/2000/svg"
 width="512.000000pt" height="512.000000pt" viewBox="0 0 512.000000 512.000000"
 preserveAspectRatio="xMidYMid meet">

<g transform="translate(0.000000,512.000000) scale(0.100000,-0.100000)"
fill="#2C2178" stroke="none">
<path d="M825 5020 c-84 -13 -220 -58 -240 -80 -24 -27 -16 -79 16 -103 26
-19 27 -19 101 7 250 86 500 42 704 -123 112 -90 205 -241 239 -383 21 -91 19
-248 -5 -342 -50 -196 -191 -371 -370 -460 -110 -54 -201 -76 -320 -76 -119 0
-209 22 -320 76 -80 40 -109 62 -185 138 -73 73 -99 107 -133 176 -54 111 -75
200 -75 325 0 118 19 200 70 305 28 58 38 70 41 53 8 -49 83 -70 117 -33 16
17 17 32 11 112 -12 183 -24 195 -169 177 -116 -13 -142 -24 -158 -60 -10 -26
-9 -34 8 -57 11 -15 31 -28 45 -30 l25 -3 -43 -87 c-108 -217 -117 -483 -24
-706 61 -145 162 -273 287 -363 l63 -45 2 -1196 3 -1197 32 -65 c41 -83 110
-152 193 -193 l65 -32 1139 -3 c1053 -2 1140 -1 1158 14 28 26 24 78 -8 103
-27 21 -29 21 -1139 21 l-1113 0 -53 28 c-60 31 -113 93 -129 150 -6 24 -10
421 -10 1171 0 1075 1 1133 18 1126 77 -30 146 -40 282 -40 121 0 158 4 224
23 103 30 205 80 287 142 l67 50 1468 -2 1469 -3 3 -834 c2 -759 4 -836 19
-853 22 -25 75 -23 99 3 18 20 19 55 22 1078 1 606 -2 1084 -7 1123 -14 102
-53 178 -127 247 -98 92 -139 104 -361 109 l-183 4 0 173 c0 168 -1 174 -22
189 -19 13 -61 16 -260 16 -225 0 -239 -1 -258 -20 -18 -18 -20 -33 -20 -190
l0 -170 -265 0 -265 0 0 168 c0 230 25 212 -287 212 l-242 0 -20 -26 c-19 -25
-21 -40 -21 -190 l0 -164 -248 0 -248 0 -33 80 c-105 257 -323 446 -594 514
-81 20 -241 28 -322 16z m1875 -675 l0 -305 -145 0 -145 0 0 305 0 305 145 0
145 0 0 -305z m1090 0 l0 -305 -140 0 -140 0 0 305 0 305 140 0 140 0 0 -305z
m-1520 -234 c0 -145 2 -161 21 -185 l20 -26 245 0 c231 0 245 1 264 20 18 18
20 33 20 185 l0 165 265 0 265 0 0 -167 c0 -141 3 -169 17 -185 15 -16 36 -18
261 -18 214 0 248 2 264 17 16 14 18 34 18 185 l0 168 163 -1 c97 0 175 -5
194 -12 65 -24 119 -73 149 -133 28 -58 29 -63 33 -251 l3 -193 -1412 0 -1411
0 26 43 c82 132 116 249 122 415 l6 132 233 0 234 0 0 -159z"/>
<path d="M896 4718 c-13 -19 -16 -60 -16 -248 -1 -182 -3 -229 -15 -244 -42
-55 7 -146 81 -151 27 -3 78 -26 169 -79 72 -42 137 -76 146 -76 9 0 28 9 43
21 28 22 35 64 14 91 -7 9 -72 51 -144 92 -88 51 -134 84 -142 101 -8 17 -12
100 -12 250 0 212 -1 226 -20 245 -28 28 -84 27 -104 -2z"/>
<path d="M1120 3250 c-19 -19 -20 -33 -20 -248 0 -299 -27 -272 271 -272 296
0 269 -27 269 273 0 214 -1 228 -20 247 -19 19 -33 20 -250 20 -217 0 -231 -1
-250 -20z m380 -250 l0 -130 -130 0 -130 0 0 130 0 130 130 0 130 0 0 -130z"/>
<path d="M1910 3250 c-19 -19 -20 -33 -20 -249 l0 -230 26 -20 c25 -20 39 -21
248 -21 210 0 223 1 244 20 21 20 22 27 22 250 0 217 -1 231 -20 250 -19 19
-33 20 -250 20 -217 0 -231 -1 -250 -20z m380 -250 l0 -130 -130 0 -130 0 0
130 0 130 130 0 130 0 0 -130z"/>
<path d="M2700 3248 c-19 -21 -20 -34 -20 -245 l0 -224 25 -24 24 -25 226 0
c212 0 226 1 245 20 19 19 20 33 20 250 0 217 -1 231 -20 250 -19 19 -33 20
-250 20 -223 0 -230 -1 -250 -22z m380 -248 l0 -130 -130 0 -130 0 0 130 0
130 130 0 130 0 0 -130z"/>
<path d="M3492 3247 c-21 -22 -22 -31 -22 -246 l0 -222 25 -24 24 -25 226 0
c212 0 226 1 245 20 19 19 20 33 20 250 0 217 -1 231 -20 250 -19 19 -33 20
-248 20 -226 0 -229 0 -250 -23z m378 -247 l0 -130 -130 0 -130 0 0 130 0 130
130 0 130 0 0 -130z"/>
<path d="M1120 2460 c-19 -19 -20 -33 -20 -248 0 -299 -27 -272 271 -272 213
0 226 1 247 20 21 20 22 27 22 250 0 217 -1 231 -20 250 -19 19 -33 20 -250
20 -217 0 -231 -1 -250 -20z m380 -250 l0 -130 -130 0 -130 0 0 130 0 130 130
0 130 0 0 -130z"/>
<path d="M1910 2458 c-19 -21 -20 -34 -20 -248 0 -297 -27 -270 273 -270 214
0 228 1 247 20 19 19 20 33 20 250 0 217 -1 231 -20 250 -19 19 -33 20 -250
20 -223 0 -230 -1 -250 -22z m380 -248 l0 -130 -130 0 -130 0 0 130 0 130 130
0 130 0 0 -130z"/>
<path d="M2702 2457 c-21 -22 -22 -31 -22 -244 0 -208 1 -222 21 -247 l20 -26
230 0 c216 0 230 1 249 20 19 19 20 33 20 250 0 217 -1 231 -20 250 -19 19
-33 20 -248 20 -226 0 -229 0 -250 -23z m378 -247 l0 -130 -130 0 -130 0 0
130 0 130 130 0 130 0 0 -130z"/>
<path d="M3491 2454 c-20 -25 -21 -39 -21 -244 0 -205 1 -219 21 -244 l20 -26
230 0 c216 0 230 1 249 20 19 19 20 33 20 250 0 217 -1 231 -20 250 -19 19
-33 20 -249 20 l-230 0 -20 -26z m379 -244 l0 -130 -130 0 -130 0 0 130 0 130
130 0 130 0 0 -130z"/>
<path d="M3993 1840 c-38 -23 -48 -40 -57 -98 -16 -107 -98 -143 -187 -82 -56
38 -98 46 -135 27 -16 -9 -65 -52 -109 -97 -78 -78 -80 -82 -80 -129 0 -37 6
-56 29 -85 37 -49 43 -101 17 -143 -19 -31 -40 -41 -125 -58 -50 -10 -83 -54
-91 -120 -10 -78 0 -191 20 -221 23 -35 74 -64 112 -64 47 0 93 -44 99 -95 5
-34 0 -49 -30 -95 -38 -57 -43 -81 -25 -127 12 -33 132 -158 171 -179 41 -22
90 -17 133 12 58 39 83 46 121 34 45 -15 71 -51 80 -107 5 -32 17 -57 40 -82
l32 -36 115 -3 c164 -5 204 17 222 123 10 55 30 84 72 101 41 17 67 11 127
-30 43 -29 92 -34 134 -12 41 21 170 159 178 190 9 39 -2 84 -31 117 -63 75
-22 189 68 189 16 0 45 8 64 17 52 24 73 77 73 183 0 147 -25 192 -118 210
-65 12 -88 27 -108 69 -20 41 -13 83 21 123 58 69 47 125 -46 223 -109 114
-156 127 -248 65 -50 -34 -94 -38 -131 -13 -38 26 -47 43 -55 97 -5 37 -14 57
-40 83 l-33 33 -123 0 c-105 0 -129 -3 -156 -20z m217 -140 c0 -34 29 -93 63
-129 85 -89 223 -106 320 -38 l29 20 45 -45 44 -45 -25 -47 c-35 -67 -41 -122
-21 -192 23 -81 88 -146 168 -169 l57 -16 0 -65 c0 -60 -1 -64 -23 -64 -13 0
-46 -12 -75 -26 -129 -64 -176 -217 -107 -343 l26 -45 -44 -43 -43 -44 -53 27
c-96 50 -227 29 -298 -48 -27 -29 -62 -105 -63 -135 0 -22 -4 -23 -65 -23 -44
0 -67 4 -69 12 -32 113 -62 155 -140 195 -72 37 -155 37 -227 -1 l-53 -27 -44
45 -45 44 22 30 c53 76 49 200 -9 281 -35 48 -66 69 -134 92 l-51 18 -3 60
c-3 59 -2 61 25 67 53 11 88 29 126 63 59 54 81 104 82 186 0 59 -4 77 -29
119 l-28 48 45 46 45 45 29 -20 c97 -68 235 -51 320 38 34 36 63 95 63 129 0
18 6 20 70 20 64 0 70 -2 70 -20z"/>
<path d="M4033 1426 c-125 -31 -256 -136 -308 -248 -91 -197 -39 -424 130
-561 79 -63 148 -89 258 -95 193 -10 358 83 440 251 171 349 -143 744 -520
653z m260 -169 c114 -62 173 -170 165 -301 -8 -124 -75 -219 -192 -272 -51
-23 -67 -26 -140 -22 -66 3 -91 10 -135 33 -103 57 -171 167 -171 280 0 246
258 400 473 282z"/>
<path d="M1120 1670 c-19 -19 -20 -33 -20 -248 0 -299 -27 -272 273 -272 214
0 228 1 247 20 19 19 20 33 20 250 0 217 -1 231 -20 250 -19 19 -33 20 -250
20 -217 0 -231 -1 -250 -20z m380 -250 l0 -130 -130 0 -130 0 0 130 0 130 130
0 130 0 0 -130z"/>
<path d="M1912 1667 c-21 -22 -22 -31 -22 -248 0 -296 -27 -269 273 -269 214
0 228 1 247 20 19 19 20 33 20 250 0 217 -1 231 -20 250 -19 19 -33 20 -248
20 -226 0 -229 0 -250 -23z m378 -247 l0 -130 -130 0 -130 0 0 130 0 130 130
0 130 0 0 -130z"/>
<path d="M2702 1667 c-21 -22 -22 -31 -22 -244 0 -208 1 -222 21 -247 l20 -26
230 0 c216 0 230 1 249 20 19 19 20 33 20 250 0 217 -1 231 -20 250 -19 19
-33 20 -248 20 -226 0 -229 0 -250 -23z m378 -247 l0 -130 -130 0 -130 0 0
130 0 130 130 0 130 0 0 -130z"/>
</g>
</svg>
