<?xml version="1.0" encoding="UTF-8"?>
<svg version="1.1" xmlns="http://www.w3.org/2000/svg" width="512" height="512">
<path d="M0 0 C2.53428459 1.77644444 2.53428459 1.77644444 5.08737183 4.31874084 C5.5621069 4.78341041 6.03684197 5.24807997 6.52596295 5.72683042 C8.11112485 7.28574297 9.67401477 8.86521609 11.23779297 10.44555664 C12.37043745 11.56843265 13.5043457 12.69003513 14.63941956 13.81045532 C17.71727294 16.85667076 20.77575873 19.92166448 23.83020926 22.99132466 C26.38163644 25.55189724 28.94242921 28.10299599 31.50332081 30.6540975 C37.54437878 36.67223986 43.57003838 42.70549471 49.5859375 48.7487793 C55.79330132 54.98394896 62.02388823 61.19517592 68.2667855 67.39475161 C73.62574343 72.71794585 78.97099196 78.05462752 84.30523217 83.40259069 C87.49134789 86.59675595 90.68219415 89.78578751 93.88586044 92.96235847 C96.89767602 95.95005224 99.89196022 98.95427488 102.87359428 101.97208023 C103.97047721 103.07661935 105.07335911 104.17523812 106.18257713 105.2673893 C107.6966685 106.76009303 109.18753645 108.27274254 110.67453003 109.79237366 C111.51478666 110.63397065 112.3550433 111.47556765 113.22076225 112.34266758 C115.51196237 115.76462756 115.41049415 117.96080973 115 122 C113.97065735 123.89804077 113.97065735 123.89804077 112.5090332 125.34912109 C111.96459061 125.90594574 111.42014801 126.46277039 110.85920715 127.03646851 C110.26242661 127.60966827 109.66564606 128.18286804 109.05078125 128.7734375 C108.44115036 129.38265045 107.83151947 129.9918634 107.20341492 130.61953735 C105.91448929 131.90010195 104.61704215 133.1721391 103.31176758 134.43603516 C101.31722733 136.37041526 99.35367101 138.33255891 97.39257812 140.30078125 C96.13453694 141.54341491 94.87482518 142.78436003 93.61328125 144.0234375 C93.02662186 144.60878265 92.43996246 145.19412781 91.83552551 145.79721069 C89.4571705 148.08092576 87.49255472 149.78198165 84.46166992 151.12353516 C77.14071937 150.7561444 71.00133812 142.26632687 66.23095703 137.45800781 C65.2551449 136.48163087 64.27889085 135.50569543 63.30223083 134.53016663 C60.66387659 131.89238419 58.03171725 129.24849853 55.40065622 126.6034441 C52.64560795 123.83585962 49.88486239 121.07397013 47.12472534 118.3114624 C41.90412973 113.08466051 36.68865165 107.85278314 31.47500885 102.61904693 C25.53698776 96.65864032 19.59325968 90.70393867 13.64905381 84.74970102 C1.42635722 72.50612172 -10.78918059 60.25542451 -23 48 C-26.37991403 49.31226522 -29.24478248 50.6826078 -32.22265625 52.7578125 C-33.0014917 53.29720459 -33.78032715 53.83659668 -34.58276367 54.39233398 C-35.40107666 54.96411377 -36.21938965 55.53589355 -37.0625 56.125 C-37.91884033 56.71031494 -38.77518066 57.29562988 -39.6574707 57.89868164 C-43.20598356 60.32770522 -46.6949934 62.7590215 -50.0703125 65.42578125 C-57.43513448 71.08680113 -65.03042564 72.70275879 -73.92114258 74.71923828 C-96.74969761 80.03730447 -110.28325904 95.02417983 -126.47192383 111.06689453 C-128.29586448 112.86902595 -130.12605406 114.66485279 -131.9621582 116.45458984 C-134.62854166 119.05447346 -137.27506954 121.67314862 -139.91796875 124.296875 C-140.74483688 125.09591248 -141.57170502 125.89494995 -142.42362976 126.71820068 C-143.1722377 127.46958313 -143.92084564 128.22096558 -144.69213867 128.99511719 C-145.35702805 129.6496991 -146.02191742 130.30428101 -146.70695496 130.97869873 C-148.26816814 132.97499078 -148.26816814 132.97499078 -147.80683899 135.65582275 C-146.37297093 139.82176036 -142.78264095 141.13923946 -139 143 C-131.49486932 145.86559535 -123.88470309 146.00715113 -116.328125 143.24609375 C-112.51428165 141.20479169 -109.55392274 138.34060205 -106.45703125 135.3515625 C-105.64621094 134.57554687 -104.83539063 133.79953125 -104 133 C-103.14921875 132.0821875 -102.2984375 131.164375 -101.421875 130.21875 C-97.0526772 126.6364384 -91.7781728 127.60404849 -86.4375 127.875 C-69.18325991 128.27905336 -54.39999773 125.10123031 -41.25 113.0625 C-39.497745 111.37734165 -37.74770029 109.68988164 -36 108 C-34.25344139 106.43088566 -32.48349666 104.88727736 -30.6875 103.375 C-29.92824219 102.72273438 -29.16898438 102.07046875 -28.38671875 101.3984375 C-25.38685649 99.64074407 -23.42336558 99.65908393 -20 100 C-18.125 101.125 -18.125 101.125 -17 103 C-16.6015625 105.796875 -16.6015625 105.796875 -17 109 C-19.265625 111.6328125 -19.265625 111.6328125 -22.25 114.125 C-23.22453125 114.95257813 -24.1990625 115.78015625 -25.203125 116.6328125 C-26.12609375 117.41398437 -27.0490625 118.19515625 -28 119 C-29.98 120.98 -29.98 120.98 -32 123 C-13.19 141.81 5.62 160.62 25 180 C30.11753954 178.29415349 33.34663091 176.60914576 37.4375 173.375 C38.00662109 172.93422119 38.57574219 172.49344238 39.16210938 172.03930664 C43.11560695 168.90305349 46.42344795 165.56670209 49.4375 161.49609375 C51.51862382 159.5034177 53.17224977 159.28817837 56 159 C58.25 159.5625 58.25 159.5625 60 161 C61.125 163.625 61.125 163.625 61 167 C59.37832332 170.00558874 57.27089603 172.46252052 55 175 C54.46890625 175.60070312 53.9378125 176.20140625 53.390625 176.8203125 C48.43539984 182.08228969 42.48136109 186.75931945 36 190 C36.2165625 190.52207031 36.433125 191.04414063 36.65625 191.58203125 C39.75734618 199.77983643 40.51961438 208.05853205 36.90234375 216.2265625 C33.74057212 222.44060718 30.32441123 226.09006682 24 229 C21.59764447 229.61529257 19.49026512 229.84435843 17 230 C17.15726562 230.54398438 17.31453125 231.08796875 17.4765625 231.6484375 C19.2232355 239.4954311 18.59566899 246.73320897 14.625 253.73828125 C10.86143713 258.97650937 6.23586184 263.11764399 0 265 C-3.69921875 265.23046875 -3.69921875 265.23046875 -7.6875 265.1875 C-8.70166992 265.1865332 -8.70166992 265.1865332 -9.73632812 265.18554688 C-14.7181326 265.1409337 -14.7181326 265.1409337 -17 264 C-17.04125 264.99 -17.0825 265.98 -17.125 267 C-18.01447315 273.18872867 -22.48375595 277.82348819 -27 281.875 C-33.7525546 286.65805951 -40.98370048 286.80443612 -49 286 C-52.50851796 284.97202659 -55.7399315 283.64843193 -59 282 C-59.495 283.175625 -59.99 284.35125 -60.5 285.5625 C-63.62098047 291.78240454 -69.23448421 297.01739257 -75.76171875 299.61328125 C-78.99923452 300.17264261 -82.10038455 299.81762444 -85.375 299.625 C-90.92103306 299.44766517 -90.92103306 299.44766517 -95.7265625 301.88671875 C-97.22798847 303.48875574 -98.69305508 305.12575282 -100.1171875 306.796875 C-103.68995203 310.97745424 -107.13209892 311.83684627 -112.48828125 312.3046875 C-121.87834599 312.62047603 -127.67100862 311.73867438 -134.75 305.625 C-139.56049097 300.01276053 -141.49688993 296.29509608 -142 289 C-142.99 289.33 -143.98 289.66 -145 290 C-153.13161283 290.56080089 -159.78204413 289.09241219 -166.25 283.9375 C-170.91791963 279.51231219 -174.49416802 274.06636358 -175.30078125 267.58203125 C-175.3125 265.375 -175.3125 265.375 -175 262 C-176.01707031 261.99613281 -176.01707031 261.99613281 -177.0546875 261.9921875 C-184.63613691 261.67716883 -190.18847471 259.99872455 -196 255 C-201.49554091 248.6108752 -202.96845992 242.2950404 -203 234 C-203.99 234.061875 -204.98 234.12375 -206 234.1875 C-213.0544408 234.15905467 -219.99996854 230.93920382 -225 226 C-229.68557274 219.34091729 -231.54444551 213.16668272 -231 205 C-228.82714513 194.78021651 -222.38647033 187.99310801 -215 181 C-217.13836397 176.06167879 -220.80970338 172.19255359 -224.19921875 168.0703125 C-226 165 -226 165 -225.89453125 161.7421875 C-225 159 -225 159 -223 157 C-220.1875 156.5625 -220.1875 156.5625 -217 157 C-214.93626546 158.62926411 -213.62864485 159.98083541 -212 162 C-210.96552734 163.26650391 -210.96552734 163.26650391 -209.91015625 164.55859375 C-207.92024876 167.0241206 -205.95253248 169.50482822 -204 172 C-203.030625 171.67 -202.06125 171.34 -201.0625 171 C-192.56501545 168.64527537 -185.79872621 170.06637184 -178 174 C-172.14192875 177.51484275 -169.11412155 183.65763534 -167 190 C-166.87218214 192.67394964 -166.95608129 195.32095857 -167 198 C-165.700625 197.9175 -164.40125 197.835 -163.0625 197.75 C-156.50516286 197.80138979 -151.60703469 199.63933457 -146.7265625 204.05859375 C-141.63853066 209.50480834 -138.95431134 213.82720416 -138.875 221.375 C-138.91625 222.57125 -138.9575 223.7675 -139 225 C-138.030625 224.938125 -137.06125 224.87625 -136.0625 224.8125 C-128.30713109 224.8750433 -122.30281453 227.75223101 -116.7265625 233.05078125 C-111.87007263 238.53356054 -109.93142174 244.70327285 -110 252 C-110.48828125 254.265625 -110.48828125 254.265625 -111 256 C-110.443125 256.01417969 -109.88625 256.02835937 -109.3125 256.04296875 C-101.72230621 256.51735586 -96.28780866 259.19614887 -91.1875 264.875 C-85.70870361 272.70185199 -85.61700707 278.56702596 -86 288 C-80.00964037 286.88315329 -77.06663086 285.80601829 -73 281 C-72.67 280.67 -72.34 280.34 -72 280 C-71.72186981 277.84074219 -71.72186981 277.84074219 -71.6875 275.3125 C-71.65011719 274.46300781 -71.61273438 273.61351562 -71.57421875 272.73828125 C-72.93381514 263.99445493 -82.34737876 257.58543155 -88.35351562 251.8125 C-89.18947266 250.99523437 -90.02542969 250.17796875 -90.88671875 249.3359375 C-92.03466919 248.23064697 -92.03466919 248.23064697 -93.20581055 247.10302734 C-95.03938162 244.95383953 -95.74617375 243.78957562 -96 241 C-94.875 238.3125 -94.875 238.3125 -93 236 C-90.59692383 235.19628906 -90.59692383 235.19628906 -88 235 C-86.26049805 235.93261719 -86.26049805 235.93261719 -84.57421875 237.546875 C-83.88763184 238.19591797 -83.20104492 238.84496094 -82.49365234 239.51367188 C-81.67074707 240.33416016 -80.8478418 241.15464844 -80 242 C-79.49615784 242.49927002 -78.99231567 242.99854004 -78.47320557 243.51293945 C-73.57801143 248.36975617 -68.73416989 253.27721674 -63.90063477 258.1953125 C-62.04884972 260.07733757 -60.19085899 261.95305918 -58.33203125 263.828125 C-57.77046829 264.40314758 -57.20890533 264.97817017 -56.63032532 265.57061768 C-53.1463953 269.07657565 -49.77598037 272.46411509 -44.75390625 273.43359375 C-39.36874703 273.44319296 -36.20126458 272.68891524 -32 269 C-30.27362827 266.16424162 -29.68304638 263.93364361 -29.625 260.625 C-29.59664062 259.89539063 -29.56828125 259.16578125 -29.5390625 258.4140625 C-30.76957625 251.96950742 -36.40159628 247.41800251 -40.953125 243.09765625 C-42.3080137 241.78264457 -43.66215861 240.46686617 -45.015625 239.15039062 C-47.13691814 237.09729598 -49.26299008 235.05014793 -51.40234375 233.01586914 C-53.47692254 231.03811989 -55.52866547 229.03888043 -57.578125 227.03515625 C-58.22179016 226.4338942 -58.86545532 225.83263214 -59.52862549 225.21315002 C-62.6777586 222.10143978 -63.89337552 220.69071622 -64.58886719 216.18530273 C-64.39454102 215.13415283 -64.20021484 214.08300293 -64 213 C-60.50776636 210.67184424 -59.10848445 210.53723928 -55 211 C-52.85844421 212.46040344 -52.85844421 212.46040344 -50.8815918 214.5324707 C-50.13028488 215.30359695 -49.37897797 216.07472321 -48.60490417 216.86921692 C-47.81102798 217.71288315 -47.01715179 218.55654938 -46.19921875 219.42578125 C-45.36340775 220.28431198 -44.52759674 221.14284271 -43.66645813 222.02738953 C-40.09189432 225.69997051 -36.55349189 229.40668149 -33.01196289 233.11108398 C-30.42019864 235.81170376 -27.81035572 238.49390903 -25.19921875 241.17578125 C-24.41141525 242.01337479 -23.62361176 242.85096832 -22.81193542 243.71394348 C-18.13969878 248.5079008 -13.84257453 252.15739158 -7 253 C-2.31817162 252.27509241 0.26420268 250.79098212 3.5 247.3125 C5.26410694 243.41676384 6.04943428 240.19773712 5 236 C1.82656304 230.57664484 -2.29840918 226.50411909 -6.79296875 222.15234375 C-8.32513522 220.64545213 -9.85702819 219.13828237 -11.38867188 217.63085938 C-13.79464842 215.27464297 -16.20370039 212.92174551 -18.61791992 210.57397461 C-20.95586727 208.29634607 -23.28129266 206.00651124 -25.60546875 203.71484375 C-26.33146774 203.01576401 -27.05746674 202.31668427 -27.8054657 201.59642029 C-28.47318497 200.93545853 -29.14090424 200.27449677 -29.82885742 199.59350586 C-30.41857834 199.0186998 -31.00829926 198.44389374 -31.6158905 197.85166931 C-33.31771638 195.57495727 -33.68589121 193.80497681 -34 191 C-33.5 188.75 -33.5 188.75 -32 187 C-28.875 185.8125 -28.875 185.8125 -25 186 C-17.02620753 191.26599002 -10.41807412 199.55394384 -3.7644043 206.40698242 C-2.26246986 207.95130537 -0.75118589 209.48596414 0.76171875 211.01953125 C1.64819092 211.92807861 2.53466309 212.83662598 3.44799805 213.77270508 C6.45194658 216.39444262 9.05105228 217.88926433 13.0625 218.1171875 C17.77286692 217.52839163 20.5778918 216.52275845 24 213 C26.26411825 209.98117567 26.29550799 206.90995693 26.4609375 203.1953125 C25.19675729 197.17438643 19.88680586 192.60785222 15.67089844 188.44384766 C15.04608582 187.81874298 14.42127319 187.19363831 13.77752686 186.54959106 C11.72618465 184.49963405 9.66786608 182.45683863 7.609375 180.4140625 C6.17975937 178.98817987 4.75058679 177.56185291 3.32183838 176.13510132 C-0.4285738 172.39230291 -4.18495454 168.65555133 -7.94262695 164.92004395 C-11.78049147 161.10268648 -15.61265736 157.27961768 -19.4453125 153.45703125 C-26.95798781 145.96576604 -34.47698345 138.48087909 -42 131 C-44.56548126 132.01691613 -47.10552118 133.04764965 -49.62109375 134.18359375 C-59.93142566 138.77390796 -69.45932995 141.24253657 -80.70751953 140.79223633 C-88.50089801 140.21813035 -88.50089801 140.21813035 -95.703125 142.55859375 C-97.65511889 144.588607 -97.65511889 144.588607 -99.30078125 146.83203125 C-104.61251818 153.60907492 -113.79185592 156.60311472 -122 158 C-133.16136354 159.31596863 -144.0540137 156.16850109 -153.125 149.58203125 C-157.25499491 146.09734805 -160.50672641 142.57271017 -161.2734375 137.01953125 C-161.30695313 136.29121094 -161.34046875 135.56289063 -161.375 134.8125 C-161.42398438 134.09707031 -161.47296875 133.38164062 -161.5234375 132.64453125 C-159.98444025 124.86914964 -153.4634179 119.0426665 -148.03125 113.703125 C-147.27332153 112.9470697 -146.51539307 112.1910144 -145.73449707 111.41204834 C-144.14112648 109.82536294 -142.54418072 108.24226043 -140.94384766 106.66259766 C-138.50028826 104.25028457 -136.06764398 101.82738178 -133.63671875 99.40234375 C-132.0813515 97.85614456 -130.52538235 96.31055055 -128.96875 94.765625 C-128.24465942 94.0457843 -127.52056885 93.3259436 -126.77453613 92.58428955 C-123.32045322 89.17870819 -119.87646411 85.93287602 -116 83 C-116.85078125 82.50113281 -117.7015625 82.00226563 -118.578125 81.48828125 C-127.30265143 76.33137774 -135.8342114 70.92104657 -144.29589844 65.34301758 C-145.10961914 64.80829834 -145.92333984 64.2735791 -146.76171875 63.72265625 C-147.48319092 63.24578369 -148.20466309 62.76891113 -148.94799805 62.27758789 C-150.91738636 61.05143572 -152.90833164 60.00036313 -155 59 C-155.56396484 59.56920166 -156.12792969 60.13840332 -156.70898438 60.72485352 C-159.30326769 63.34011844 -161.90159923 65.95132619 -164.5 68.5625 C-165.386875 69.45775391 -166.27375 70.35300781 -167.1875 71.27539062 C-168.0640625 72.15517578 -168.940625 73.03496094 -169.84375 73.94140625 C-170.63974609 74.74263916 -171.43574219 75.54387207 -172.25585938 76.36938477 C-174.28410013 78.31371699 -176.31444582 80.1267224 -178.45263672 81.93945312 C-184.26366777 86.98723553 -189.57294607 92.54590831 -194.95940018 98.03706169 C-198.32800125 101.46704865 -201.7124015 104.88141575 -205.09375 108.29882812 C-209.37897668 112.63205274 -213.65942705 116.96973729 -217.92480469 121.32250977 C-221.38994142 124.85782127 -224.86948354 128.37836562 -228.3591423 131.88946724 C-229.68265147 133.22656497 -231.00072957 134.56906145 -232.31319046 135.91700554 C-234.14390384 137.79589847 -235.99241308 139.65537464 -237.84619141 141.51147461 C-238.38244644 142.07087234 -238.91870148 142.63027008 -239.47120667 143.20661926 C-242.07800207 145.77863955 -243.57961605 146.94637154 -247.2615509 147.41607666 C-250.37741254 146.94265639 -251.47411714 146.30729843 -253.72265625 144.14453125 C-254.3995752 143.50467285 -255.07649414 142.86481445 -255.77392578 142.20556641 C-256.50853027 141.47772949 -257.24313477 140.74989258 -258 140 C-259.23532471 138.80189697 -259.23532471 138.80189697 -260.49560547 137.57958984 C-263.16425272 134.96950691 -265.80376402 132.33277902 -268.4375 129.6875 C-269.34693359 128.78193359 -270.25636719 127.87636719 -271.19335938 126.94335938 C-272.05638672 126.07904297 -272.91941406 125.21472656 -273.80859375 124.32421875 C-274.59032959 123.54135498 -275.37206543 122.75849121 -276.17749023 121.9519043 C-278.42090253 119.54921424 -278.93854388 118.46092093 -279.375 115.1875 C-278.8873124 111.04215539 -276.89292345 109.72849936 -274 107 C-272.59160878 105.59129931 -271.18806055 104.17774953 -269.7878418 102.76092529 C-268.98043549 101.94773834 -268.17302917 101.13455139 -267.34115601 100.29672241 C-266.46931671 99.41859894 -265.59747742 98.54047546 -264.69921875 97.63574219 C-255.2408588 88.11196903 -245.77234683 78.59835396 -236.29786682 69.09061813 C-230.56585067 63.33793654 -224.83767661 57.58152171 -219.11816406 51.81640625 C-214.11768527 46.77607926 -209.11023161 41.74280604 -204.09425449 36.71790051 C-201.44250902 34.06094271 -198.79439315 31.40058226 -196.15463257 28.73171234 C-193.21418627 25.75909452 -190.25828663 22.80232563 -187.30078125 19.84667969 C-186.42894196 18.96045929 -185.55710266 18.07423889 -184.65884399 17.16116333 C-183.85143768 16.35925568 -183.04403137 15.55734802 -182.2121582 14.73114014 C-181.51532425 14.03061901 -180.8184903 13.33009789 -180.10054016 12.60834885 C-177.68649234 10.75995237 -176.01090195 10.26103725 -173 10 C-171.21875 11.01171875 -171.21875 11.01171875 -169.5 12.6875 C-168.819375 13.33203125 -168.13875 13.9765625 -167.4375 14.640625 C-166.633125 15.41921875 -165.82875 16.1978125 -165 17 C-163.96132801 17.95638758 -162.91945108 18.90930203 -161.875 19.859375 C-142.29667863 37.68590671 -142.29667863 37.68590671 -141.6875 42.4375 C-142.05655316 45.46373593 -143.12073132 46.66455001 -145 49 C-140.01953238 52.36324681 -135.01815916 55.69326197 -130 59 C-129.2898877 59.46954102 -128.57977539 59.93908203 -127.84814453 60.42285156 C-125.76112169 61.79502233 -123.66372984 63.14970968 -121.5625 64.5 C-120.92570313 64.92071777 -120.28890625 65.34143555 -119.6328125 65.77490234 C-114.48299941 69.04706789 -109.41373725 71.07586083 -103.1875 70.9375 C-100.26084562 70.0767193 -97.80687469 68.99897109 -95.0625 67.6875 C-89.5092492 65.06576119 -83.91554169 63.47888542 -77.96875 61.9921875 C-77.35185303 61.83556641 -76.73495605 61.67894531 -76.09936523 61.51757812 C-74.54439892 61.13421627 -72.98278354 60.77760714 -71.41821289 60.43554688 C-64.36351497 58.76094374 -59.25863932 56.01358304 -53.4375 51.75 C-52.62047607 51.17096924 -51.80345215 50.59193848 -50.96166992 49.99536133 C-49.35684739 48.85644987 -47.75645698 47.7112606 -46.16113281 46.55908203 C-43.4010916 44.56793617 -40.60876773 42.62736095 -37.8125 40.6875 C-36.54086443 39.79280581 -35.26962275 38.89754822 -34 38 C-34.350625 37.46375 -34.70125 36.9275 -35.0625 36.375 C-36.36695069 33.07039158 -35.97700119 31.42168556 -35 28 C-33.26832111 25.59117433 -31.20151069 23.59450085 -29.06640625 21.54296875 C-28.47327133 20.9545369 -27.88013641 20.36610504 -27.26902771 19.75984192 C-25.37827256 17.89037223 -23.47057138 16.03927473 -21.5625 14.1875 C-20.28211485 12.92362759 -19.00280524 11.65866459 -17.72460938 10.39257812 C-6.49312789 -0.67600394 -6.49312789 -0.67600394 0 0 Z M-5.78759766 16.56054688 C-6.48933105 17.27275391 -7.19106445 17.98496094 -7.9140625 18.71875 C-8.67460937 19.48574219 -9.43515625 20.25273437 -10.21875 21.04296875 C-11.0128125 21.85378906 -11.806875 22.66460937 -12.625 23.5 C-13.42679687 24.31082031 -14.22859375 25.12164062 -15.0546875 25.95703125 C-17.04098424 27.96697438 -19.02248035 29.98142676 -21 32 C-17.61441923 36.23197596 -14.06153773 39.91304822 -10.01464844 43.51879883 C-0.68394895 51.96334374 8.10133689 60.97796318 16.984375 69.88671875 C18.89486446 71.79963913 20.80611498 73.71179842 22.71734619 75.62397766 C27.20262755 80.11234242 31.68535827 84.60324535 36.16713166 89.09511262 C41.27775481 94.21699089 46.39128589 99.3359619 51.50503874 104.45471513 C62.00655163 114.96662452 72.50448683 125.48209998 83 136 C84.10338218 135.0636169 85.20541029 134.12563812 86.30688477 133.18701172 C86.92072525 132.66485077 87.53456573 132.14268982 88.16700745 131.60470581 C90.87952853 129.23001076 93.41223193 126.69567399 95.9375 124.125 C96.43056641 123.62742187 96.92363281 123.12984375 97.43164062 122.6171875 C98.62345992 121.41379715 99.81208678 120.20724635 101 119 C96.11429834 113.11612923 90.85357722 107.70553616 85.44628906 102.30102539 C84.49279849 101.34453707 83.53951132 100.38784596 82.58641052 99.43096924 C80.01681462 96.85260126 77.44404245 94.2774262 74.87037754 91.70312047 C73.2620109 90.09404055 71.65435939 88.48424968 70.04695892 86.87420464 C64.43861041 81.25663198 58.82771253 75.64162051 53.21435547 70.02905273 C47.98031647 64.79561683 42.75190684 59.55660269 37.52604699 54.31500059 C33.03437141 49.81027649 28.53887647 45.30938855 24.04035163 40.8115043 C21.35525889 38.12666693 18.67175363 35.4402878 15.99207306 32.75004768 C13.47823775 30.22657427 10.95970426 27.70788897 8.4373951 25.19288635 C7.06755674 23.82460119 5.70268502 22.45134947 4.3379364 21.07798767 C3.52768509 20.27193085 2.71743378 19.46587402 1.88262939 18.63539124 C1.17695454 17.92917161 0.47127968 17.22295198 -0.25577927 16.49533176 C-2.68520586 14.41256856 -3.38089667 14.45953176 -5.78759766 16.56054688 Z M-176.51299381 26.38994598 C-177.16838862 27.04626259 -177.82378344 27.70257919 -178.4990387 28.37878418 C-179.24927307 29.12764389 -179.99950745 29.8765036 -180.7724762 30.64805603 C-181.60109665 31.48027176 -182.4297171 32.31248749 -183.28344727 33.16992188 C-184.15166107 34.03798965 -185.01987488 34.90605743 -185.91439819 35.8004303 C-188.30244098 38.18905224 -190.68823659 40.57987864 -193.07308316 42.97168922 C-195.56305113 45.46788941 -198.05583295 47.96127624 -200.54832458 50.45495605 C-205.27124388 55.18098906 -209.99160732 59.90956641 -214.71107 64.63905096 C-220.08266578 70.02180666 -225.45708611 75.40173835 -230.83175194 80.78142834 C-241.89099259 91.85113427 -252.94666004 102.92440191 -264 114 C-262.55695686 117.01409306 -261.13408132 119.10472016 -258.7421875 121.453125 C-258.11699219 122.071875 -257.49179687 122.690625 -256.84765625 123.328125 C-255.87119141 124.27945313 -255.87119141 124.27945313 -254.875 125.25 C-254.21628906 125.8996875 -253.55757812 126.549375 -252.87890625 127.21875 C-251.25703357 128.81711727 -249.6306719 130.41061897 -248 132 C-244.81036694 130.59186573 -242.6719266 128.91953332 -240.21612549 126.45663452 C-239.1098304 125.35446342 -239.1098304 125.35446342 -237.98118591 124.23002625 C-237.18205276 123.42370255 -236.38291962 122.61737885 -235.55957031 121.78662109 C-234.71042557 120.9377684 -233.86128082 120.08891571 -232.98640442 119.21434021 C-230.66282881 116.88961079 -228.34374874 114.56050655 -226.02659321 112.22938108 C-223.60250865 109.79278611 -221.17275152 107.36186129 -218.74359131 104.93032837 C-214.14625257 100.32677578 -209.55403547 95.71814913 -204.96363807 91.10767615 C-199.73664207 85.8583182 -194.50395957 80.61464448 -189.27079248 75.3714397 C-178.50752327 64.58727064 -167.75141493 53.79598816 -157 43 C-157.93724732 41.89672892 -158.87592574 40.79467351 -159.81518555 39.69311523 C-160.33775436 39.07927475 -160.86032318 38.46543427 -161.39872742 37.83299255 C-163.76009401 35.12991287 -166.26504152 32.58899174 -168.8125 30.0625 C-169.30169922 29.56943359 -169.79089844 29.07636719 -170.29492188 28.56835938 C-173.15600546 24.92742415 -173.15600546 24.92742415 -176.51299381 26.38994598 Z M-209.25 192.875 C-209.96929687 193.58269531 -210.68859375 194.29039062 -211.4296875 195.01953125 C-212.11804688 195.71175781 -212.80640625 196.40398437 -213.515625 197.1171875 C-214.13727539 197.74222168 -214.75892578 198.36725586 -215.39941406 199.01123047 C-218.29836215 202.61324864 -219.01068875 205.32660851 -218.9375 209.9375 C-218.10738619 215.16524055 -215.38008415 218.25460496 -211.125 221.375 C-206.93600501 222.60705735 -203.32722907 222.51236336 -199.2578125 220.94140625 C-194.96224748 218.38157914 -191.73988408 215.17659126 -188.25 211.625 C-187.24259766 210.635 -187.24259766 210.635 -186.21484375 209.625 C-181.77698602 205.16046177 -179.32331707 201.96373982 -178.625 195.5625 C-179.15520112 190.52558933 -181.29592546 187.76493435 -184.75 184.1875 C-195.33380089 178.60160509 -202.0637969 185.570343 -209.25 192.875 Z M-177 216 C-177.93714844 216.87011719 -178.87429687 217.74023438 -179.83984375 218.63671875 C-187.73467413 226.0215222 -187.73467413 226.0215222 -191.4375 235.9375 C-190.76316592 240.65783856 -188.99532885 244.190764 -185.4921875 247.3671875 C-181.60231168 249.99059212 -178.0161158 250.69729682 -173.39453125 249.93359375 C-168.31438296 247.95291603 -164.75276289 243.82719785 -161 240 C-160.31292969 239.35933594 -159.62585938 238.71867187 -158.91796875 238.05859375 C-154.25896762 233.67422848 -150.96426604 229.61658441 -150.5625 223 C-150.74112091 218.75369377 -152.2126834 216.23931389 -155 213 C-158.61167051 209.90428242 -162.04714765 209.34046679 -166.68359375 209.5390625 C-171.07608839 210.41311708 -173.7959653 213.00230743 -177 216 Z M-153.25 247.9375 C-153.96929687 248.65357422 -154.68859375 249.36964844 -155.4296875 250.10742188 C-161.30117169 256.0007828 -161.30117169 256.0007828 -163.375 263.875 C-163.23956526 269.0698896 -160.78430913 272.15196555 -157.25 275.8125 C-153.98577218 277.53528691 -150.65988983 278.29956394 -147 278 C-140.88282633 275.78759281 -136.76257707 271.31346667 -132.25 266.8125 C-131.48300781 266.08224609 -130.71601563 265.35199219 -129.92578125 264.59960938 C-125.20812829 259.9192665 -122.77200329 256.66730111 -122 250 C-122.30403341 246.01451861 -123.81940142 243.07162025 -126.77734375 240.38671875 C-137.7722349 232.8949983 -145.23569593 239.73971827 -153.25 247.9375 Z M-128 279 C-130.31025742 282.87082865 -130.69960048 286.57204088 -130 291 C-127.96472975 294.85247583 -125.86428089 297.90224752 -122 300 C-117.47108745 301.19631652 -114.11735745 301.31102762 -109.8359375 299.21875 C-104.96097585 295.98260525 -100.16730601 291.51969068 -98 286 C-97.27679233 281.37483466 -97.5878604 277.85598225 -99.625 273.625 C-103.21825366 269.65350911 -106.20011818 268.22498523 -111.5 267.5625 C-118.51064048 268.43883006 -123.56085914 273.78286539 -128 279 Z " fill="#E0A528" transform="translate(397,200)"/>
<path d="M0 0 C1.13569931 -0.00845947 2.27139862 -0.01691895 3.44151306 -0.02563477 C4.6883638 -0.01956207 5.93521454 -0.01348938 7.21984863 -0.00723267 C9.18837547 -0.0151181 9.18837547 -0.0151181 11.19667053 -0.02316284 C14.79790345 -0.03685294 18.39887886 -0.03153096 22.00011635 -0.02202559 C25.76636074 -0.01443769 29.53258288 -0.02147217 33.29882812 -0.02618408 C39.62394169 -0.03164419 45.94895022 -0.02444339 52.27404785 -0.01016235 C59.58988789 0.00616472 66.90547713 0.00087639 74.22131109 -0.01564157 C80.49909537 -0.02924923 86.77680408 -0.03117965 93.05459833 -0.02332556 C96.80555998 -0.01864505 100.55640369 -0.01803448 104.30735779 -0.02793503 C108.48797495 -0.03819859 112.66815875 -0.02397911 116.84875488 -0.00723267 C118.09560562 -0.01330536 119.34245636 -0.01937805 120.62709045 -0.02563477 C122.33063942 -0.01294556 122.33063942 -0.01294556 124.06860352 0 C125.0574781 0.00113108 126.04635269 0.00226215 127.06519318 0.00342751 C129.53430176 0.38095093 129.53430176 0.38095093 131.35462189 1.67119408 C133.42677835 4.67445266 132.89589421 8.24938243 132.82727051 11.76766968 C132.82302567 12.5846785 132.81878082 13.40168732 132.81440735 14.24345398 C132.79761867 16.85212199 132.75996694 19.46001655 132.72180176 22.06845093 C132.70675513 23.83731998 132.69306668 25.60620114 132.68078613 27.37509155 C132.64771462 31.71067589 132.59593166 36.04568229 132.53430176 40.38095093 C133.63129395 40.34614624 134.72828613 40.31134155 135.85852051 40.27548218 C137.31293221 40.24733227 138.76736056 40.2200334 140.22180176 40.19345093 C141.30364746 40.15574585 141.30364746 40.15574585 142.40734863 40.11727905 C146.94239344 40.05515515 150.08505385 40.30439097 153.53430176 43.38095093 C154.10192871 45.64926147 154.10192871 45.64926147 154.02258301 48.26766968 C154.00646973 49.20546265 153.99035645 50.14325562 153.97375488 51.10946655 C153.93186035 52.0859314 153.88996582 53.06239624 153.84680176 54.06845093 C153.81296387 55.55055054 153.81296387 55.55055054 153.77844238 57.06259155 C153.71948163 59.50356652 153.63725224 61.94149961 153.53430176 64.38095093 C154.60277344 64.36524048 155.67124512 64.34953003 156.77209473 64.33334351 C160.77901515 64.27858019 164.78590326 64.24443405 168.79309082 64.21615601 C170.5193846 64.20117417 172.24564101 64.18078154 173.97180176 64.15463257 C187.20428917 63.95936149 198.25197174 63.99573695 208.53430176 73.38095093 C217.84095368 82.89911766 218.68595527 93.721416 218.67956543 106.38949585 C218.68460335 107.84223656 218.68460335 107.84223656 218.68974304 109.32432556 C218.69918865 112.50337021 218.70119245 115.6823619 218.70227051 118.86141968 C218.70548585 121.08003257 218.70885014 123.29864524 218.71235657 125.51725769 C218.71833061 130.15631604 218.72019807 134.7953558 218.71960449 139.43441772 C218.71950258 145.37954361 218.73319226 151.32455085 218.7503767 157.26964855 C218.76148716 161.84639536 218.76352405 166.42311329 218.76299477 170.99987221 C218.76417488 173.19232914 218.76859838 175.38478682 218.77632713 177.57723045 C218.7861143 180.63843554 218.78325471 183.69938041 218.77722168 186.7605896 C218.78284119 187.66511871 218.78846069 188.56964783 218.79425049 189.50158691 C218.74578571 199.16946698 218.74578571 199.16946698 215.53430176 202.38095093 C212.09680176 202.56845093 212.09680176 202.56845093 208.53430176 202.38095093 C206.13893958 199.98558875 206.28302553 199.47764924 206.27601624 196.21479797 C206.26918823 195.34156891 206.26236023 194.46833984 206.25532532 193.56864929 C206.25787827 192.6081517 206.26043121 191.64765411 206.26306152 190.65805054 C206.25522141 189.14311005 206.25522141 189.14311005 206.2472229 187.5975647 C206.23696038 185.39806109 206.23119859 183.19853304 206.22934151 180.99900627 C206.22568772 177.51394642 206.20898554 174.02917369 206.18858337 170.54417419 C206.13309327 160.63313143 206.1025523 150.72204503 206.07800293 140.81088257 C206.06209025 134.75251326 206.03182425 128.69434481 205.99323845 122.63607979 C205.98161285 120.32972923 205.97565831 118.02334267 205.97555733 115.71696281 C205.97536437 112.48096784 205.9570291 109.2455223 205.93493652 106.00961304 C205.9395137 105.06328506 205.94409088 104.11695709 205.94880676 103.14195251 C205.87109067 95.94883326 204.52731917 89.83040414 200.90930176 83.56845093 C192.45192558 75.77876235 181.76017434 76.72145917 170.97180176 76.63095093 C169.27841235 76.60275208 167.58505089 76.57281926 165.89172363 76.54110718 C161.77263355 76.46770596 157.65387394 76.41784927 153.53430176 76.38095093 C153.55001221 77.31946899 153.55001221 77.31946899 153.56604004 78.27694702 C153.60753367 81.10324103 153.63360649 83.92947104 153.65930176 86.75595093 C153.67605957 87.74079468 153.69281738 88.72563843 153.71008301 89.74032593 C153.71652832 90.68134155 153.72297363 91.62235718 153.72961426 92.59188843 C153.74008789 93.46119995 153.75056152 94.33051147 153.76135254 95.22616577 C153.53430176 97.38095093 153.53430176 97.38095093 151.53430176 99.38095093 C148.49828339 99.63263321 148.49828339 99.63263321 144.51171875 99.63491821 C143.78046516 99.63803819 143.04921157 99.64115818 142.29579878 99.6443727 C139.83290131 99.65238273 137.37024817 99.64601748 134.90734863 99.63973999 C133.14677282 99.64244852 131.38619813 99.64600868 129.62562561 99.65036011 C124.83441215 99.65950279 120.0432845 99.65593214 115.25206947 99.64960194 C110.24681994 99.64455164 105.24157794 99.64923068 100.23632812 99.65237427 C91.82961706 99.65601675 83.42294109 99.65120742 75.01623535 99.64169312 C65.28572702 99.63080803 55.5553025 99.63433341 45.8247962 99.64534593 C37.48253583 99.65441077 29.14030075 99.65570802 20.79803705 99.65046859 C15.81024457 99.64734446 10.82249152 99.64695164 5.83470154 99.65354156 C1.14635721 99.65930275 -3.54187869 99.65534074 -8.23021126 99.64375305 C-9.95480735 99.64109987 -11.67941252 99.6418827 -13.40400505 99.64627838 C-15.75049993 99.65170948 -18.09664302 99.64492972 -20.44311523 99.63491821 C-21.75868156 99.63416416 -23.07424789 99.63341011 -24.42967987 99.63263321 C-27.46569824 99.38095093 -27.46569824 99.38095093 -29.46569824 97.38095093 C-29.69274902 95.22616577 -29.69274902 95.22616577 -29.66101074 92.59188843 C-29.65456543 91.6508728 -29.64812012 90.70985718 -29.64147949 89.74032593 C-29.62472168 88.75548218 -29.60796387 87.77063843 -29.59069824 86.75595093 C-29.5816748 85.7633728 -29.57265137 84.77079468 -29.56335449 83.74813843 C-29.53973941 81.29216959 -29.50680624 78.83667924 -29.46569824 76.38095093 C-34.42849213 76.42540187 -39.39004953 76.49554142 -44.35217285 76.58847046 C-46.03664251 76.61652077 -47.72123988 76.63781383 -49.40588379 76.65194702 C-64.23802723 76.53053372 -64.23802723 76.53053372 -76.84069824 83.56845093 C-81.74183864 92.05119393 -81.89609333 100.30019933 -81.84664917 109.91781616 C-81.8501098 111.38760188 -81.85487709 112.85738501 -81.8608309 114.32716274 C-81.87331488 118.34848461 -81.86718245 122.36959196 -81.85787225 126.39091444 C-81.85107139 130.7345418 -81.86156812 135.07813284 -81.86981201 139.42175293 C-81.88314048 147.92398497 -81.88027555 156.42613749 -81.87157409 164.92837262 C-81.86479447 171.83931966 -81.86388203 178.75024444 -81.86714554 185.66119385 C-81.86760524 186.64540453 -81.86806494 187.62961522 -81.86853857 188.64365047 C-81.86949776 190.64315709 -81.8704704 192.6426637 -81.87145634 194.64217031 C-81.88000764 213.38439493 -81.87018018 232.1265755 -81.85405524 250.86879289 C-81.8406523 266.94480773 -81.84298047 283.02075758 -81.85681152 299.09677124 C-81.87287192 317.77267686 -81.87918369 336.44854389 -81.86997473 355.12445545 C-81.8690191 357.11653963 -81.86807599 359.10862382 -81.86714554 361.10070801 C-81.86668271 362.08080996 -81.86621989 363.06091192 -81.86574303 364.07071394 C-81.86315453 370.97205847 -81.86752114 377.8733785 -81.8745842 384.77471924 C-81.88300449 393.18701167 -81.8807079 401.59922014 -81.86474197 410.01150298 C-81.8568664 414.30224207 -81.85375547 418.59284125 -81.86368942 422.88357925 C-81.87265163 426.81408718 -81.86767847 430.74432595 -81.85175677 434.67480958 C-81.84841541 436.0939349 -81.85008848 437.51308313 -81.85738413 438.93219364 C-81.89984846 447.8810545 -81.44681207 455.41242789 -76.77819824 463.19345093 C-69.95327766 469.64945688 -62.93967367 470.0128723 -53.96569824 470.13095093 C-52.30280762 470.17542358 -52.30280762 470.17542358 -50.60632324 470.22079468 C-47.89271072 470.29097431 -45.17993144 470.34392705 -42.46569824 470.38095093 C-42.51210449 469.33294312 -42.55851074 468.2849353 -42.60632324 467.20516968 C-42.64384373 465.82629192 -42.6802436 464.44738335 -42.71569824 463.06845093 C-42.74921387 462.37815796 -42.78272949 461.68786499 -42.81726074 460.97665405 C-42.91588822 455.87268204 -42.91588822 455.87268204 -40.64538574 453.39266968 C-37.55394431 451.95775331 -35.67804644 452.40327974 -32.46569824 453.38095093 C-29.99456243 457.08765464 -30.11781236 460.03287274 -30.05163574 464.33016968 C-30.03226959 465.10278641 -30.01290344 465.87540314 -29.99295044 466.6714325 C-29.93321345 469.13699332 -29.88679338 471.602601 -29.84069824 474.06845093 C-29.80251299 475.74099723 -29.76346094 477.41352398 -29.72351074 479.08602905 C-29.62751691 483.1841774 -29.54346447 487.28241781 -29.46569824 491.38095093 C-27.546003 489.62490246 -25.62680485 487.86831592 -23.70788574 486.11141968 C-22.89807251 485.37079285 -22.89807251 485.37079285 -22.07189941 484.61520386 C-19.80408381 482.53824402 -17.54656761 480.45897774 -15.33337402 478.32357788 C-12.79207374 475.94640473 -11.10391144 474.46889026 -7.60241699 473.98641968 C-3.65327758 474.48313584 -2.12790827 475.77202006 0.84680176 478.38095093 C2.14037598 479.49470093 2.14037598 479.49470093 3.46008301 480.63095093 C4.4745752 481.53845093 5.48906738 482.44595093 6.53430176 483.38095093 C9.50430176 486.02095093 12.47430176 488.66095093 15.53430176 491.38095093 C15.53430176 473.89095093 15.53430176 456.40095093 15.53430176 438.38095093 C10.58430176 440.36095093 10.58430176 440.36095093 5.53430176 442.38095093 C-9.00025853 445.28786299 -22.78970485 443.13443355 -35.46569824 435.38095093 C-45.92711003 427.97078424 -52.725161 416.84091821 -55.46569824 404.38095093 C-56.35645123 393.73491689 -56.55359813 383.0037181 -51.46569824 373.38095093 C-51.02999512 372.52372437 -50.59429199 371.6664978 -50.14538574 370.78329468 C-43.4570032 358.66745417 -33.78282537 351.22672234 -20.67272949 347.17001343 C-6.77806572 343.75135072 5.82133481 345.53473375 18.26867676 352.40438843 C29.91029657 359.450632 37.26861104 369.66446436 40.87414551 382.79110718 C43.63078922 397.78137681 40.98820149 410.47289384 32.90148926 423.42001343 C31.53430176 425.38095093 31.53430176 425.38095093 29.53430176 427.38095093 C29.20494796 429.31781222 29.20494796 429.31781222 29.2154541 431.55526733 C29.19558441 432.41600861 29.17571472 433.27674988 29.15524292 434.16357422 C29.14369171 435.09382416 29.1321405 436.0240741 29.12023926 436.98251343 C29.10087311 437.93411346 29.08150696 438.8857135 29.06155396 439.8661499 C29.00166044 442.91265839 28.95533381 445.95920447 28.90930176 449.00595093 C28.87113097 451.06846762 28.83207977 453.13096823 28.79211426 455.19345093 C28.6959509 460.25582059 28.61195613 465.31826488 28.53430176 470.38095093 C29.60913818 470.36524048 30.68397461 470.34953003 31.79138184 470.33334351 C35.77763379 470.27905982 39.76385304 470.24460671 43.75036621 470.21615601 C45.47600803 470.20106577 47.20161148 470.18059117 48.92712402 470.15463257 C51.40695664 470.11825884 53.8862824 470.10122734 56.36633301 470.08798218 C57.13830521 470.07249832 57.9102774 470.05701447 58.7056427 470.0410614 C64.02430827 470.03938876 64.02430827 470.03938876 66.5213623 471.71176147 C68.11934054 474.345017 67.90936508 476.38044433 67.53430176 479.38095093 C66.5213623 481.05014038 66.5213623 481.05014038 64.53430176 482.38095093 C61.73441047 482.64254415 59.16202246 482.72999431 56.36633301 482.67391968 C55.57152023 482.66967484 54.77670746 482.66542999 53.95780945 482.66105652 C51.42046155 482.64427023 48.88390938 482.60661917 46.34680176 482.56845093 C44.62611011 482.55340398 42.905406 482.53971559 41.18469238 482.5274353 C36.96758914 482.494367 32.75108034 482.44258587 28.53430176 482.38095093 C28.55001221 483.14762085 28.56572266 483.91429077 28.58190918 484.70419312 C28.64429149 488.17970395 28.68330338 491.65509694 28.72180176 495.13095093 C28.74693848 496.33751343 28.7720752 497.54407593 28.79797363 498.78720093 C28.8076416 499.94735718 28.81730957 501.10751343 28.82727051 502.30282593 C28.84298096 503.37113647 28.85869141 504.43944702 28.87487793 505.54013062 C28.48937227 508.7557176 27.81368659 510.11028267 25.53430176 512.38095093 C22.68273926 512.91610718 22.68273926 512.91610718 19.53430176 512.38095093 C16.82336426 510.43954468 16.82336426 510.43954468 14.15930176 507.81845093 C13.19757014 506.89474467 12.23532755 505.97157015 11.27258301 505.04891968 C10.3689502 504.16848999 9.46531738 503.2880603 8.53430176 502.38095093 C3.42564743 497.7243899 -1.87235865 493.44207249 -7.46569824 489.38095093 C-8.23913574 490.09380249 -9.01257324 490.80665405 -9.80944824 491.54110718 C-20.70986845 501.57145844 -20.70986845 501.57145844 -25.73132324 505.87704468 C-26.86925549 506.86376521 -27.98522637 507.87652023 -29.07507324 508.91610718 C-31.61750921 511.26851571 -33.19304254 512.33818141 -36.65319824 512.88095093 C-39.84844281 512.31290745 -40.59512044 511.96723989 -42.46569824 509.38095093 C-42.80627441 506.56185913 -42.80627441 506.56185913 -42.75866699 503.18173218 C-42.74416504 501.36898804 -42.74416504 501.36898804 -42.72937012 499.5196228 C-42.7042334 498.25698608 -42.67909668 496.99434937 -42.65319824 495.69345093 C-42.63966309 494.41921265 -42.62612793 493.14497437 -42.61218262 491.8321228 C-42.57678023 488.68131035 -42.52739614 485.53134048 -42.46569824 482.38095093 C-43.16541748 482.40189819 -43.86513672 482.42284546 -44.58605957 482.44442749 C-47.81662088 482.52858027 -51.0469505 482.57992163 -54.27819824 482.63095093 C-55.37841309 482.66446655 -56.47862793 482.69798218 -57.61218262 482.73251343 C-68.2087526 482.8575467 -76.96157839 480.70662324 -84.74694824 473.24032593 C-90.72157021 466.77687125 -93.70839733 460.91431634 -93.72855377 451.89775658 C-93.74007721 449.95765317 -93.74007721 449.95765317 -93.75183344 447.97835577 C-93.75027313 446.55008445 -93.74851559 445.12181334 -93.74658203 443.69354248 C-93.7517521 442.17073727 -93.75777919 440.64793478 -93.76458883 439.12513602 C-93.78070309 434.94326342 -93.78430653 430.76145953 -93.78578377 426.57955956 C-93.78948939 422.06812724 -93.80458637 417.55673038 -93.8180542 413.0453186 C-93.84520377 403.18155133 -93.85726766 393.31780033 -93.86607552 383.4540019 C-93.87160336 377.29320017 -93.88007863 371.1324047 -93.88908386 364.97160721 C-93.91346717 347.90903556 -93.93406607 330.84646893 -93.94083405 313.78388023 C-93.94127318 312.69209354 -93.94171231 311.60030685 -93.94216475 310.47543571 C-93.94281958 308.83387075 -93.94281958 308.83387075 -93.94348764 307.15914285 C-93.94437457 304.94157497 -93.9452677 302.72400709 -93.94616699 300.50643921 C-93.94660985 299.40645248 -93.94705271 298.30646575 -93.94750899 297.17314608 C-93.95540337 279.35334526 -93.99030742 261.53370809 -94.03688604 243.71397047 C-94.0843383 225.41203521 -94.1092389 207.11018203 -94.11156988 188.80818427 C-94.11340202 178.53496933 -94.12487186 168.26196762 -94.16120911 157.98881149 C-94.19204532 149.24015114 -94.20223211 140.49176991 -94.1857329 131.74306552 C-94.17793163 127.28168975 -94.17971969 122.82087579 -94.2078476 118.35956955 C-94.23339889 114.26941889 -94.23086926 110.18025001 -94.20666617 106.09010001 C-94.20276454 104.61631111 -94.20885244 103.14245179 -94.2263549 101.66876166 C-94.3461142 90.89678653 -92.63723883 82.05385768 -85.19024897 73.88490331 C-77.02579851 66.08145637 -68.98250126 64.21018359 -57.88366699 64.28329468 C-56.66239861 64.2854171 -56.66239861 64.2854171 -55.41645813 64.2875824 C-52.82866668 64.29315776 -50.24096332 64.30570569 -47.65319824 64.31845093 C-45.89343387 64.32346911 -44.13366814 64.32803146 -42.37390137 64.3321228 C-38.07113331 64.34311912 -33.76843069 64.36036672 -29.46569824 64.38095093 C-29.49188232 63.76050903 -29.51806641 63.14006714 -29.54504395 62.50082397 C-29.64896239 59.69029045 -29.71400396 56.88016036 -29.77819824 54.06845093 C-29.82009277 53.09198608 -29.8619873 52.11552124 -29.90515137 51.10946655 C-29.92932129 49.7027771 -29.92932129 49.7027771 -29.95397949 48.26766968 C-29.98016357 47.40359497 -30.00634766 46.53952026 -30.0333252 45.64926147 C-29.46569824 43.38095093 -29.46569824 43.38095093 -27.45471191 41.58724976 C-23.63839948 40.04707172 -20.19332805 40.05264211 -16.15319824 40.19345093 C-15.04234863 40.21375366 -15.04234863 40.21375366 -13.90905762 40.23446655 C-12.0942875 40.26959114 -10.27989537 40.32339121 -8.46569824 40.38095093 C-8.48140869 39.27582153 -8.49711914 38.17069214 -8.51330566 37.03207397 C-8.56758381 32.93400351 -8.60204048 28.83596486 -8.63049316 24.73764038 C-8.64558466 22.9634975 -8.66606015 21.18939194 -8.6920166 19.41537476 C-8.72838465 16.86604606 -8.74542063 14.31721034 -8.75866699 11.76766968 C-8.77415085 10.9738237 -8.7896347 10.17997772 -8.80558777 9.36207581 C-8.80726641 3.87599923 -8.80726641 3.87599923 -7.28601837 1.67119408 C-4.7780048 -0.10648627 -3.06241637 0.0035028 0 0 Z M3.53430176 11.38095093 C3.53430176 20.95095093 3.53430176 30.52095093 3.53430176 40.38095093 C42.14430176 40.38095093 80.75430176 40.38095093 120.53430176 40.38095093 C120.53430176 30.81095093 120.53430176 21.24095093 120.53430176 11.38095093 C81.92430176 11.38095093 43.31430176 11.38095093 3.53430176 11.38095093 Z M-17.46569824 52.38095093 C-17.46569824 64.26095093 -17.46569824 76.14095093 -17.46569824 88.38095093 C35.00430176 88.38095093 87.47430176 88.38095093 141.53430176 88.38095093 C141.53430176 76.50095093 141.53430176 64.62095093 141.53430176 52.38095093 C89.06430176 52.38095093 36.59430176 52.38095093 -17.46569824 52.38095093 Z M-36.92663574 372.07626343 C-43.85678769 382.45390214 -45.09534222 393.01717694 -42.98913574 405.11923218 C-40.44664284 413.9873249 -33.84286269 421.10580975 -26.46569824 426.38095093 C-17.27536016 431.3773456 -7.80258273 433.04410479 2.54992676 430.69735718 C12.29578581 427.41697725 20.86610388 421.29544533 25.75695801 412.07626343 C30.22743431 402.30210377 31.40941837 391.89011433 27.90930176 381.50595093 C24.03019355 372.32000718 18.33501625 366.14298137 9.53430176 361.38095093 C-7.27583643 354.61297368 -25.15857981 357.29647754 -36.92663574 372.07626343 Z " fill="#E0A528" transform="translate(93.4656982421875,-0.380950927734375)"/>
<path d="M0 0 C3.625 0.6875 3.625 0.6875 5.91796875 3.9296875 C9.29211931 9.69631289 12.42044093 15.60483428 15.5625 21.5 C16.75883057 23.73582907 17.95544255 25.9715076 19.15234375 28.20703125 C19.67562256 29.18776611 20.19890137 30.16850098 20.73803711 31.17895508 C21.80219722 33.15761272 22.89853629 35.12193802 24.09559536 37.02314091 C28.32267263 44.0180788 29.48972716 49.34238317 29.36962891 57.44189453 C29.37693024 58.56045837 29.38423157 59.67902222 29.39175415 60.83148193 C29.40784522 64.49506111 29.38085253 68.15683737 29.3515625 71.8203125 C29.35052397 74.38377888 29.3515645 76.94724686 29.35458374 79.51071167 C29.35440484 84.86857009 29.33434399 90.22580744 29.29736328 95.58349609 C29.25499517 101.75661663 29.24802155 107.92899268 29.2604872 114.10222924 C29.27191794 120.07117271 29.26032123 126.03989425 29.23814011 132.00881577 C29.23046465 134.53567332 29.2281278 137.06255312 29.2313118 139.58942032 C29.23205669 143.12400612 29.20671678 146.65747693 29.17431641 150.19189453 C29.17927124 151.22694122 29.18422607 152.26198792 29.18933105 153.32839966 C29.05006076 162.88707312 26.04625873 169.95704971 19.55859375 176.9609375 C13.13318626 182.69837206 5.86055698 184.03100098 -2.5078125 183.88671875 C-11.9659479 183.22954585 -18.17529171 178.74580098 -24.375 171.6875 C-29.32884772 163.74830721 -29.53145767 155.3607544 -29.61547852 146.25439453 C-29.62847488 145.21607986 -29.64147125 144.1777652 -29.65486145 143.10798645 C-29.78160726 132.25374989 -29.83832206 121.39875523 -29.88989258 110.54394531 C-29.91658733 105.40711194 -29.96526036 100.27121261 -30.03344727 95.13476562 C-30.11585336 88.90963485 -30.15814745 82.6853901 -30.17295647 76.4597435 C-30.18512579 74.10043044 -30.21097382 71.74114291 -30.25140572 69.38214493 C-30.49174206 54.61606934 -29.27033455 44.25372069 -21.375 31.6875 C-20.01397984 29.18126532 -18.71782372 26.64378273 -17.41796875 24.10546875 C-16.4593478 22.29513587 -15.49383537 20.48864316 -14.52758789 18.68237305 C-13.53960593 16.83212501 -12.55989775 14.97762781 -11.58007812 13.12304688 C-10.94320387 11.92942297 -10.30585326 10.73605307 -9.66796875 9.54296875 C-9.1061792 8.48746826 -8.54438965 7.43196777 -7.96557617 6.34448242 C-5.60601654 2.40294942 -4.56940491 0.9308047 0 0 Z M-0.375 19.6875 C-8.33338556 30.5618526 -8.33338556 30.5618526 -12.375 42.6875 C-4.125 42.6875 4.125 42.6875 12.625 42.6875 C11.3875 40.191875 10.15 37.69625 8.875 35.125 C8.49375977 34.35341553 8.11251953 33.58183105 7.71972656 32.78686523 C5.49882102 28.32743693 3.13564041 23.99064719 0.625 19.6875 C0.295 19.6875 -0.035 19.6875 -0.375 19.6875 Z M-17.375 54.6875 C-17.375 82.0775 -17.375 109.4675 -17.375 137.6875 C-6.155 137.6875 5.065 137.6875 16.625 137.6875 C16.625 110.2975 16.625 82.9075 16.625 54.6875 C5.405 54.6875 -5.815 54.6875 -17.375 54.6875 Z M-17.375 149.6875 C-17.39078227 158.71105987 -17.39078227 158.71105987 -12.98046875 166.234375 C-11.24542075 167.7743559 -11.24542075 167.7743559 -8.375 169.6875 C-7.446875 170.3371875 -7.446875 170.3371875 -6.5 171 C-1.49532425 172.6191598 3.05263635 172.22101453 7.8125 170.1875 C12.51865149 167.53274788 14.37999787 164.59844217 16.625 159.6875 C16.625 156.3875 16.625 153.0875 16.625 149.6875 C5.405 149.6875 -5.815 149.6875 -17.375 149.6875 Z " fill="#E0A528" transform="translate(380.375,-0.6875)"/>
<path d="M0 0 C0.9745971 -0.00573832 0.9745971 -0.00573832 1.96888304 -0.01159257 C4.14995083 -0.02192632 6.33075556 -0.01792983 8.51184082 -0.01396179 C10.0739008 -0.01830803 11.63595864 -0.02349088 13.19801331 -0.02944946 C17.4437934 -0.0428592 21.6894846 -0.04341603 25.93528175 -0.04088616 C29.47674959 -0.03981795 33.01819933 -0.0446959 36.5596633 -0.04949158 C44.91206301 -0.06059326 53.26441776 -0.06102024 61.61682129 -0.05497742 C70.24139708 -0.04893378 78.86580989 -0.06125698 87.49035788 -0.08254749 C94.88914072 -0.10014235 102.28787159 -0.10616826 109.68667459 -0.10290974 C114.10833573 -0.10109361 118.52988058 -0.10376598 122.95152283 -0.11762428 C127.10806704 -0.13016397 131.2643564 -0.1282954 135.42089653 -0.11521339 C136.94834414 -0.11283973 138.47580947 -0.11561044 140.00323677 -0.12383652 C142.08456959 -0.13423949 144.16503693 -0.12625671 146.24633789 -0.11352539 C147.41219673 -0.11369313 148.57805557 -0.11386087 149.77924347 -0.1140337 C152.62316895 0.26069641 152.62316895 0.26069641 154.49828339 1.56142902 C156.38854599 4.41688536 155.98320476 6.96036813 155.62316895 10.26069641 C152.04042063 12.64919529 150.46535486 12.51596062 146.20837402 12.52812195 C145.55455907 12.53265306 144.90074411 12.53718417 144.22711658 12.54185259 C142.03223966 12.55453175 139.83760974 12.55287402 137.6427002 12.55122375 C136.07078735 12.55720672 134.49887745 12.56401173 132.92697144 12.57157898 C128.65434097 12.58926728 124.38179058 12.59393547 120.10912704 12.59521055 C116.54528993 12.59710795 112.98147155 12.60446343 109.41764164 12.61155474 C101.0125083 12.62784615 92.60741782 12.63272291 84.20227051 12.63130188 C75.52312303 12.63009942 66.84422382 12.65122024 58.1651392 12.68278921 C50.71964627 12.70890907 43.27423467 12.71967102 35.82869625 12.71839106 C31.37904576 12.71788027 26.92961596 12.723628 22.48001099 12.74474716 C18.29714895 12.7640582 14.11471978 12.76430343 9.9318428 12.7497139 C8.39471431 12.74761595 6.85755922 12.75238504 5.32047653 12.76443481 C3.22579092 12.77979545 1.13261526 12.77064304 -0.96203613 12.75517273 C-2.13526932 12.75626226 -3.3085025 12.7573518 -4.51728821 12.75847435 C-7.37683105 12.26069641 -7.37683105 12.26069641 -9.28556824 10.42510414 C-10.83786695 7.34627905 -10.36367042 5.5031686 -9.37683105 2.26069641 C-5.80068116 -0.12340352 -4.24714396 0.00747846 0 0 Z " fill="#E0A528" transform="translate(117.3768310546875,177.7393035888672)"/>
<path d="M0 0 C0.64494228 -0.00382555 1.28988457 -0.00765109 1.95437056 -0.01159257 C4.11928546 -0.02192595 6.28393531 -0.01792988 8.4488678 -0.01396179 C9.99945319 -0.01830809 11.55003642 -0.02349096 13.10061646 -0.02944946 C17.31547312 -0.04285962 21.53024024 -0.0434159 25.74511409 -0.04088616 C29.26163443 -0.03981781 32.77813655 -0.04469633 36.294653 -0.04949158 C44.58956133 -0.06059375 52.88442438 -0.0610202 61.17933655 -0.05497742 C69.74140885 -0.048936 78.30331688 -0.06125125 86.86536115 -0.08254749 C94.21235546 -0.10015075 101.55929742 -0.10616686 108.90631205 -0.10290974 C113.29614734 -0.10109469 117.68586546 -0.10375506 122.07568169 -0.11762428 C126.20350239 -0.13017732 130.33106663 -0.12828262 134.45888329 -0.11521339 C135.97462296 -0.11284253 137.49038055 -0.11560052 139.0060997 -0.12383652 C141.07394608 -0.13426317 143.14092539 -0.12623739 145.20874023 -0.11352539 C146.94508429 -0.113777 146.94508429 -0.113777 148.716506 -0.1140337 C151.99226475 0.30188545 153.39671385 0.88377336 155.66786194 3.26069641 C156.10536194 6.82319641 156.10536194 6.82319641 155.66786194 10.26069641 C152.08511362 12.64919529 150.51004785 12.51596062 146.25306702 12.52812195 C145.59925206 12.53265306 144.94543711 12.53718417 144.27180958 12.54185259 C142.07693265 12.55453175 139.88230273 12.55287402 137.68739319 12.55122375 C136.11548034 12.55720672 134.54357044 12.56401173 132.97166443 12.57157898 C128.69903397 12.58926728 124.42648357 12.59393547 120.15382004 12.59521055 C116.58998293 12.59710795 113.02616455 12.60446343 109.46233463 12.61155474 C101.05720129 12.62784615 92.65211081 12.63272291 84.2469635 12.63130188 C75.56781602 12.63009942 66.88891681 12.65122024 58.20983219 12.68278921 C50.76433927 12.70890907 43.31892766 12.71967102 35.87338924 12.71839106 C31.42373876 12.71788027 26.97430895 12.723628 22.52470398 12.74474716 C18.34184194 12.7640582 14.15941277 12.76430343 9.9765358 12.7497139 C8.43940731 12.74761595 6.90225222 12.75238504 5.36516953 12.76443481 C3.27048391 12.77979545 1.17730825 12.77064304 -0.91734314 12.75517273 C-2.09057632 12.75626226 -3.26380951 12.7573518 -4.47259521 12.75847435 C-7.33213806 12.26069641 -7.33213806 12.26069641 -9.24087524 10.42510414 C-10.79317396 7.34627905 -10.31897742 5.5031686 -9.33213806 2.26069641 C-5.7655981 -0.1169969 -4.23351072 0.00751033 0 0 Z " fill="#E0A528" transform="translate(117.33213806152344,134.7393035888672)"/>
<path d="M0 0 C5.37656701 3.05852614 9.41080097 7.29214544 11.3125 13.25 C12.48908004 19.43304818 10.91122208 25.1977973 8.1875 30.75 C4.19744472 35.26506256 0.74469738 38.02120037 -5.3515625 38.88671875 C-12.16170743 39.11372358 -16.80592143 38.69791637 -22.1875 34.4375 C-26.87568707 29.96298365 -28.9049064 25.48951083 -29.5 19.0625 C-29.00219744 13.28799025 -27.56981071 9.0744469 -23.8125 4.625 C-16.71060787 -1.29324344 -8.79702317 -3.95866043 0 0 Z M-16.1875 14.4375 C-17.44360015 18.1272942 -17.53102813 19.70136829 -15.875 23.25 C-14.37171412 25.52665626 -14.37171412 25.52665626 -12.1875 26.4375 C-7.17628616 26.92475249 -7.17628616 26.92475249 -2.8125 24.75 C-0.96828193 22.12553583 -0.26580977 20.64820053 -0.1875 17.4375 C-1.80905629 13.95115399 -2.95203292 12.59447806 -6.1875 10.4375 C-10.79595206 9.70984968 -13.03046853 11.10507789 -16.1875 14.4375 Z " fill="#E0A528" transform="translate(95.1875,375.5625)"/>
<path d="M0 0 C0.68812271 -0.00686325 1.37624542 -0.0137265 2.08522034 -0.02079773 C4.35975782 -0.03909902 6.63360782 -0.03522421 8.90820312 -0.02954102 C10.48856837 -0.03410091 12.06893163 -0.03940591 13.64929199 -0.04542542 C16.96142635 -0.05436277 20.27331967 -0.05192604 23.58544922 -0.04199219 C27.83286071 -0.03049537 32.07944172 -0.0507209 36.32674408 -0.07990932 C39.59012141 -0.09824186 42.85329859 -0.09798494 46.11671448 -0.0922718 C47.68283759 -0.09211826 49.24897398 -0.09819 50.81504822 -0.11056328 C53.00353352 -0.12541878 55.19046992 -0.11483936 57.37890625 -0.09765625 C59.24730164 -0.097407 59.24730164 -0.097407 61.15344238 -0.09715271 C64.18945312 0.40405273 64.18945312 0.40405273 66.1229248 2.24009705 C67.64072105 5.31966255 67.17260911 7.17368307 66.18945312 10.40405273 C62.5464713 12.83270728 60.81106361 12.66242391 56.47070312 12.67871094 C55.79233398 12.68382187 55.11396484 12.6889328 54.41503906 12.69419861 C52.17308731 12.70809684 49.93144283 12.70713793 47.68945312 12.70483398 C46.13150925 12.70872039 44.57356644 12.71305495 43.015625 12.71781921 C39.75061609 12.72528161 36.48571532 12.72498974 33.22070312 12.71972656 C29.03396739 12.71392748 24.84767341 12.73087308 20.66101074 12.75407124 C17.44398404 12.76879206 14.22706418 12.76968263 11.01000977 12.76656151 C9.4662183 12.76707541 7.92242096 12.7723261 6.37866211 12.78237343 C4.22154888 12.794691 2.06530216 12.78797569 -0.09179688 12.77636719 C-1.31962891 12.77699661 -2.54746094 12.77762604 -3.8125 12.77827454 C-6.81054688 12.40405273 -6.81054688 12.40405273 -8.70703125 11.06828308 C-10.43649736 8.46004636 -10.19058185 6.44433254 -9.81054688 3.40405273 C-7.29952154 -0.39812072 -4.28365129 0.01858105 0 0 Z " fill="#E0A528" transform="translate(52.810546875,263.595947265625)"/>
<path d="M0 0 C1.15129395 -0.00630432 2.30258789 -0.01260864 3.48876953 -0.019104 C4.73255371 -0.01505554 5.97633789 -0.01100708 7.2578125 -0.00683594 C9.17182861 -0.00970612 9.17182861 -0.00970612 11.12451172 -0.01263428 C13.82468179 -0.01399642 16.52449081 -0.01129984 19.22460938 -0.00195312 C22.6848708 0.00944136 26.14482197 0.00287993 29.60507202 -0.00909805 C32.90599664 -0.01806434 36.20688383 -0.01178587 39.5078125 -0.00683594 C40.75159668 -0.0108844 41.99538086 -0.01493286 43.27685547 -0.019104 C44.42814941 -0.01279968 45.57944336 -0.00649536 46.765625 0 C47.78027832 0.00159119 48.79493164 0.00318237 49.84033203 0.00482178 C52.3828125 0.25878906 52.3828125 0.25878906 55.3828125 2.25878906 C56.36149403 5.11955044 56.60416361 6.64581675 55.5703125 9.50878906 C54.3828125 11.25878906 54.3828125 11.25878906 52.3828125 12.25878906 C50.55598456 12.37009376 48.72514884 12.41802109 46.89501953 12.43579102 C45.74687775 12.44862625 44.59873596 12.46146149 43.415802 12.47468567 C42.16999359 12.4820726 40.92418518 12.48945953 39.640625 12.49707031 C38.36557098 12.50514206 37.09051697 12.51321381 35.77682495 12.52153015 C33.07497514 12.53538034 30.37324775 12.54639433 27.67138672 12.55395508 C24.21213333 12.5650229 20.75352264 12.59942739 17.29449654 12.63912678 C13.99326963 12.67156798 10.69198703 12.6760695 7.390625 12.68457031 C6.14886505 12.7020784 4.9071051 12.71958649 3.62771606 12.73762512 C1.89604691 12.73323677 1.89604691 12.73323677 0.12939453 12.72875977 C-0.88605438 12.73462601 -1.9015033 12.74049225 -2.94772339 12.74653625 C-6.34875833 12.12512118 -7.55376843 10.98904267 -9.6171875 8.25878906 C-9.5546875 5.13378906 -9.5546875 5.13378906 -8.6171875 2.25878906 C-5.20917592 -0.01321866 -4.0009532 0.00627432 0 0 Z " fill="#E0A528" transform="translate(116.6171875,220.7412109375)"/>
<path d="M0 0 C0.95108643 -0.01268417 1.90217285 -0.02536835 2.88208008 -0.03843689 C3.90712646 -0.03550125 4.93217285 -0.03256561 5.98828125 -0.02954102 C7.04233154 -0.03478287 8.09638184 -0.04002472 9.18237305 -0.04542542 C11.41161213 -0.05185083 13.64088509 -0.05050193 15.87011719 -0.04199219 C19.28772085 -0.0334798 22.70365522 -0.06224179 26.12109375 -0.09399414 C28.28515575 -0.09560609 30.44922071 -0.09502874 32.61328125 -0.09204102 C34.15085083 -0.10889198 34.15085083 -0.10889198 35.71948242 -0.12608337 C37.14611206 -0.11201195 37.14611206 -0.11201195 38.6015625 -0.09765625 C39.43856689 -0.09749008 40.27557129 -0.09732391 41.13793945 -0.09715271 C43.30078125 0.40405273 43.30078125 0.40405273 45.10229492 2.24009705 C46.30078125 4.40405273 46.30078125 4.40405273 46.17578125 7.52905273 C45.30078125 10.40405273 45.30078125 10.40405273 42.30078125 12.40405273 C40.22059631 12.66474915 40.22059631 12.66474915 37.80102539 12.67871094 C36.43929955 12.69300896 36.43929955 12.69300896 35.05006409 12.70759583 C34.07190231 12.70668442 33.09374054 12.70577301 32.0859375 12.70483398 C31.07865097 12.70911911 30.07136444 12.71340424 29.03355408 12.71781921 C26.90266675 12.72356374 24.7717598 12.72406188 22.64086914 12.71972656 C19.37937982 12.71656832 16.11879889 12.7400187 12.85742188 12.76538086 C10.78776156 12.76765399 8.71809881 12.76835728 6.6484375 12.76733398 C5.18423119 12.78114861 5.18423119 12.78114861 3.69044495 12.79524231 C2.77947556 12.78901352 1.86850616 12.78278473 0.92993164 12.77636719 C0.13067764 12.77699661 -0.66857635 12.77762604 -1.49205017 12.77827454 C-4.28470924 12.30478378 -5.66484276 11.35205486 -7.69921875 9.40405273 C-8.15622486 6.27029656 -8.39752824 4.34497571 -6.46557617 1.74180603 C-4.1825091 0.01272195 -2.84794258 0.01838388 0 0 Z " fill="#E0A528" transform="translate(50.69921875,306.595947265625)"/>
<path d="M0 0 C2.53510672 2.28159605 2.95114595 3.60916757 3.375 7 C2.95114595 10.39083243 2.53510672 11.71840395 0 14 C-3.65878362 15.19308162 -5.29997692 15.32667744 -8.8125 13.6875 C-11 12 -11 12 -12 10 C-12.29123466 6.65080137 -12.36462337 4.64243165 -10.6875 1.6875 C-7.35207976 -1.64792024 -4.28161165 -1.15960316 0 0 Z " fill="#E0A528" transform="translate(193,469)"/>
<path d="M0 0 C2.53510672 2.28159605 2.95114595 3.60916757 3.375 7 C2.95453593 10.36371258 2.47099051 11.69942263 0 14 C-3.01890228 15.11222716 -4.58251335 15.1165079 -7.6875 14.25 C-10 13 -10 13 -12 10 C-12.36017958 6.61431194 -12.38185838 4.6727981 -10.6875 1.6875 C-7.35207976 -1.64792024 -4.28161165 -1.15960316 0 0 Z " fill="#E0A528" transform="translate(310,225)"/>
</svg>
