<svg version="1.1" id="Layer_1" xmlns="http://www.w3.org/2000/svg" xmlns:xlink="http://www.w3.org/1999/xlink" x="0px" y="0px"
	 width="100%" viewBox="0 0 512 512" enable-background="new 0 0 512 512" xml:space="preserve">
<path fill="#2C2178" opacity="1.000000" stroke="none" 
	d="
M1.000000,449.468658 
	C3.961540,444.729126 4.389427,439.499603 6.376059,434.827301 
	C18.480333,406.359894 39.394917,388.068726 69.050179,379.587250 
	C71.873779,378.779755 74.864449,378.401886 78.286591,376.271698 
	C57.806732,369.524139 43.320217,356.917419 36.488293,336.897491 
	C31.918097,323.505188 31.882500,309.653564 36.717625,296.302338 
	C45.818668,271.171631 68.365211,252.991455 102.591309,256.897736 
	C128.697281,259.877289 149.685913,278.372467 153.984726,307.112061 
	C157.925461,333.457947 147.531494,364.942719 107.215378,376.987793 
	C127.526001,380.460999 145.575348,387.966919 161.212448,402.603912 
	C181.977737,377.406677 208.202866,361.754639 242.248123,356.988831 
	C216.290085,350.727142 197.583862,337.076080 185.447891,314.848541 
	C175.833420,297.239166 174.287689,278.274902 178.097794,259.178589 
	C184.990982,224.629822 218.364456,193.711090 262.457458,196.439453 
	C296.054382,198.518341 328.415833,222.878540 335.969879,259.487610 
	C342.828308,292.725403 331.208740,340.279999 273.338989,357.012756 
	C306.011169,362.305511 332.223389,377.310944 352.824799,402.831573 
	C367.345612,388.457428 385.020081,381.410553 405.123230,376.849976 
	C363.533112,362.503357 355.034882,327.763153 361.018097,302.126312 
	C367.177429,275.734863 390.825806,252.914459 427.983826,256.822968 
	C452.935425,259.447510 475.274017,276.883881 479.916595,306.993439 
	C484.109375,334.186096 472.855011,365.057983 433.889069,376.692261 
	C475.884918,385.868896 503.707764,409.887268 512.908386,453.635101 
	C513.000000,466.687561 513.000000,479.375122 512.714355,492.741272 
	C509.683441,496.456085 506.321014,497.415314 502.203125,497.413269 
	C338.928314,497.331757 175.653427,497.322021 12.378650,497.431641 
	C7.406285,497.434967 3.662652,496.188354 1.000000,492.000000 
	C1.000000,477.979095 1.000000,463.958221 1.000000,449.468658 
M298.499939,476.662537 
	C315.825897,476.660095 333.152588,476.573212 350.477295,476.720337 
	C354.336273,476.753113 355.819733,475.558136 355.736725,471.574127 
	C355.635803,466.732910 355.153351,461.936523 354.060638,457.293457 
	C347.220398,428.228302 331.329285,405.682983 305.286346,390.645386 
	C284.373535,378.570038 261.624573,375.386444 238.379944,379.774506 
	C214.729691,384.239136 194.745071,396.155884 179.691345,415.431580 
	C167.222504,431.397522 159.712128,449.385315 158.408524,469.702332 
	C157.964767,476.618256 158.296234,476.656586 165.056198,476.657501 
	C209.204102,476.663483 253.352005,476.661469 298.499939,476.662537 
M206.179230,247.540726 
	C197.582062,261.680878 196.223709,276.846069 200.243042,292.579651 
	C206.394379,316.658844 231.990280,337.043152 258.946442,335.923859 
	C282.279633,334.955017 303.241882,319.340179 311.123627,300.133148 
	C319.542389,279.617523 317.333801,259.763489 303.746582,241.375977 
	C279.325928,208.327545 227.177917,211.132874 206.179230,247.540726 
M424.499939,476.658752 
	C425.998840,476.658997 427.497742,476.659454 428.996643,476.659515 
	C448.315826,476.660065 467.636810,476.515991 486.952881,476.762360 
	C491.802124,476.824219 493.251892,474.962219 492.655121,470.591888 
	C492.319550,468.134430 491.817291,465.685547 491.683929,463.216888 
	C490.593536,443.028412 481.124634,427.125061 465.972321,414.543365 
	C451.304718,402.364105 434.096954,397.180908 415.037598,398.391052 
	C396.608643,399.561127 380.689331,406.393646 367.508270,419.469635 
	C365.390381,421.570618 365.266327,423.407806 366.505707,426.093414 
	C373.171448,440.537262 377.388306,455.635437 377.267761,471.663544 
	C377.237122,475.738495 378.713562,476.776184 382.530823,476.727325 
	C396.185211,476.552521 409.843262,476.658417 424.499939,476.658752 
M26.789032,476.658691 
	C61.420513,476.658508 96.052277,476.592316 130.683121,476.739532 
	C135.142731,476.758453 136.825851,475.610138 136.766922,470.864746 
	C136.576279,455.510529 140.616196,440.985718 146.960541,427.153931 
	C148.684097,423.396271 148.200821,421.152557 145.392883,418.503113 
	C127.314888,401.445526 105.773781,395.397522 81.627106,399.382690 
	C45.784168,405.298218 21.430634,435.420685 21.303488,472.016022 
	C21.291622,475.431458 22.356148,477.071136 26.789032,476.658691 
M382.417328,326.982269 
	C387.136200,343.814331 403.791260,356.446259 421.387512,355.838867 
	C444.772858,355.031616 463.099884,331.941925 458.187927,309.049927 
	C454.634338,292.488403 437.434723,277.448395 418.850494,278.159943 
	C394.557190,279.090027 375.970886,302.733063 382.417328,326.982269 
M81.616531,353.819427 
	C88.020378,356.253845 94.759018,356.530823 101.239708,355.171692 
	C129.993393,349.141632 141.928055,316.016052 125.310051,294.251282 
	C115.676064,281.633514 103.054230,276.417999 87.859940,278.648865 
	C72.900482,280.845245 62.445660,289.942657 57.379143,304.151581 
	C50.137501,324.460663 60.154110,344.993195 81.616531,353.819427 
z"/>
<path fill="#2C2178" opacity="1.000000" stroke="none" 
	d="
M315.112610,65.630798 
	C319.802887,66.305481 324.039673,67.032265 328.297180,67.604927 
	C332.457001,68.164444 335.335358,70.014893 336.626953,74.278801 
	C337.944397,78.628052 337.622223,82.419868 334.287415,85.752991 
	C324.980743,95.054878 315.754944,104.438515 306.374023,113.664642 
	C304.291016,115.713287 303.538086,117.479172 304.148529,120.582367 
	C306.254608,131.288849 307.736694,142.116776 309.722839,152.849136 
	C310.185120,155.347076 310.321838,157.787033 310.313293,160.266830 
	C310.283752,168.835907 303.879211,173.749756 295.930023,170.337723 
	C286.495850,166.288315 277.546021,161.109955 268.392395,156.408951 
	C267.952515,156.183029 267.583893,155.822586 267.161316,155.557968 
	C261.017822,151.710632 255.459015,149.833023 248.189743,154.666428 
	C239.390396,160.517166 229.321289,164.430313 219.958862,169.473770 
	C215.166580,172.055298 210.647263,172.094788 206.399536,168.992340 
	C202.447906,166.106171 202.123871,161.571640 202.803879,157.203537 
	C204.382675,147.061996 205.792709,136.854660 208.176910,126.890717 
	C210.037140,119.116531 208.873016,113.950722 202.038513,108.661690 
	C193.414093,101.987495 186.124939,93.536018 178.548065,85.576797 
	C172.741562,79.477280 176.033966,69.469627 184.473770,67.763794 
	C193.049194,66.030525 201.761703,64.968987 210.421692,63.663116 
	C215.325760,62.923618 220.233856,62.184460 225.161575,61.638584 
	C227.958374,61.328762 228.447281,59.017029 229.364304,57.204056 
	C235.147873,45.769909 240.938385,34.335842 246.460327,22.774557 
	C248.519333,18.463619 251.431580,16.612474 256.196808,16.570150 
	C261.260437,16.525171 264.784546,18.216784 267.007416,22.890003 
	C272.364319,34.152004 277.924103,45.317432 283.293671,56.573513 
	C284.735931,59.596916 286.301483,61.554131 290.165588,61.939209 
	C298.373718,62.757187 306.505249,64.343880 315.112610,65.630798 
M265.167664,69.169456 
	C262.402527,63.945621 260.265106,58.372665 256.519012,52.939560 
	C252.847031,60.299900 249.132401,66.948540 246.177063,73.919098 
	C243.764206,79.610115 239.634018,81.747032 233.917007,82.446770 
	C226.333252,83.374985 218.798813,84.706223 213.270111,85.553612 
	C217.582047,90.641220 222.093796,96.677155 227.360046,101.961105 
	C231.876694,106.492928 233.111267,111.361893 231.861588,117.342148 
	C230.914459,121.874557 229.845703,126.436745 229.560165,131.030991 
	C229.395767,133.676178 227.510910,136.343124 229.150177,139.431808 
	C235.406143,136.254211 241.690033,133.579590 247.422256,130.017273 
	C254.271973,125.760498 260.307312,126.549187 266.864807,130.586945 
	C272.391357,133.989929 278.408234,136.596634 285.218628,140.071396 
	C283.813934,131.558548 282.971527,124.311005 281.350800,117.241928 
	C279.771942,110.355499 282.085175,105.564049 287.170258,101.068542 
	C292.426117,96.422058 297.052795,91.063873 302.177307,85.787834 
	C296.046570,84.924408 290.356842,83.759209 284.616486,83.397316 
	C275.292419,82.809494 268.334930,79.358421 265.167664,69.169456 
z"/>
<path fill="#2C2178" opacity="1.000000" stroke="none" 
	d="
M35.980347,168.019211 
	C33.266636,165.287704 30.681101,162.914551 28.362867,160.304031 
	C22.719454,153.949081 25.984163,144.144791 34.292595,142.668930 
	C42.592255,141.194641 50.916409,139.766708 59.287106,138.830597 
	C62.470875,138.474579 63.995201,137.079941 65.245926,134.510956 
	C68.594788,127.632378 72.087128,120.823784 75.458633,113.956047 
	C77.664917,109.461868 80.637077,106.604187 86.178474,106.536636 
	C91.664108,106.469772 94.780144,108.856804 96.945946,113.610825 
	C99.633896,119.511009 103.324097,125.024467 105.421883,131.105011 
	C107.758636,137.878235 112.538986,139.152725 118.618858,139.732681 
	C125.184769,140.359009 131.769928,141.287277 138.196899,142.744492 
	C147.104614,144.764145 150.112900,154.114838 143.940338,160.845734 
	C139.017822,166.213516 134.349350,172.022018 128.143692,175.994705 
	C121.372353,180.329544 123.773705,186.282974 124.626305,192.045609 
	C125.568779,198.415680 126.861008,204.703827 127.530800,211.151291 
	C128.576187,221.214218 117.831093,224.556564 111.426971,221.255768 
	C104.340073,217.603073 97.260368,213.929367 90.286827,210.067459 
	C87.692436,208.630722 85.562813,208.496445 82.895805,209.982468 
	C76.515778,213.537323 69.779701,216.399292 63.438755,220.084595 
	C58.879139,222.734619 53.486263,224.164429 48.873482,220.540878 
	C44.610035,217.191757 44.094501,212.318756 45.234589,206.941391 
	C46.777367,199.664688 47.376942,192.189499 48.875813,184.901215 
	C49.448406,182.116959 48.617741,180.561081 46.845413,178.847900 
	C43.254154,175.376434 39.762711,171.801727 35.980347,168.019211 
M71.932350,181.034760 
	C71.394936,184.022247 70.581505,186.986618 70.865822,190.420685 
	C76.612839,189.306015 80.655586,184.580734 86.390816,184.687454 
	C92.316338,184.797714 96.579887,189.124863 102.096962,191.239075 
	C101.840919,185.280975 99.751144,179.781982 100.822678,174.226395 
	C101.966026,168.298462 108.204025,165.969864 111.142082,160.984726 
	C105.777451,159.335648 99.926308,160.100220 95.293777,156.948853 
	C90.694954,153.820404 89.495476,148.131989 85.974777,141.913528 
	C82.388580,156.029297 73.481606,161.119568 60.355297,161.239258 
	C62.746422,164.433655 65.287132,166.563278 67.841934,168.675858 
	C71.492241,171.694336 72.785866,175.591858 71.932350,181.034760 
z"/>
<path fill="#2C2178" opacity="1.000000" stroke="none" 
	d="
M402.970215,220.408264 
	C401.669006,220.894592 400.744385,221.269562 399.795013,221.565094 
	C390.041473,224.601425 383.129547,218.486847 384.859802,208.421600 
	C386.206543,200.587418 387.239044,192.691116 388.865021,184.917343 
	C389.446289,182.138443 388.605286,180.591080 386.844177,178.858231 
	C380.905182,173.014420 375.107208,167.026611 369.134369,161.218231 
	C365.778931,157.955154 364.848938,154.149689 366.148651,149.833527 
	C367.461456,145.473969 370.271515,143.022873 375.102997,142.451920 
	C383.310455,141.482025 391.428131,139.746857 399.637238,138.798325 
	C402.659332,138.449127 404.009705,136.997086 405.170166,134.633148 
	C408.323761,128.209167 411.608368,121.849091 414.725525,115.407784 
	C417.070618,110.561974 419.689758,106.725502 426.059784,106.508507 
	C432.779694,106.279587 435.428223,110.193466 437.771301,115.317352 
	C440.123474,120.461189 443.426666,125.257797 445.142090,130.583725 
	C447.462067,137.786682 452.547211,139.198349 459.035828,139.754333 
	C465.443268,140.303375 471.866394,141.289795 478.130798,142.740189 
	C487.260406,144.853973 490.094269,154.387634 483.625824,161.225266 
	C478.721344,166.409637 474.150787,172.092438 468.091705,175.982498 
	C461.012878,180.527267 464.017761,186.658951 464.769318,192.541992 
	C465.565338,198.772919 466.853363,204.913086 467.561096,211.184052 
	C468.595612,220.350235 458.231354,224.862122 451.311523,221.129059 
	C444.439362,217.421722 437.405396,214.008865 430.597168,210.190857 
	C427.627838,208.525665 425.189758,208.605209 422.283386,210.238266 
	C416.055969,213.737366 409.316101,216.280396 402.970215,220.408264 
M410.967529,172.077194 
	C414.041473,178.043579 410.590454,184.028946 410.730957,190.289032 
	C416.705261,189.550323 420.768188,184.289810 426.741791,184.694016 
	C432.465790,185.081314 436.787079,189.134018 443.106201,191.698456 
	C438.362396,178.828583 440.177094,168.689560 452.122528,161.369644 
	C445.742218,159.276871 440.057861,160.091568 435.539459,157.090836 
	C430.826202,153.960709 429.340118,148.434326 426.309998,143.066864 
	C422.299835,155.709396 413.761658,161.359360 399.810455,160.162262 
	C404.145813,164.747269 407.320007,168.104233 410.967529,172.077194 
z"/>
<path fill="#2C2178" opacity="1.000000" stroke="none" 
	d="
M293.321289,430.673157 
	C289.546661,427.896027 285.870422,425.314758 284.844757,420.838531 
	C283.783813,416.208435 285.563293,412.412476 289.403564,409.533508 
	C293.485809,406.473145 297.811218,407.107422 301.526611,409.528992 
	C314.003387,417.661011 323.730255,428.389709 329.893311,442.046143 
	C332.583099,448.006317 330.499084,453.916840 325.367523,456.534729 
	C320.397919,459.069977 313.936615,457.401947 310.695587,452.043213 
	C305.940674,444.181396 300.623932,436.867126 293.321289,430.673157 
z"/>
<path fill="#2C2178" opacity="1.000000" stroke="none" 
	d="
M249.191833,399.165833 
	C252.869110,395.866211 257.153320,395.924011 260.835785,396.988647 
	C265.556702,398.353546 268.063843,401.117798 267.324738,409.313354 
	C266.945953,413.513458 263.457397,416.990662 259.256042,417.322906 
	C254.599548,417.691162 249.938461,417.493195 247.727844,412.573456 
	C245.753265,408.179077 245.753433,403.579620 249.191833,399.165833 
z"/>
</svg>