<?xml version="1.0" encoding="UTF-8"?>
<svg version="1.1" xmlns="http://www.w3.org/2000/svg" width="512" height="512">
<path d="M0 0 C0.93397614 -0.00832352 1.86795227 -0.01664703 2.83023071 -0.02522278 C5.91379991 -0.04929204 8.99715741 -0.0580913 12.08081055 -0.06469727 C14.22926394 -0.07366609 16.3777167 -0.08278798 18.52616882 -0.09205627 C23.02934282 -0.10854059 27.53244252 -0.11624536 32.03564453 -0.11914062 C37.79584646 -0.12452304 43.55534667 -0.16220029 49.31535053 -0.20788479 C53.75327584 -0.2376797 58.19103268 -0.24486472 62.6290493 -0.24586678 C64.7520691 -0.25006439 66.87508961 -0.26248016 68.99801064 -0.28338432 C71.97315165 -0.31034776 74.94667273 -0.30545807 77.921875 -0.29296875 C79.22748131 -0.31522018 79.22748131 -0.31522018 80.5594635 -0.33792114 C87.50221002 -0.2552491 92.0512156 2.07046885 97.18292713 6.67832279 C104.385625 14.38079506 102.92048555 25.40481934 102.8503418 35.18139648 C102.84660602 36.71695775 102.84376172 38.25252142 102.84176636 39.78808594 C102.83417433 43.80595623 102.81456455 47.82367915 102.7923584 51.8414917 C102.77180389 55.95086677 102.76274421 60.06026594 102.75268555 64.16967773 C102.73131391 72.21532542 102.69616854 80.26082557 102.6550293 88.30639648 C111.0700293 87.81139648 111.0700293 87.81139648 119.6550293 87.30639648 C119.3250293 86.31639648 118.9950293 85.32639648 118.6550293 84.30639648 C117.47585222 70.31091769 120.21129412 54.5784175 129.21362305 43.36499023 C132.35407188 40.23904694 134.81950224 38.92913432 139.2800293 38.74389648 C143.12612143 38.84803255 145.54152424 40.06809317 148.6550293 42.30639648 C154.13060391 48.98015566 156.4851799 57.09435107 158.6550293 65.30639648 C158.85225586 65.92643555 159.04948242 66.54647461 159.25268555 67.18530273 C159.89290368 70.5604333 159.7985091 73.94705326 159.7800293 77.36889648 C159.78389648 78.08883789 159.78776367 78.8087793 159.79174805 79.55053711 C159.78583728 82.73348287 159.66853642 85.26587511 158.6550293 88.30639648 C165.2550293 88.30639648 171.8550293 88.30639648 178.6550293 88.30639648 C178.3250293 86.98639648 177.9950293 85.66639648 177.6550293 84.30639648 C176.51365231 70.29178398 179.19486355 54.59888364 188.21362305 43.36499023 C191.22243484 40.37007595 193.8318757 38.88256196 198.0925293 38.49389648 C202.76644001 38.86812784 205.57854894 40.74573895 208.86987305 43.99780273 C212.22660881 48.33878924 213.96898246 53.12691168 215.6550293 58.30639648 C216.13456055 59.76625977 216.13456055 59.76625977 216.6237793 61.25561523 C219.1356451 69.9657425 220.03401612 79.46743541 217.6550293 88.30639648 C218.29529053 88.29068604 218.93555176 88.27497559 219.59521484 88.25878906 C222.51089561 88.19622534 225.42643485 88.15733841 228.3425293 88.11889648 C229.34993164 88.09375977 230.35733398 88.06862305 231.39526367 88.04272461 C240.75399359 87.95006392 240.75399359 87.95006392 244.6550293 91.30639648 C248.94343461 97.12637512 248.79449193 103.0088899 248.74926758 110.00537109 C248.74648142 111.79963667 248.74381148 113.59390243 248.74124146 115.38816833 C248.73666616 116.80970624 248.73666616 116.80970624 248.73199844 118.25996208 C248.7205984 123.30998223 248.741179 128.35991525 248.7565918 133.40991211 C248.77482963 139.8219443 248.78368612 146.23349718 248.75463867 152.64550781 C248.73195688 157.83879085 248.74371609 163.03103558 248.77764511 168.22424507 C248.78436652 170.19155141 248.77886765 172.15894293 248.76028824 174.12617302 C248.64730936 186.91951025 250.07211697 195.27395866 256.6550293 206.30639648 C257.82197712 209.28759194 258.72132369 212.27381363 259.5300293 215.36889648 C259.72854492 216.0746582 259.92706055 216.78041992 260.1315918 217.50756836 C263.77172674 230.62927101 265.24035638 245.87626103 258.6550293 258.30639648 C258.3250293 258.63639648 257.9950293 258.96639648 257.6550293 259.30639648 C258.91686035 259.32621582 260.17869141 259.34603516 261.47875977 259.36645508 C266.14921421 259.44238414 270.8193519 259.5311206 275.48950195 259.6237793 C277.51287596 259.6621217 279.53631935 259.69696519 281.55981445 259.72827148 C284.46420132 259.77380817 287.36810824 259.83182058 290.2722168 259.89233398 C291.18059296 259.90388519 292.08896912 259.9154364 293.02487183 259.92733765 C293.86559235 259.94720734 294.70631287 259.96707703 295.57250977 259.98754883 C296.31419403 260.0008725 297.0558783 260.01419617 297.82003784 260.02792358 C299.6550293 260.30639648 299.6550293 260.30639648 301.6550293 262.30639648 C302.29342215 268.0519322 302.29342215 268.0519322 301.6550293 270.30639648 C297.52802484 273.55405357 293.78307877 273.70836727 288.72924805 273.59936523 C287.98165726 273.59512039 287.23406647 273.59087555 286.46382141 273.58650208 C284.08968198 273.56978705 281.71640963 273.53214995 279.3425293 273.49389648 C277.72730723 273.47884029 276.11207178 273.46515352 274.49682617 273.45288086 C270.54922941 273.41990728 266.60227608 273.36817617 262.6550293 273.30639648 C262.6864502 274.1977832 262.6864502 274.1977832 262.71850586 275.10717773 C262.80244784 277.84007354 262.85393211 280.57269706 262.9050293 283.30639648 C262.93854492 284.2409668 262.97206055 285.17553711 263.0065918 286.13842773 C263.11053368 293.57027208 261.99320207 298.44550371 257.10058594 304.10424805 C249.50663061 310.63067942 238.74088093 309.12448243 229.3425293 309.05639648 C226.59081783 309.05784108 223.83948391 309.06772604 221.08784485 309.08770752 C219.38392484 309.09787381 217.67988226 309.09623544 215.97599792 309.08123779 C210.43812082 308.95079467 210.43812082 308.95079467 205.6550293 311.30639648 C204.30493931 313.46447304 204.30493931 313.46447304 203.33081055 316.06811523 C202.9421582 317.02266602 202.55350586 317.9772168 202.15307617 318.96069336 C201.7618457 319.96165039 201.37061523 320.96260742 200.9675293 321.99389648 C200.36328125 323.46632813 200.36328125 323.46632813 199.74682617 324.96850586 C196.72384941 332.40888505 196.72384941 332.40888505 195.6550293 340.30639648 C197.35323888 342.69465664 198.75918053 344.28617301 200.88549805 346.21264648 C201.43232742 346.74104126 201.9791568 347.26943604 202.54255676 347.81384277 C204.29128389 349.49808443 206.06461043 351.15304518 207.8425293 352.80639648 C209.59812151 354.46369099 211.34758103 356.12670867 213.08894348 357.7989502 C214.17162073 358.83605591 215.26302989 359.86415294 216.36454773 360.88122559 C222.04562638 366.26836619 225.27707691 371.89738304 225.74487305 379.82592773 C225.2744959 392.81242716 211.71620792 402.51627593 203.23120117 411.08032227 C201.92859625 412.39955202 200.63138934 413.72413329 199.33959961 415.05395508 C197.44914337 416.9995057 195.54245283 418.92778212 193.6315918 420.85327148 C193.06566315 421.44186951 192.4997345 422.03046753 191.91665649 422.63690186 C186.85548791 427.67218889 180.90776754 431.26144957 173.6550293 431.80639648 C162.18053044 430.99648123 155.34642985 422.45442562 147.9675293 414.61889648 C145.79077201 412.30873222 143.5976499 410.01600225 141.39331055 407.73217773 C140.90566727 407.20304276 140.41802399 406.67390778 139.91560364 406.1287384 C136.66675071 402.76596498 134.35079819 401.43710017 129.6550293 401.30639648 C126.89074787 402.25455934 124.45264794 403.23497484 121.8425293 404.49389648 C120.42849284 405.14890063 119.01443049 405.80384888 117.6003418 406.45874023 C116.92390625 406.7782666 116.2474707 407.09779297 115.55053711 407.42700195 C113.13695308 408.54675075 110.67903206 409.5472595 108.2175293 410.55639648 C107.0419043 411.13389648 105.8662793 411.71139648 104.6550293 412.30639648 C103.34894147 416.22465996 103.53919833 419.95044221 103.54956055 424.03295898 C103.53609646 425.80510652 103.52107185 427.57724275 103.50463867 429.34936523 C103.48188513 432.13410489 103.46746718 434.91757312 103.47998047 437.70239258 C103.54120002 456.27673655 103.54120002 456.27673655 98.72021484 462.66333008 C91.49752846 468.4097161 84.97044302 468.90100351 75.9050293 468.83764648 C74.69234375 468.84147339 73.4796582 468.84530029 72.23022461 468.84924316 C69.67520311 468.85195602 67.12015353 468.84463897 64.56518555 468.82788086 C60.66741673 468.80646455 56.77149118 468.82770627 52.8737793 468.85327148 C50.38419192 468.8506281 47.89460568 468.84550291 45.4050293 468.83764648 C44.24648437 468.84574341 43.08793945 468.85384033 41.89428711 468.86218262 C34.06165793 468.77197019 28.74033936 467.55756613 22.58764648 462.66113281 C16.55681672 454.67421468 17.83605272 444.51518755 17.9050293 434.99389648 C17.9035847 432.24218502 17.89369974 429.49085109 17.87371826 426.73921204 C17.86355197 425.03529202 17.86519034 423.33124945 17.88018799 421.62736511 C18.01181758 416.08865951 18.01181758 416.08865951 15.6550293 411.30639648 C13.48024079 409.95598769 13.48024079 409.95598769 10.8581543 408.98217773 C9.8990918 408.59352539 8.9400293 408.20487305 7.9519043 407.80444336 C6.94643555 407.41321289 5.9409668 407.02198242 4.9050293 406.61889648 C3.9150293 406.21606445 2.9250293 405.81323242 1.9050293 405.39819336 C-0.82698234 404.3079454 -3.57453162 403.29405693 -6.3449707 402.30639648 C-7.93051758 401.70891602 -7.93051758 401.70891602 -9.5480957 401.09936523 C-14.39838153 401.45839477 -17.05885067 404.95786766 -20.3449707 408.30639648 C-21.09504395 409.06484863 -21.84511719 409.82330078 -22.61791992 410.60473633 C-25.83439326 413.89344487 -29.03140876 417.19897691 -32.19067383 420.54272461 C-37.96192082 426.46424003 -43.79449681 431.25580176 -52.3449707 431.80639648 C-61.46446949 431.09248065 -67.62987632 425.75719176 -73.7746582 419.47045898 C-74.53167023 418.71348724 -75.28868225 417.9565155 -76.06863403 417.17660522 C-77.6560061 415.58390138 -79.23730395 413.98512259 -80.81274414 412.38061523 C-83.21985151 409.93151776 -85.64773293 407.5045778 -88.0793457 405.07983398 C-89.62488713 403.52380332 -91.1692013 401.9665525 -92.7121582 400.40795898 C-93.43402313 399.68589264 -94.15588806 398.96382629 -94.89962769 398.21987915 C-100.66843223 392.31436692 -103.8433611 387.16613362 -104.3918457 378.81420898 C-104.22466188 369.86987426 -98.39933653 364.2978598 -92.3449707 358.30639648 C-90.804689 356.83872757 -89.26146176 355.37414665 -87.71606445 353.91186523 C-86.48641968 352.73019775 -86.48641968 352.73019775 -85.23193359 351.5246582 C-83.57307959 349.9359375 -81.89660549 348.36538917 -80.20214844 346.81469727 C-75.64912549 342.65291104 -75.64912549 342.65291104 -74.05200195 336.96264648 C-74.47868164 335.75608398 -74.90536133 334.54952148 -75.3449707 333.30639648 C-75.78776367 332.03252075 -75.78776367 332.03252075 -76.23950195 330.73291016 C-77.3051057 327.78559753 -78.46769257 324.89314784 -79.6574707 321.99389648 C-80.04870117 320.99293945 -80.43993164 319.99198242 -80.84301758 318.96069336 C-81.23166992 318.00614258 -81.62032227 317.0515918 -82.02075195 316.06811523 C-82.37049072 315.2014624 -82.72022949 314.33480957 -83.08056641 313.44189453 C-84.65903014 310.77597017 -85.37024825 310.19042267 -88.3449707 309.30639648 C-91.31600908 309.13958857 -94.19998197 309.07713642 -97.16918945 309.10327148 C-98.93807699 309.09271757 -100.70695769 309.08096019 -102.47583008 309.06811523 C-105.24952115 309.05783414 -108.02225205 309.05632246 -110.79589844 309.07641602 C-129.88213816 309.18206255 -129.88213816 309.18206255 -135.79052734 304.10424805 C-141.4150804 297.59895377 -141.89658396 291.71676628 -141.5949707 283.30639648 C-141.57692383 282.34088867 -141.55887695 281.37538086 -141.5402832 280.38061523 C-141.49356758 278.02147615 -141.42809207 275.66448573 -141.3449707 273.30639648 C-142.34874756 273.32210693 -143.35252441 273.33781738 -144.38671875 273.35400391 C-148.12329025 273.40844762 -151.85982691 273.44279875 -155.59667969 273.47119141 C-157.21164859 273.48624524 -158.82657684 273.50669297 -160.44140625 273.53271484 C-162.76743625 273.56924935 -165.09292411 273.58615663 -167.41918945 273.59936523 C-168.49604256 273.62259102 -168.49604256 273.62259102 -169.59465027 273.64628601 C-174.0176664 273.64775916 -176.84309414 273.06212266 -180.3449707 270.30639648 C-181.15729921 267.43768393 -180.68207174 265.34030579 -180.3449707 262.30639648 C-178.3449707 260.30639648 -178.3449707 260.30639648 -174.72143555 260.0793457 C-173.16622381 260.07966292 -171.6109902 260.0909935 -170.0559082 260.11108398 C-168.82827255 260.11532883 -168.82827255 260.11532883 -167.57583618 260.11965942 C-164.95706677 260.13087117 -162.33863706 260.1559772 -159.7199707 260.18139648 C-157.94653814 260.19142502 -156.17310022 260.20055109 -154.3996582 260.20874023 C-150.04796444 260.2308137 -145.6965252 260.26535004 -141.3449707 260.30639648 C-141.34865788 259.35517662 -141.35234505 258.40395676 -141.35614395 257.42391205 C-141.44496834 234.27155488 -141.51068615 211.11921982 -141.55221939 187.96672821 C-141.57283876 176.77031903 -141.60094753 165.57402245 -141.64672852 154.37768555 C-141.68661527 144.61820096 -141.71240806 134.85879794 -141.72132468 125.0992341 C-141.72653628 119.93227955 -141.73877263 114.76555832 -141.76789093 109.59867859 C-141.79508896 104.73300783 -141.80340678 99.86766598 -141.79740143 95.00192642 C-141.7984997 93.21855506 -141.8064274 91.43517242 -141.8217926 89.65186691 C-141.84178969 87.21074855 -141.83687522 84.77086068 -141.82598877 82.32971191 C-141.83764014 81.62929826 -141.8492915 80.92888461 -141.86129594 80.2072463 C-141.78694669 74.01000855 -139.59745262 68.97029062 -135.6340332 64.28295898 C-135.08489258 63.83694336 -134.53575195 63.39092773 -133.9699707 62.93139648 C-133.42598633 62.46991211 -132.88200195 62.00842773 -132.3215332 61.53295898 C-127.66852739 58.6455206 -123.06040379 58.04999317 -117.67211914 58 C-116.36345886 57.9840126 -115.05479858 57.96802521 -113.70648193 57.95155334 C-112.28910719 57.94517473 -110.87172772 57.93978259 -109.4543457 57.93530273 C-107.98472 57.92632314 -106.51509517 57.91720108 -105.04547119 57.90794373 C-101.96901233 57.8914918 -98.89266178 57.88376086 -95.81616211 57.88085938 C-91.89785121 57.87548613 -87.98057637 57.83783521 -84.06255722 57.79211521 C-81.02710369 57.76218589 -77.99189462 57.75513238 -74.95630646 57.75413322 C-73.51315833 57.74996058 -72.07000744 57.73764667 -70.62700653 57.71661568 C-61.20614927 57.59025982 -53.07150293 58.26499874 -45.70599365 64.74928284 C-40.81849177 70.11651564 -40.04772445 76.07170636 -40.02612305 83.0559082 C-40.01105461 84.18375984 -40.01105461 84.18375984 -39.99568176 85.33439636 C-39.96497115 87.80161831 -39.94784868 90.26873236 -39.9309082 92.73608398 C-39.91218677 94.45387696 -39.89261264 96.17166083 -39.8722229 97.88943481 C-39.82099863 102.39712141 -39.78132111 106.90483778 -39.74407959 111.41265869 C-39.70397896 116.01793731 -39.65291431 120.62309307 -39.6027832 125.22827148 C-39.5061389 134.25422672 -39.42169747 143.28025149 -39.3449707 152.30639648 C-38.8722876 151.75717529 -38.39960449 151.2079541 -37.91259766 150.64208984 C-37.28828857 149.92158447 -36.66397949 149.2010791 -36.02075195 148.45874023 C-35.40369385 147.74451904 -34.78663574 147.03029785 -34.15087891 146.29443359 C-31.5434222 143.42401045 -28.81910977 141.04346602 -25.3449707 139.30639648 C-25.34442594 138.66955429 -25.34388117 138.0327121 -25.34331989 137.37657166 C-25.32833354 121.85985992 -25.28581219 106.34350252 -25.21288013 90.82696533 C-25.17826985 83.32316863 -25.15287984 75.81955488 -25.14941406 68.31567383 C-25.14636862 61.77303981 -25.1258007 55.23073194 -25.08444613 48.68822384 C-25.06316644 45.22592593 -25.05048918 41.76409109 -25.05881691 38.30172729 C-25.06779882 34.43057171 -25.03764916 30.56024307 -25.00439453 26.68920898 C-25.01302017 25.54912888 -25.02164581 24.40904877 -25.03053284 23.23442078 C-24.93090308 16.30828201 -23.88795864 11.65069195 -19.3449707 6.30639648 C-13.34831182 0.60957055 -7.92159675 0.00600731 0 0 Z M-11.3449707 17.30639648 C-11.3449707 21.59639648 -11.3449707 25.88639648 -11.3449707 30.30639648 C21.9850293 30.30639648 55.3150293 30.30639648 89.6550293 30.30639648 C90.06473091 21.60803187 90.06473091 21.60803187 86.31996822 14.69781399 C83.39500344 12.25337165 79.58013732 12.88287044 75.93261719 12.90234375 C75.04127579 12.8954805 74.14993439 12.88861725 73.23158264 12.88154602 C70.28012234 12.86321909 67.32919063 12.86712398 64.37768555 12.87280273 C62.32889126 12.86824366 60.2800985 12.86293892 58.23130798 12.85691833 C53.93474113 12.84797557 49.63836004 12.85042352 45.34179688 12.86035156 C39.8323061 12.87184089 34.32345627 12.85163601 28.81404972 12.82243443 C24.5821474 12.80409886 20.3503994 12.80435965 16.11846733 12.81007195 C14.08706196 12.81022549 12.05564634 12.8041536 10.02427864 12.79178047 C7.18472075 12.7769228 4.34635617 12.78750914 1.50683594 12.8046875 C0.66566223 12.79501953 -0.17551147 12.78535156 -1.04217529 12.77539062 C-6.52965462 12.84499856 -7.19673668 13.15816246 -11.3449707 17.30639648 Z M-11.3449707 43.30639648 C-11.3449707 48.58639648 -11.3449707 53.86639648 -11.3449707 59.30639648 C21.9850293 59.30639648 55.3150293 59.30639648 89.6550293 59.30639648 C89.6550293 54.02639648 89.6550293 48.74639648 89.6550293 43.30639648 C56.3250293 43.30639648 22.9950293 43.30639648 -11.3449707 43.30639648 Z M138.6550293 53.30639648 C133.75938833 62.25360239 130.23390895 71.95251967 131.6550293 82.30639648 C132.89803865 85.48452244 132.89803865 85.48452244 135.6550293 87.30639648 C139.70558747 87.72231362 139.70558747 87.72231362 143.6550293 87.30639648 C145.84400877 85.17684632 146.57752375 83.76374901 147.08862305 80.74780273 C147.10188853 70.97114239 145.18298638 61.53017922 139.6550293 53.30639648 C139.3250293 53.30639648 138.9950293 53.30639648 138.6550293 53.30639648 Z M197.6550293 53.30639648 C192.47859462 62.94800001 189.48186284 71.19582005 190.6550293 82.30639648 C191.8670982 85.54233859 192.26386808 86.11516211 195.4675293 87.68139648 C199.09935422 88.39351902 200.51937864 88.22262744 203.6550293 86.30639648 C206.61466462 81.56059528 206.29609754 76.71060177 205.6550293 71.30639648 C205.01943754 68.59137411 204.21693647 65.95332858 203.3425293 63.30639648 C203.12975342 62.65952881 202.91697754 62.01266113 202.69775391 61.34619141 C201.52217424 58.02683045 200.44157436 55.52909519 197.6550293 53.30639648 Z M-127.3449707 75.30639648 C-128.822824 78.26210308 -128.478588 81.25448955 -128.46522522 84.49429321 C-128.46607964 85.24329214 -128.46693407 85.99229108 -128.46781439 86.76398695 C-128.46946831 89.2867737 -128.46394924 91.80949471 -128.45849609 94.33227539 C-128.45821418 96.13550312 -128.45837204 97.93873096 -128.4589386 99.74195862 C-128.4592264 104.64871848 -128.45333248 109.55545407 -128.44636464 114.46220827 C-128.44012821 119.5858374 -128.43952707 124.70946703 -128.43833923 129.83309937 C-128.43522678 139.54055478 -128.42701453 149.24799899 -128.41698974 158.95544946 C-128.40582596 170.00486088 -128.40031749 181.05427283 -128.39529431 192.10368848 C-128.38483185 214.83793092 -128.36703345 237.5721626 -128.3449707 260.30639648 C-123.0649707 260.30639648 -117.7849707 260.30639648 -112.3449707 260.30639648 C-112.30758789 258.59452148 -112.27020508 256.88264648 -112.23168945 255.11889648 C-112.16600359 252.8480422 -112.09955716 250.57720982 -112.0324707 248.30639648 C-112.00991211 247.18104492 -111.98735352 246.05569336 -111.96411133 244.89624023 C-111.66085174 235.4676239 -110.28717755 228.0908259 -103.3449707 221.30639648 C-97.59427502 217.85597908 -91.96351716 217.45054996 -85.3449707 218.30639648 C-79.03585383 220.26222272 -75.58512342 223.65141047 -72.1574707 229.24389648 C-69.69668614 235.49050345 -70.03101049 242.56453393 -69.7824707 249.18139648 C-69.73928711 250.25131836 -69.69610352 251.32124023 -69.65161133 252.42358398 C-69.54604328 255.05105552 -69.44505276 257.67871027 -69.3449707 260.30639648 C-64.0649707 260.30639648 -58.7849707 260.30639648 -53.3449707 260.30639648 C-53.25241461 236.53254648 -53.18101267 212.75873981 -53.13772202 188.98474598 C-53.11708804 177.94631127 -53.08895141 166.90799049 -53.04321289 155.86962891 C-53.00337079 146.24970843 -52.97754397 136.62987045 -52.96861672 127.00986975 C-52.96339754 121.91510951 -52.95111311 116.82058531 -52.92205048 111.72590065 C-52.89492293 106.93164542 -52.88652034 102.13772374 -52.89253998 97.34339905 C-52.89143855 95.58295569 -52.88346881 93.8225013 -52.8681488 92.06212425 C-52.84826206 89.65935767 -52.85302602 87.25785221 -52.86395264 84.85505676 C-52.84647559 83.80883777 -52.84647559 83.80883777 -52.82864547 82.74148303 C-52.88684625 78.01028819 -54.0113804 75.63325951 -57.3449707 72.30639648 C-60.06384634 70.94695866 -62.23204231 71.15664295 -65.27587891 71.12939453 C-67.14340569 71.11014168 -67.14340569 71.11014168 -69.04866028 71.09049988 C-70.41435346 71.08233221 -71.78005114 71.07488853 -73.14575195 71.06811523 C-73.83272848 71.06403971 -74.51970501 71.05996418 -75.22749901 71.05576515 C-78.86422805 71.03490473 -82.50091938 71.02060345 -86.13769531 71.01123047 C-89.89053078 71.00017123 -93.64277245 70.9657779 -97.39539814 70.92605877 C-100.28394152 70.89988737 -103.17234359 70.89153819 -106.0609951 70.88794899 C-107.44407342 70.8830836 -108.82714546 70.87147074 -110.2101078 70.852911 C-112.14855246 70.8285155 -114.08728602 70.83190478 -116.02587891 70.83642578 C-117.12793167 70.83055954 -118.22998444 70.8246933 -119.36543274 70.81864929 C-123.03903569 71.42001418 -124.69547753 72.7448262 -127.3449707 75.30639648 Z M-11.3449707 72.30639648 C-11.3449707 77.58639648 -11.3449707 82.86639648 -11.3449707 88.30639648 C21.9850293 88.30639648 55.3150293 88.30639648 89.6550293 88.30639648 C89.6550293 83.02639648 89.6550293 77.74639648 89.6550293 72.30639648 C56.3250293 72.30639648 22.9950293 72.30639648 -11.3449707 72.30639648 Z M-11.3449707 100.30639648 C-11.3449707 105.58639648 -11.3449707 110.86639648 -11.3449707 116.30639648 C21.9850293 116.30639648 55.3150293 116.30639648 89.6550293 116.30639648 C89.6550293 111.02639648 89.6550293 105.74639648 89.6550293 100.30639648 C56.3250293 100.30639648 22.9950293 100.30639648 -11.3449707 100.30639648 Z M102.6550293 100.30639648 C102.6550293 153.10639648 102.6550293 205.90639648 102.6550293 260.30639648 C134.0050293 260.30639648 165.3550293 260.30639648 197.6550293 260.30639648 C196.3350293 257.00639648 195.0150293 253.70639648 193.6550293 250.30639648 C192.63108633 246.21062461 192.46383412 242.48887874 192.4675293 238.30639648 C192.46688477 237.55688721 192.46624023 236.80737793 192.46557617 236.03515625 C192.52547646 229.65781776 193.30876501 223.54488902 194.6550293 217.30639648 C194.07495117 217.28061523 193.49487305 217.25483398 192.8972168 217.22827148 C187.42739549 216.83112274 184.00312841 215.91213721 179.6550293 212.30639648 C176.35758286 207.36022683 177.32742909 201.74195544 177.3425293 195.93139648 C177.32641602 194.69905273 177.31030273 193.46670898 177.29370117 192.19702148 C177.29305664 191.00850586 177.29241211 189.81999023 177.29174805 188.59545898 C177.28876709 187.50958496 177.28578613 186.42371094 177.28271484 185.30493164 C177.70669767 181.89027127 178.6082223 180.0504806 180.6550293 177.30639648 C185.9352156 173.78627228 191.3790234 174.12394657 197.5300293 174.11889648 C198.30733398 174.10665039 199.08463867 174.0944043 199.88549805 174.08178711 C207.52414598 174.06253001 212.64839083 175.4677155 218.6550293 180.30639648 C219.6450293 179.97639648 220.6350293 179.64639648 221.6550293 179.30639648 C224.04993915 179.23669596 226.44670621 179.22191646 228.8425293 179.24389648 C230.11483398 179.25291992 231.38713867 179.26194336 232.69799805 179.27124023 C233.67381836 179.2828418 234.64963867 179.29444336 235.6550293 179.30639648 C235.7013045 169.30140453 235.73687392 159.2964379 235.75865364 149.29136086 C235.76910512 144.64594374 235.78328909 140.00059968 235.8059082 135.35522461 C235.8275881 130.87486424 235.83958764 126.39457426 235.84478378 121.9141655 C235.84848829 120.20207994 235.85572196 118.48999837 235.86648941 116.77794266 C235.88093997 114.38581162 235.88300997 111.99397407 235.88208008 109.60180664 C235.89286591 108.53258217 235.89286591 108.53258217 235.90386963 107.4417572 C235.99891957 103.42713524 235.99891957 103.42713524 233.6550293 100.30639648 C231.26306306 100.00757785 231.26306306 100.00757785 228.44125366 100.06588745 C227.33855322 100.06313246 226.23585278 100.06037746 225.09973717 100.05753899 C223.87967791 100.0647352 222.65961864 100.07193142 221.40258789 100.0793457 C219.4544818 100.0789841 219.4544818 100.0789841 217.46702003 100.07861519 C213.94697714 100.0781628 210.42706961 100.0897727 206.90705872 100.10383606 C203.60666267 100.11520757 200.30627269 100.1157613 197.00585938 100.1171875 C187.34723135 100.12769125 177.68862862 100.15561345 168.0300293 100.18139648 C146.4562793 100.22264648 124.8825293 100.26389648 102.6550293 100.30639648 Z M-11.3449707 129.30639648 C-11.3449707 132.93639648 -11.3449707 136.56639648 -11.3449707 140.30639648 C-5.8803251 145.35811721 -1.1269879 146.02853402 6.1003418 145.87402344 C7.46271721 145.87511864 7.46271721 145.87511864 8.85261536 145.87623596 C11.82904586 145.87277637 14.80387512 145.83399281 17.7800293 145.79467773 C19.85366969 145.78534381 21.92732117 145.77823044 24.00097656 145.77323914 C29.43950228 145.75421508 34.87735259 145.70515359 40.31561279 145.64971924 C45.87266912 145.59842771 51.42983536 145.57570395 56.98706055 145.55053711 C67.87667902 145.49703063 78.76579783 145.41177337 89.6550293 145.30639648 C89.6550293 140.02639648 89.6550293 134.74639648 89.6550293 129.30639648 C56.3250293 129.30639648 22.9950293 129.30639648 -11.3449707 129.30639648 Z M-22.3449707 152.55639648 C-34.20622941 161.878169 -38.30974995 182.06596296 -40.3449707 196.30639648 C-41.30186686 206.1524682 -41.47099956 216.17673898 -35.0324707 224.18139648 C-31.85456861 226.69415628 -28.53708826 229.30639648 -24.3449707 229.30639648 C-24.0149707 220.06639648 -23.6849707 210.82639648 -23.3449707 201.30639648 C-15.3449707 201.30639648 -15.3449707 201.30639648 -13.3449707 202.30639648 C-12.25820289 205.40142704 -12.15527312 208.47004869 -12.02856445 211.72827148 C-11.98666992 212.75307617 -11.94477539 213.77788086 -11.90161133 214.83374023 C-11.86229492 215.8972168 -11.82297852 216.96069336 -11.7824707 218.05639648 C-11.73928711 219.1353418 -11.69610352 220.21428711 -11.65161133 221.32592773 C-11.54568081 223.98596077 -11.44360649 226.64608461 -11.3449707 229.30639648 C-5.25916098 227.46806224 -2.19670713 225.01786768 1.4050293 219.74389648 C7.75238725 207.36654847 3.28977524 189.37149506 -0.49291992 176.81323242 C-3.41958374 168.20263526 -7.94588026 156.24068477 -16.2199707 151.74389648 C-19.39594791 151.02902144 -19.39594791 151.02902144 -22.3449707 152.55639648 Z M5.6550293 158.30639648 C7.6350293 163.58639648 9.6150293 168.86639648 11.6550293 174.30639648 C37.3950293 174.30639648 63.1350293 174.30639648 89.6550293 174.30639648 C89.6550293 169.02639648 89.6550293 163.74639648 89.6550293 158.30639648 C61.9350293 158.30639648 34.2150293 158.30639648 5.6550293 158.30639648 Z M189.6550293 186.30639648 C189.6550293 192.24639648 189.6550293 198.18639648 189.6550293 204.30639648 C192.9550293 204.30639648 196.2550293 204.30639648 199.6550293 204.30639648 C200.64172689 202.41447174 201.6190895 200.51767671 202.5925293 198.61889648 C203.13780273 197.5631543 203.68307617 196.50741211 204.24487305 195.41967773 C205.50670078 192.63386969 206.31134487 190.33409265 206.6550293 187.30639648 C205.46650074 185.8886481 205.46650074 185.8886481 202.05737305 186.20874023 C200.56905674 186.21448377 199.08076634 186.22749758 197.5925293 186.24389648 C193.6634668 186.27483398 193.6634668 186.27483398 189.6550293 186.30639648 Z M14.6550293 187.30639648 C15.3150293 193.24639648 15.9750293 199.18639648 16.6550293 205.30639648 C18.01708496 205.320979 19.37914062 205.33556152 20.7824707 205.35058594 C25.84816403 205.40866954 30.91341754 205.48590239 35.97875977 205.56884766 C38.16879118 205.60204958 40.35890719 205.63009619 42.54907227 205.65283203 C45.7019446 205.68646458 48.85404502 205.73878596 52.0065918 205.79467773 C52.98181793 205.80106766 53.95704407 205.80745758 54.96182251 205.81404114 C60.1839069 205.92633512 64.29256882 206.11837963 68.6550293 209.30639648 C72.35748005 214.40027031 72.1261658 219.68136615 72.16674805 225.73608398 C72.18469925 226.72641632 72.20265045 227.71674866 72.22114563 228.73709106 C72.2751183 231.88515019 72.30910286 235.03305881 72.3425293 238.18139648 C72.37571384 240.32204236 72.41020455 242.46266842 72.44604492 244.60327148 C72.5308375 249.83753768 72.59771114 255.07176025 72.6550293 260.30639648 C78.2650293 260.30639648 83.8750293 260.30639648 89.6550293 260.30639648 C89.6550293 236.21639648 89.6550293 212.12639648 89.6550293 187.30639648 C64.9050293 187.30639648 40.1550293 187.30639648 14.6550293 187.30639648 Z M218.18237305 196.08764648 C208.72937709 209.43305254 202.82911163 227.89567969 204.6550293 244.30639648 C205.54961336 248.86064261 207.15295188 251.78149737 210.4050293 255.18139648 C213.81194553 257.40899556 216.74625995 258.27826047 220.6550293 259.30639648 C220.66961182 258.53448975 220.68419434 257.76258301 220.69921875 256.96728516 C220.77360963 253.47564556 220.8703002 249.98497159 220.9675293 246.49389648 C220.99008789 245.27895508 221.01264648 244.06401367 221.03588867 242.81225586 C221.07133789 241.64887695 221.10678711 240.48549805 221.14331055 239.28686523 C221.16949463 238.21331787 221.19567871 237.13977051 221.22265625 236.03369141 C221.6550293 233.30639648 221.6550293 233.30639648 222.96044922 231.42089844 C224.6550293 230.30639648 224.6550293 230.30639648 228.2800293 230.49389648 C229.3937793 230.76202148 230.5075293 231.03014648 231.6550293 231.30639648 C232.99609335 233.98852459 232.86953348 236.1903768 232.97143555 239.18920898 C233.01333008 240.35581055 233.05522461 241.52241211 233.09838867 242.72436523 C233.13770508 243.94768555 233.17702148 245.17100586 233.2175293 246.43139648 C233.26071289 247.66245117 233.30389648 248.89350586 233.34838867 250.16186523 C233.45471634 253.20992501 233.5567471 256.25806838 233.6550293 259.30639648 C235.09702916 258.87555161 236.53510937 258.43157514 237.97143555 257.98217773 C238.77266846 257.73636963 239.57390137 257.49056152 240.39941406 257.23730469 C244.13239976 255.69667535 245.46673207 253.68831038 247.6550293 250.30639648 C252.47236647 238.10134083 249.60100687 223.95475344 244.76098633 212.12036133 C243.79122553 209.9283433 242.77452144 207.77013378 241.7175293 205.61889648 C241.39397461 204.95970215 241.07041992 204.30050781 240.73706055 203.62133789 C237.99112913 198.35149234 234.64398976 194.63237012 229.6550293 191.30639648 C224.58810748 190.63969624 221.4297795 192.15974902 218.18237305 196.08764648 Z M17.6550293 218.30639648 C17.6550293 232.16639648 17.6550293 246.02639648 17.6550293 260.30639648 C31.5150293 260.30639648 45.3750293 260.30639648 59.6550293 260.30639648 C59.6550293 246.44639648 59.6550293 232.58639648 59.6550293 218.30639648 C45.7950293 218.30639648 31.9350293 218.30639648 17.6550293 218.30639648 Z M-98.3449707 234.30639648 C-99.364702 237.36559036 -99.46030672 239.43057673 -99.44262695 242.63061523 C-99.4394043 243.65864258 -99.43618164 244.68666992 -99.43286133 245.74584961 C-99.42448242 246.81770508 -99.41610352 247.88956055 -99.4074707 248.99389648 C-99.40295898 250.07735352 -99.39844727 251.16081055 -99.39379883 252.27709961 C-99.38200827 254.95355542 -99.36407278 257.62998287 -99.3449707 260.30639648 C-93.7349707 260.30639648 -88.1249707 260.30639648 -82.3449707 260.30639648 C-82.29094487 256.74369276 -82.2512832 253.18181125 -82.2199707 249.61889648 C-82.20321289 248.61149414 -82.18645508 247.6040918 -82.16918945 246.56616211 C-82.16274414 245.58969727 -82.15629883 244.61323242 -82.1496582 243.60717773 C-82.13918457 242.71168213 -82.12871094 241.81618652 -82.11791992 240.89355469 C-82.45513118 237.05115936 -83.41701717 234.23435001 -86.1574707 231.49389648 C-91.31835544 228.69227334 -94.35021217 230.42260346 -98.3449707 234.30639648 Z M-1.9465332 239.23608398 C-4.95619874 240.57915949 -8.17603247 241.40098556 -11.3449707 242.30639648 C-11.3449707 248.24639648 -11.3449707 254.18639648 -11.3449707 260.30639648 C-6.0649707 260.30639648 -0.7849707 260.30639648 4.6550293 260.30639648 C4.6550293 252.38639648 4.6550293 244.46639648 4.6550293 236.30639648 C2.37698252 236.30639648 0.02492886 238.18411806 -1.9465332 239.23608398 Z M-40.3449707 237.30639648 C-40.3449707 244.89639648 -40.3449707 252.48639648 -40.3449707 260.30639648 C-35.0649707 260.30639648 -29.7849707 260.30639648 -24.3449707 260.30639648 C-24.3449707 254.36639648 -24.3449707 248.42639648 -24.3449707 242.30639648 C-26.4280957 241.66702148 -28.5112207 241.02764648 -30.6574707 240.36889648 C-33.89716601 239.37453456 -37.1300113 238.37804962 -40.3449707 237.30639648 Z M-128.3449707 273.30639648 C-130.1449707 289.73972982 -130.1449707 289.73972982 -125.3449707 295.30639648 C-122.51919078 295.70885084 -120.06714193 295.8640174 -117.23950195 295.84545898 C-116.04244881 295.86314835 -116.04244881 295.86314835 -114.82121277 295.88119507 C-112.26643539 295.91650603 -109.71247212 295.92562193 -107.1574707 295.93139648 C-104.62056922 295.94781187 -102.08402898 295.97006832 -99.54728699 296.00302124 C-97.97016124 296.02242928 -96.39287185 296.0320106 -94.81562805 296.02993774 C-87.98458174 296.09501371 -80.82656186 296.89067027 -75.3449707 301.30639648 C-72.02666012 306.61431652 -69.59528876 312.15115482 -67.2199707 317.93139648 C-66.87321289 318.76413086 -66.52645508 319.59686523 -66.16918945 320.45483398 C-65.50645446 322.04946072 -64.84785389 323.64581424 -64.1940918 325.24414062 C-63.52526316 326.86852117 -62.83045174 328.48220425 -62.1262207 330.09155273 C-61.26376277 332.53662096 -61.01180047 334.52963413 -60.9699707 337.11889648 C-60.94161133 337.9090918 -60.91325195 338.69928711 -60.8840332 339.51342773 C-62.04372717 346.54038694 -66.10282665 351.63576214 -71.16918945 356.38061523 C-71.98949394 357.1782 -71.98949394 357.1782 -72.82637024 357.99189758 C-74.5522421 359.6694187 -76.29048535 361.33312482 -78.0324707 362.99389648 C-80.33965217 365.19449017 -82.63308235 367.40815982 -84.91918945 369.63061523 C-85.44832443 370.12655685 -85.97745941 370.62249847 -86.52262878 371.13346863 C-88.69067014 373.24275268 -90.23308194 375.02932212 -91.37158203 377.84863281 C-91.30344386 384.14172395 -85.41167333 388.57736424 -81.26293945 392.75952148 C-80.5711409 393.46034851 -79.87934235 394.16117554 -79.1665802 394.88323975 C-77.70590731 396.35838187 -76.24243964 397.83076123 -74.77636719 399.30053711 C-72.53828411 401.55055208 -70.31954188 403.81854851 -68.10083008 406.08764648 C-66.67685289 407.52108448 -65.25175942 408.95341462 -63.82543945 410.38452148 C-63.16585739 411.06363586 -62.50627533 411.74275024 -61.82670593 412.44244385 C-58.95617291 415.28530748 -56.9774692 417.08976909 -53.11157227 418.41381836 C-49.82868217 418.28634998 -48.92203786 417.77962751 -46.59887695 415.50952148 C-45.58204834 414.53595703 -45.58204834 414.53595703 -44.54467773 413.54272461 C-43.81877441 412.80473633 -43.09287109 412.06674805 -42.3449707 411.30639648 C-41.5533252 410.51168945 -40.76167969 409.71698242 -39.94604492 408.89819336 C-36.49728383 405.40316268 -33.0749615 401.88396377 -29.67895508 398.33764648 C-24.44932935 393.00015224 -20.52803643 389.28317118 -13.04418945 387.87280273 C-6.71629401 387.86051556 -2.06634115 389.76120195 3.6550293 392.30639648 C5.21431932 392.93484906 6.7757169 393.55808536 8.33862305 394.17749023 C10.04838568 394.86597647 11.75801984 395.55478185 13.4675293 396.24389648 C14.29236816 396.56745117 15.11720703 396.89100586 15.96704102 397.22436523 C22.17970509 399.77782717 26.72296797 402.5172843 29.44018555 408.94311523 C31.9469397 417.43441511 31.09664698 426.92177652 31.09082031 435.69091797 C31.09438467 438.17384594 31.12167329 440.6556923 31.15112305 443.13842773 C31.14294052 443.89887894 31.134758 444.65933014 31.12632751 445.44282532 C31.17117982 448.62238769 31.47309951 450.96810776 32.98730469 453.78369141 C37.38106736 456.29159823 41.8740654 455.87558089 46.8425293 455.83764648 C47.93718506 455.84147339 49.03184082 455.84530029 50.15966797 455.84924316 C52.47290975 455.85196385 54.78618221 455.84459182 57.09936523 455.82788086 C60.64205452 455.80647488 64.18271566 455.82767874 67.7253418 455.85327148 C69.97274211 455.85062824 72.22014116 455.84550333 74.4675293 455.83764648 C75.5280249 455.84574341 76.58852051 455.85384033 77.68115234 455.86218262 C83.2527824 455.82241656 83.2527824 455.82241656 88.32275391 453.78369141 C90.20926732 450.27582048 90.20073439 447.02304535 90.15893555 443.13842773 C90.16835678 442.34417892 90.17777802 441.54993011 90.18748474 440.73161316 C90.21611962 438.19377898 90.21921566 435.65687895 90.2175293 433.11889648 C90.25074793 410.03194348 90.25074793 410.03194348 95.62768555 402.56811523 C100.09390928 399.23141389 104.96178075 397.24518162 110.0925293 395.11889648 C111.11668945 394.68125977 112.14084961 394.24362305 113.19604492 393.79272461 C126.79196554 388.02875826 126.79196554 388.02875826 132.0300293 387.93139648 C132.71838867 387.90303711 133.40674805 387.87467773 134.1159668 387.84545898 C141.00767761 389.09656956 146.04340204 393.13279086 150.6940918 398.13061523 C151.77996418 399.25242306 152.86590363 400.37416597 153.9519043 401.49584961 C155.62523837 403.25023888 157.29408793 405.00874954 158.96069336 406.76953125 C160.59039729 408.48376833 162.23514821 410.1824737 163.8815918 411.88061523 C164.37237213 412.40975021 164.86315247 412.93888519 165.36880493 413.48405457 C167.7502083 415.93218537 169.52287563 417.2644115 172.79882812 418.30517578 C176.08420328 418.30657991 176.82932358 418.012874 179.12768555 415.75170898 C179.80460449 415.10234375 180.48152344 414.45297852 181.17895508 413.78393555 C181.99605957 412.96634766 182.81316406 412.14875977 183.6550293 411.30639648 C184.73520536 410.26264995 185.8172152 409.22079927 186.90063477 408.18041992 C190.01604229 405.17688858 193.09692264 402.14038342 196.16650391 399.09008789 C197.45864175 397.80957913 198.75526154 396.5335784 200.05615234 395.26196289 C201.95180059 393.40883075 203.83398664 391.54293849 205.71362305 389.67358398 C206.29583115 389.10888397 206.87803925 388.54418396 207.47789001 387.96237183 C209.7426394 385.68523068 211.48954801 383.71046539 212.71386719 380.72094727 C212.57543285 375.03996971 208.08261607 371.50252735 204.2175293 367.81420898 C203.14694376 366.76891564 202.07663991 365.72333373 201.0065918 364.67749023 C199.33172142 363.05216934 197.65382629 361.43024125 195.97045898 359.8137207 C194.33546361 358.23954678 192.7134847 356.65281918 191.0925293 355.06420898 C190.34241577 354.35447433 190.34241577 354.35447433 189.57714844 353.63040161 C185.50555108 349.61727116 183.1784998 345.43007134 182.23022461 339.77148438 C182.23837383 333.36008149 183.71659247 328.52594236 186.4050293 322.74389648 C186.75307617 321.95821289 187.10112305 321.1725293 187.4597168 320.36303711 C188.15866948 318.79039358 188.86691621 317.22184554 189.5847168 315.65771484 C190.31573105 314.05178459 191.02853338 312.43747128 191.7253418 310.81640625 C192.06823242 310.01904053 192.41112305 309.2216748 192.7644043 308.40014648 C193.22024902 307.32603516 193.22024902 307.32603516 193.68530273 306.23022461 C195.80978698 302.01548748 199.23713624 298.91290305 203.6550293 297.30639648 C208.43689734 296.32415801 213.11257306 296.15783505 217.9753418 296.13061523 C219.57821981 296.10743768 221.18108448 296.08332122 222.78393555 296.05834961 C225.2900519 296.0231389 227.79566729 295.99381322 230.30200195 295.98046875 C232.7353803 295.9650074 235.16733865 295.92484508 237.6003418 295.88061523 C238.34833038 295.88252365 239.09631897 295.88443207 239.86697388 295.88639832 C245.13693106 295.76243717 245.62929003 295.33213575 249.6550293 291.30639648 C249.6550293 285.36639648 249.6550293 279.42639648 249.6550293 273.30639648 C218.6350293 273.30639648 187.6150293 273.30639648 155.6550293 273.30639648 C154.1700293 281.72139648 154.1700293 281.72139648 152.6550293 290.30639648 C145.56570878 315.53603714 130.72724932 335.91807855 107.8425293 349.11889648 C100.39964227 353.24600766 92.84372658 356.01239973 84.6550293 358.30639648 C83.89448242 358.5397168 83.13393555 358.77303711 82.3503418 359.01342773 C58.36264225 365.50037372 31.74052964 359.53126286 10.59106445 347.48803711 C-10.21159539 334.79133173 -25.26470702 314.25090706 -31.12890625 290.61425781 C-32.4828713 284.86256425 -33.50739932 279.16939617 -34.3449707 273.30639648 C-65.3649707 273.30639648 -96.3849707 273.30639648 -128.3449707 273.30639648 Z M-21.3449707 273.30639648 C-19.21460587 296.74040968 -9.08816027 315.37488055 8.64331055 330.95483398 C26.57599223 344.95674627 49.19768027 351.3984555 71.7800293 348.68139648 C94.33278105 344.78051961 113.54858756 333.37295227 127.6550293 315.30639648 C136.11762093 302.97822173 142.6550293 288.42551765 142.6550293 273.30639648 C88.5350293 273.30639648 34.4150293 273.30639648 -21.3449707 273.30639648 Z " fill="#E0A528" transform="translate(195.344970703125,21.693603515625)"/>
<path d="M0 0 C0.77730469 -0.01224609 1.55460937 -0.02449219 2.35546875 -0.03710938 C7.79408605 -0.05082017 13.37029314 0.08132278 17.8671875 3.51953125 C22.50526166 9.58101438 22.32955508 15.22314517 22.375 22.5625 C22.395625 23.3875 22.41625 24.2125 22.4375 25.0625 C22.47235546 30.5522355 21.74353554 34.33605648 19.125 39.1875 C13.0275436 44.83880106 8.37791433 44.40001562 0.375 44.4375 C-0.71039063 44.458125 -1.79578125 44.47875 -2.9140625 44.5 C-8.62490657 44.52792589 -12.99652348 44.53181335 -17.875 41.1875 C-22.88289212 35.66155007 -22.12512974 29.42283959 -22.1875 22.375 C-22.21650391 21.29412109 -22.24550781 20.21324219 -22.27539062 19.09960938 C-22.32571582 12.79347578 -22.14216578 8.96228402 -17.875 4.1875 C-12.82069859 -0.54071745 -6.53013973 0.00536136 0 0 Z M-8.875 14.1875 C-8.94825168 17.05017567 -8.96738205 19.888219 -8.9375 22.75 C-8.93298828 23.55630859 -8.92847656 24.36261719 -8.92382812 25.19335938 C-8.91200518 27.19143756 -8.89406914 29.18947783 -8.875 31.1875 C-6.06243719 31.21434312 -3.25012759 31.23426188 -0.4375 31.25 C0.76616211 31.26256836 0.76616211 31.26256836 1.99414062 31.27539062 C4.03795221 31.2840143 6.08183902 31.2397815 8.125 31.1875 C9.94616003 29.36633997 9.2573508 26.88078236 9.26171875 24.4609375 C9.25591797 23.33558594 9.25591797 23.33558594 9.25 22.1875 C9.25386719 21.43726563 9.25773437 20.68703125 9.26171875 19.9140625 C9.60175541 16.25143883 9.60175541 16.25143883 8.125 13.1875 C5.4476862 13.08768786 2.80195825 13.04870125 0.125 13.0625 C-0.62523437 13.05863281 -1.37546875 13.05476562 -2.1484375 13.05078125 C-5.81106117 12.71074459 -5.81106117 12.71074459 -8.875 14.1875 Z " fill="#E0A528" transform="translate(334.875,194.8125)"/>
<path d="M0 0 C1.75086914 -0.0299707 1.75086914 -0.0299707 3.53710938 -0.06054688 C8.41200453 -0.05776916 12.16756936 0.0608392 16.69140625 1.96484375 C22.17108338 7.67923522 22.54741937 14.32863674 22.4375 21.9375 C22.44910156 22.74058594 22.46070313 23.54367188 22.47265625 24.37109375 C22.4394404 31.20248679 21.54153812 36.86060512 16.6875 41.90625 C11.18595151 44.23017997 5.97179408 44.01611589 0.0625 43.9375 C-1.10023438 43.95296875 -2.26296875 43.9684375 -3.4609375 43.984375 C-14.25519898 43.93497335 -14.25519898 43.93497335 -18.9375 39.4375 C-22.92278774 33.8247314 -22.41705072 28.66312709 -22.375 22 C-22.39498047 20.88044922 -22.41496094 19.76089844 -22.43554688 18.60742188 C-22.43189586 12.45546732 -22.38714826 8.11533535 -17.9375 3.4375 C-12.22891203 -0.64409742 -6.78411747 -0.04107061 0 0 Z M-8.9375 13.4375 C-8.9375 19.0475 -8.9375 24.6575 -8.9375 30.4375 C-2.9975 30.4375 2.9425 30.4375 9.0625 30.4375 C9.0625 24.8275 9.0625 19.2175 9.0625 13.4375 C3.1225 13.4375 -2.8175 13.4375 -8.9375 13.4375 Z " fill="#E0A528" transform="translate(334.9375,138.5625)"/>
<path d="M0 0 C1.75086914 -0.0299707 1.75086914 -0.0299707 3.53710938 -0.06054688 C14.40171928 -0.05435621 14.40171928 -0.05435621 19.0625 4.4375 C23.04724226 10.05094565 22.54205362 15.21141248 22.5 21.875 C22.5299707 23.55432617 22.5299707 23.55432617 22.56054688 25.26757812 C22.55689586 31.41953268 22.51214826 35.75966465 18.0625 40.4375 C14.28914948 43.14168714 11.68113545 43.8207826 7.0625 43.8359375 C5.3609375 43.84173828 5.3609375 43.84173828 3.625 43.84765625 C2.449375 43.83605469 1.27375 43.82445312 0.0625 43.8125 C-1.113125 43.82410156 -2.28875 43.83570313 -3.5 43.84765625 C-4.634375 43.84378906 -5.76875 43.83992188 -6.9375 43.8359375 C-7.96875 43.83255371 -9 43.82916992 -10.0625 43.82568359 C-14.51219127 43.22488459 -16.97946109 41.669526 -19.72509766 38.13867188 C-21.14829797 34.96785265 -21.32499936 32.68770296 -21.3359375 29.21875 C-21.33980469 28.03925781 -21.34367187 26.85976562 -21.34765625 25.64453125 C-21.33605469 24.42121094 -21.32445312 23.19789063 -21.3125 21.9375 C-21.32410156 20.71417969 -21.33570313 19.49085938 -21.34765625 18.23046875 C-21.34378906 17.05097656 -21.33992188 15.87148437 -21.3359375 14.65625 C-21.33255371 13.58310547 -21.32916992 12.50996094 -21.32568359 11.40429688 C-20.73496372 6.88956237 -19.21671774 4.42420176 -15.62280273 1.65209961 C-10.64516818 -0.59935342 -5.37601555 -0.03254605 0 0 Z M-7.9375 13.4375 C-7.9375 19.0475 -7.9375 24.6575 -7.9375 30.4375 C-2.3275 30.4375 3.2825 30.4375 9.0625 30.4375 C9.0625 24.8275 9.0625 19.2175 9.0625 13.4375 C3.4525 13.4375 -2.1575 13.4375 -7.9375 13.4375 Z " fill="#E0A528" transform="translate(392.9375,138.5625)"/>
<path d="M0 0 C2.94972774 2.86795048 3.36318218 5.33365799 3.44248962 9.38195801 C3.43808617 10.41492004 3.43808617 10.41492004 3.43359375 11.46875 C3.4388356 12.186073 3.44407745 12.903396 3.44947815 13.64245605 C3.45588642 15.15534168 3.45457678 16.66827721 3.44604492 18.18115234 C3.43752666 20.4927652 3.46632027 22.80191189 3.49804688 25.11328125 C3.49965891 26.58593676 3.49908132 28.05859664 3.49609375 29.53125 C3.51294472 30.56421204 3.51294472 30.56421204 3.53013611 31.61804199 C3.4815752 34.96970889 3.20152286 36.7327649 1.16040039 39.43945312 C-1.74966601 41.54151488 -3.48807212 41.52305309 -7 41 C-8.66088867 39.96289062 -8.66088867 39.96289062 -10 38 C-10.28608245 35.30613513 -10.39675558 32.84839899 -10.36328125 30.15625 C-10.36377975 29.39074829 -10.36427826 28.62524658 -10.36479187 27.83654785 C-10.36245307 26.21929323 -10.35273587 24.60203486 -10.33618164 22.98486328 C-10.31258681 20.50910908 -10.31562205 18.03443183 -10.32226562 15.55859375 C-10.31668874 13.98697275 -10.30957879 12.41535628 -10.30078125 10.84375 C-10.30169266 10.10306274 -10.30260406 9.36237549 -10.30354309 8.59924316 C-10.25198479 4.86264194 -10.12552576 3.18828864 -8 0 C-4.64106891 -1.1196437 -3.32285646 -1.07992835 0 0 Z " fill="#E0A528" transform="translate(123,170)"/>
<path d="M0 0 C2.69096152 1.06222165 3.69707973 1.58281657 5.375 3.9375 C5.6732147 6.63081011 5.79551661 9.08825794 5.7734375 11.78125 C5.77774277 12.92950256 5.77774277 12.92950256 5.78213501 14.10095215 C5.784175 15.71818787 5.77864963 17.3354483 5.76611328 18.95263672 C5.75005758 21.42862091 5.76596297 23.90297285 5.78515625 26.37890625 C5.78317381 27.95052444 5.7793301 29.52214161 5.7734375 31.09375 C5.78254654 32.20478088 5.78254654 32.20478088 5.7918396 33.33825684 C5.72214663 38.42948054 5.72214663 38.42948054 4.03369141 40.90039062 C1.36885561 42.56659941 -0.56463022 42.37469568 -3.625 41.9375 C-5.78100586 40.390625 -5.78100586 40.390625 -7.625 37.9375 C-8.03526715 35.23668416 -8.21024808 32.94914528 -8.19140625 30.25 C-8.19760483 29.51048096 -8.20380341 28.77096191 -8.21018982 28.0090332 C-8.21727813 26.44906935 -8.21413107 24.8890297 -8.20141602 23.32910156 C-8.187541 20.94454652 -8.22163575 18.5639116 -8.25976562 16.1796875 C-8.26071682 14.66145738 -8.25885796 13.14322235 -8.25390625 11.625 C-8.26716446 10.91448486 -8.28042267 10.20396973 -8.29408264 9.47192383 C-8.22349521 5.71255471 -7.88675608 4.2112825 -5.24975586 1.453125 C-2.625 -0.0625 -2.625 -0.0625 0 0 Z " fill="#E0A528" transform="translate(90.625,169.0625)"/>
<path d="M0 0 C2.6032085 2.39834372 2.98605175 3.87711503 3.38818359 7.41992188 C3.40789292 8.76939166 3.41033843 10.11918877 3.3984375 11.46875 C3.40274277 12.5447345 3.40274277 12.5447345 3.40713501 13.64245605 C3.40917169 15.15536287 3.40366944 16.66829626 3.39111328 18.18115234 C3.37505237 20.49246284 3.39097366 22.80202492 3.41015625 25.11328125 C3.40817375 26.58594135 3.40432992 28.05860036 3.3984375 29.53125 C3.40754654 30.56421204 3.40754654 30.56421204 3.4168396 31.61804199 C3.37270182 34.64009334 3.13051525 36.75624142 1.69384766 39.43945312 C0 41 0 41 -3.5 41.4375 C-7 41 -7 41 -8.69384766 39.96289062 C-10.7294913 36.90371774 -10.42756495 33.70892968 -10.3984375 30.15625 C-10.40130768 29.39074829 -10.40417786 28.62524658 -10.40713501 27.83654785 C-10.409175 26.21931213 -10.40364963 24.6020517 -10.39111328 22.98486328 C-10.37505758 20.50887909 -10.39096297 18.03452715 -10.41015625 15.55859375 C-10.40817381 13.98697556 -10.4043301 12.41535839 -10.3984375 10.84375 C-10.40451019 10.10306274 -10.41058289 9.36237549 -10.4168396 8.59924316 C-10.34733774 3.52198045 -10.34733774 3.52198045 -8.69384766 1.03710938 C-5.77047131 -0.75281606 -3.31159504 -0.41394938 0 0 Z " fill="#E0A528" transform="translate(123,109)"/>
<path d="M0 0 C3.5 0.4375 3.5 0.4375 5.19384766 1.47460938 C7.2294913 4.53378226 6.92756495 7.72857032 6.8984375 11.28125 C6.90274277 12.42950256 6.90274277 12.42950256 6.90713501 13.60095215 C6.909175 15.21818787 6.90364963 16.8354483 6.89111328 18.45263672 C6.87505758 20.92862091 6.89096297 23.40297285 6.91015625 25.87890625 C6.90817381 27.45052444 6.9043301 29.02214161 6.8984375 30.59375 C6.90754654 31.70478088 6.90754654 31.70478088 6.9168396 32.83825684 C6.84735226 37.91445892 6.84735226 37.91445892 5.19384766 40.40429688 C2.30651775 42.16549321 -0.22679447 41.78820059 -3.5 41.4375 C-5.19384766 40.38842773 -5.19384766 40.38842773 -6.5 38.4375 C-6.79828154 35.82631712 -6.92059006 33.45837065 -6.8984375 30.84765625 C-6.90130768 30.10672226 -6.90417786 29.36578827 -6.90713501 28.60240173 C-6.909175 27.03644038 -6.90364958 25.47045351 -6.89111328 23.90454102 C-6.87508008 21.51194988 -6.89095094 19.1210537 -6.91015625 16.72851562 C-6.90817336 15.20572545 -6.90432873 13.68293632 -6.8984375 12.16015625 C-6.90451019 11.44650406 -6.91058289 10.73285187 -6.9168396 9.99757385 C-6.87341869 6.91785713 -6.65111802 4.72157363 -5.19384766 1.98217773 C-3.5 0.4375 -3.5 0.4375 0 0 Z " fill="#E0A528" transform="translate(89.5,108.5625)"/>
</svg>
