<?xml version="1.0" standalone="no"?>
<!DOCTYPE svg PUBLIC "-//W3C//DTD SVG 20010904//EN"
 "http://www.w3.org/TR/2001/REC-SVG-20010904/DTD/svg10.dtd">
<svg version="1.0" xmlns="http://www.w3.org/2000/svg"
 width="512.000000pt" height="512.000000pt" viewBox="0 0 512.000000 512.000000"
 preserveAspectRatio="xMidYMid meet">

<g transform="translate(0.000000,512.000000) scale(0.100000,-0.100000)"
fill="#E0A528" stroke="none">
<path d="M889 5088 c-45 -25 -79 -83 -79 -132 0 -26 -5 -38 -17 -43 -10 -3
-42 -16 -72 -29 l-53 -24 -34 30 c-38 33 -87 45 -142 35 -30 -6 -61 -30 -165
-133 -136 -135 -156 -167 -143 -235 4 -19 20 -53 36 -75 l29 -40 -27 -65 c-27
-65 -27 -66 -73 -72 -63 -9 -104 -36 -129 -85 -20 -39 -21 -55 -18 -220 3
-162 5 -181 24 -206 34 -46 70 -67 123 -72 28 -2 51 -9 51 -15 0 -5 12 -36 26
-68 l27 -59 -31 -35 c-17 -19 -34 -51 -38 -71 -13 -68 9 -109 124 -226 136
-139 155 -152 233 -146 47 3 65 10 87 31 15 15 32 27 37 27 5 0 39 -12 76 -26
l67 -26 4 -50 c6 -56 30 -94 79 -123 31 -18 52 -20 209 -20 159 0 178 2 210
21 50 29 80 78 80 130 0 40 2 43 38 55 20 6 53 20 74 30 30 15 38 16 47 5 8
-9 10 -147 9 -470 l-3 -457 -85 -28 c-47 -16 -131 -48 -188 -70 -56 -23 -104
-41 -106 -41 -2 0 -5 31 -8 69 -4 79 -32 128 -95 171 l-37 25 -497 3 -498 3
-20 -23 c-38 -40 -22 -97 33 -118 17 -6 191 -10 480 -10 426 0 454 -1 469 -18
15 -17 17 -56 17 -355 0 -208 4 -346 10 -363 21 -55 68 -69 114 -33 l26 20 0
233 0 233 187 72 c260 98 289 105 463 105 304 1 532 -82 925 -336 198 -128
256 -178 314 -267 61 -96 86 -186 86 -316 0 -103 -2 -113 -29 -163 -44 -79
-94 -105 -189 -100 -50 2 -89 11 -128 30 -31 14 -217 130 -414 258 -196 128
-370 238 -386 243 -24 9 -33 8 -56 -9 -32 -24 -42 -78 -21 -105 12 -16 674
-447 768 -501 107 -62 276 -86 368 -54 62 22 121 66 161 119 l36 49 705 275
c633 248 712 276 776 281 113 7 180 -24 215 -102 25 -55 24 -111 -5 -171 -49
-107 -43 -104 -1008 -552 -485 -226 -910 -422 -943 -436 -237 -97 -398 -110
-583 -48 -118 39 -216 89 -437 221 -388 231 -478 268 -712 285 l-93 8 0 237
c0 217 -2 238 -18 253 -27 24 -85 22 -108 -4 -18 -20 -19 -43 -22 -374 -3
-342 -3 -353 -23 -371 -20 -18 -50 -19 -495 -24 -458 -5 -474 -6 -488 -25 -32
-41 -14 -95 38 -115 36 -13 864 -14 937 0 63 12 114 45 149 96 19 28 25 53 28
107 l4 70 89 -7 c183 -14 292 -58 601 -244 388 -234 561 -302 767 -302 196 0
291 34 963 346 1163 539 1285 597 1344 640 67 47 121 114 156 191 18 38 22 66
22 138 0 78 -3 98 -27 146 -45 93 -139 166 -238 184 l-36 7 -6 261 c-4 144 -7
355 -7 469 l0 207 -26 20 c-33 26 -65 27 -95 2 l-24 -19 2 -474 3 -474 -53
-17 c-28 -9 -333 -126 -677 -261 l-625 -244 -7 97 c-10 152 -59 284 -152 408
-63 83 -111 122 -335 267 -387 250 -656 349 -963 350 l-138 1 0 421 0 422 29
11 c37 16 257 238 270 275 24 60 12 116 -35 166 l-24 26 29 69 30 70 47 7 c88
13 144 77 144 164 l0 54 305 0 305 0 0 -381 c0 -365 1 -383 20 -414 38 -61 58
-65 358 -65 398 0 372 -34 372 488 l0 372 483 0 c545 0 540 0 588 -76 l24 -39
3 -467 3 -467 26 -21 c14 -11 36 -20 49 -20 28 0 61 30 69 62 3 13 5 228 3
478 -3 409 -5 460 -22 502 -25 66 -87 132 -154 165 l-57 28 -1187 3 -1188 2 0
53 c0 90 -56 150 -150 163 -45 6 -45 6 -71 72 l-26 67 30 37 c45 56 49 127 9
188 -37 58 -242 247 -277 256 -46 11 -105 -3 -145 -35 l-38 -31 -54 24 c-29
13 -61 26 -70 29 -14 5 -18 17 -18 50 0 54 -30 102 -80 128 -30 17 -58 19
-210 19 -160 0 -178 -2 -211 -22z m351 -180 c0 -83 12 -97 120 -138 52 -20
114 -46 137 -58 23 -12 49 -22 58 -22 9 0 38 21 66 47 l50 47 101 -102 102
-101 -47 -50 c-26 -28 -47 -57 -47 -66 0 -8 13 -41 29 -73 16 -31 41 -91 55
-132 15 -41 34 -81 43 -87 9 -7 45 -13 80 -13 l63 0 0 -145 0 -145 -63 0 c-76
0 -95 -16 -122 -100 -10 -30 -33 -85 -51 -122 -19 -37 -34 -77 -34 -88 0 -12
21 -43 47 -71 l47 -50 -94 -94 c-52 -52 -99 -95 -105 -95 -6 0 -29 18 -50 40
-49 51 -78 52 -171 6 -38 -19 -95 -42 -127 -51 -69 -20 -87 -47 -87 -130 l0
-56 -137 3 -138 3 -5 66 c-3 36 -11 73 -18 82 -7 9 -43 25 -79 37 -36 12 -92
34 -124 51 -81 40 -109 38 -165 -13 l-45 -42 -99 99 -99 99 44 47 c25 27 45
57 45 69 0 11 -12 44 -27 73 -14 29 -39 88 -55 132 -15 44 -36 86 -45 93 -9 6
-45 12 -80 12 l-64 0 3 143 3 142 66 3 c78 3 88 12 114 92 10 30 33 86 51 123
19 37 34 79 34 93 0 16 -17 43 -45 73 l-44 47 99 99 99 99 50 -47 c28 -26 58
-47 67 -47 9 0 49 15 88 34 39 19 96 42 126 51 79 25 100 52 100 126 l0 59
140 0 140 0 0 -52z m2170 -1323 l0 -355 -225 0 -225 0 0 355 0 355 225 0 225
0 0 -355z"/>
<path d="M1035 4574 c-184 -26 -354 -145 -434 -305 -51 -101 -65 -170 -58
-289 11 -213 128 -385 322 -476 252 -117 550 -33 704 197 240 360 2 844 -429
872 -41 3 -88 3 -105 1z m136 -154 c220 -41 373 -253 339 -467 -29 -179 -164
-315 -344 -346 -178 -30 -355 63 -438 230 -31 64 -33 73 -33 178 0 104 2 114
32 176 55 113 174 204 295 228 61 12 88 12 149 1z"/>
<path d="M3772 2217 c-40 -43 -19 -107 41 -122 12 -3 128 -5 256 -3 l233 3 24
28 c29 34 30 56 3 91 l-20 26 -258 0 c-256 0 -258 0 -279 -23z"/>
<path d="M3775 1915 c-14 -13 -25 -36 -25 -50 0 -14 11 -37 25 -50 l24 -25
249 0 c278 0 286 2 298 67 5 26 1 37 -19 57 l-26 26 -251 0 -251 0 -24 -25z"/>
</g>
</svg>
