<?xml version="1.0" encoding="UTF-8"?>
<svg version="1.1" xmlns="http://www.w3.org/2000/svg" width="512" height="512">
<path d="M0 0 C6.20917003 3.84968542 12.37903788 8.43771933 14.671875 15.66015625 C16.06032503 22.63831458 16.67499797 31.56409089 12.72091281 37.7779268 C5.30219095 47.81686674 -4.32068197 56.53070715 -13.13381958 65.33676147 C-14.44054146 66.64607375 -15.74705083 67.95559813 -17.05336845 69.26531374 C-20.61180826 72.83174629 -24.17330815 76.39510864 -27.73537517 79.95791793 C-31.58854597 83.81295265 -35.43886948 87.67082959 -39.28961182 91.52828979 C-47.69149479 99.94369674 -56.09710184 108.3553772 -64.50354242 116.76623106 C-69.75546669 122.02092516 -75.00665621 127.2763531 -80.25771713 132.53190994 C-94.80869606 147.09506871 -109.36061198 161.65728976 -123.91598701 176.21605492 C-125.31040917 177.61080642 -125.31040917 177.61080642 -126.73300146 179.03373472 C-127.66475679 179.96570832 -128.59651212 180.89768193 -129.55650246 181.85789716 C-131.4444086 183.74624584 -133.33231245 185.6345968 -135.22021484 187.52294922 C-135.68829655 187.99114032 -136.15637826 188.45933142 -136.63864427 188.94171013 C-151.83412567 204.14082644 -167.02344085 219.34608519 -182.20909495 234.55501969 C-198.28740167 250.65793006 -214.37115087 266.75538493 -230.4611634 282.84659922 C-239.22370586 291.61005814 -247.98381796 300.3759162 -256.73773575 309.14799118 C-264.18543829 316.61108813 -271.63825233 324.06903267 -279.0977868 331.52030413 C-282.90219032 335.32080025 -286.70413116 339.12367663 -290.49956131 342.93313599 C-293.97564927 346.42195527 -297.45862236 349.903745 -300.94714521 353.38012917 C-302.20598172 354.63700753 -303.46230174 355.89641259 -304.71579327 357.15862159 C-322.47258044 375.03103108 -322.47258044 375.03103108 -334.625 375.1875 C-350.55761434 375.00756288 -359.64546799 362.31705098 -370.2199707 351.73779297 C-371.55596972 350.40479025 -372.89217218 349.0719914 -374.2285614 347.73937988 C-377.83803934 344.13869276 -381.44430846 340.5348087 -385.04971337 336.9300437 C-387.30390144 334.6765683 -389.55880082 332.42380721 -391.81395531 330.17129898 C-399.68489286 322.30959464 -407.55326144 314.44532978 -415.41918945 306.57861328 C-422.74807338 299.24912732 -430.08253084 291.92525154 -437.41959316 284.60395324 C-443.72650185 278.3101124 -450.02955701 272.01243002 -456.32961529 265.71173203 C-460.08932175 261.95177061 -463.85056508 258.19337874 -467.61568642 254.43883896 C-471.15203138 250.91216359 -474.6835587 247.38073464 -478.21142769 243.84558105 C-479.50653328 242.5494286 -480.80334925 241.25498256 -482.10199356 239.96237564 C-483.87432027 238.19775642 -485.64037017 236.42708237 -487.40498352 234.65475464 C-487.91995701 234.14492472 -488.43493049 233.63509479 -488.96550924 233.10981548 C-495.21940565 226.79534299 -497.00672192 221.90290625 -497.1875 213.1875 C-497.12249583 205.36262273 -495.5447345 201.02877153 -490.5 195.1875 C-483.79858221 189.44342761 -477.7352038 186.50533994 -468.875 187.0625 C-454.28574644 189.06407442 -444.50365354 202.15869975 -434.64208984 212.05688477 C-433.55709995 213.14215751 -432.47188828 214.22720857 -431.38647461 215.3120575 C-428.4716945 218.22655343 -425.55998438 221.14409833 -422.64886045 224.06224561 C-419.59442963 227.12297373 -416.53712237 230.18082603 -413.48013306 233.23899841 C-407.7056502 239.01657593 -401.9337188 244.79669531 -396.16272414 250.57775682 C-389.58661908 257.16508128 -383.00763749 263.74952968 -376.42842555 270.33375084 C-362.90743811 283.86516038 -349.39002553 297.4001359 -335.875 310.9375 C-329.07043492 305.35834106 -322.9429575 299.1330125 -316.74258423 292.90515137 C-315.5098612 291.67071472 -314.27691192 290.43650397 -313.04375684 289.20249891 C-309.66563552 285.82080012 -306.29063351 282.43600319 -302.91611814 279.05070662 C-299.2723656 275.3964488 -295.62566524 271.74513492 -291.97926331 268.09352112 C-285.66353579 261.76809184 -279.34948009 255.44099781 -273.03639603 249.1129303 C-263.05644533 239.1095865 -253.07129095 229.11144587 -243.08529663 219.11413574 C-239.66721226 215.69205017 -236.24916167 212.26993087 -232.83112144 208.84780121 C-231.97698579 207.99264633 -231.12285014 207.13749145 -230.2428316 206.25642279 C-220.52592327 196.52777759 -210.81008762 186.79806144 -201.09472656 177.06787109 C-200.20685205 176.17864415 -199.31897754 175.2894172 -198.40419774 174.37324399 C-184.01011485 159.95697145 -169.61987877 145.53686375 -155.23060961 131.11578673 C-140.45187624 116.3046646 -125.66738568 101.49930575 -110.8779577 86.69886255 C-101.7585155 77.57219768 -92.64384002 68.44082383 -83.53523694 59.30334103 C-77.2936072 53.04271319 -71.04653351 46.78755233 -64.79515244 40.53666151 C-61.18921657 36.93066262 -57.58577914 33.32225594 -53.98888969 29.70723152 C-50.69398738 26.39581441 -47.39218941 23.09143725 -44.08485131 19.7924419 C-42.89183209 18.59999515 -41.70133705 17.4050163 -40.51368983 16.20721906 C-29.39330285 4.99694168 -17.1944477 -6.51789529 0 0 Z " fill="#2C2178" transform="translate(496.875,69.0625)"/>
</svg>
