<?xml version="1.0" standalone="no"?>
<!DOCTYPE svg PUBLIC "-//W3C//DTD SVG 20010904//EN"
 "http://www.w3.org/TR/2001/REC-SVG-20010904/DTD/svg10.dtd">
<svg version="1.0" xmlns="http://www.w3.org/2000/svg"
 width="512.000000pt" height="512.000000pt" viewBox="0 0 512.000000 512.000000"
 preserveAspectRatio="xMidYMid meet">

<g transform="translate(0.000000,512.000000) scale(0.100000,-0.100000)"
fill="#E0A528" stroke="none">
<path d="M2335 4960 c-11 -4 -31 -20 -45 -35 -24 -25 -25 -33 -30 -182 l-5
-156 -70 -24 c-38 -13 -101 -39 -139 -58 l-70 -35 -111 110 c-102 100 -115
110 -149 110 -20 0 -49 -6 -64 -14 -15 -8 -91 -79 -169 -158 -196 -198 -196
-207 -32 -374 l101 -102 -28 -53 c-15 -30 -42 -92 -59 -139 l-30 -85 -157 -5
c-226 -7 -228 -10 -227 -297 0 -292 4 -296 232 -301 l152 -3 35 -97 c45 -125
56 -136 126 -128 59 7 415 119 452 142 30 20 28 52 -8 124 -17 33 -37 86 -45
117 -19 73 -19 222 0 293 55 209 237 380 450 425 88 19 142 18 230 0 215 -46
394 -215 450 -425 19 -71 19 -220 0 -293 -14 -54 -53 -139 -91 -198 -21 -33
-12 -76 19 -89 12 -5 122 -48 244 -96 211 -83 223 -86 246 -71 27 17 86 132
118 230 l21 66 153 3 c234 5 238 10 233 323 -4 274 1 268 -228 275 l-154 5
-27 75 c-14 41 -41 104 -58 139 l-32 63 100 102 c164 167 164 176 -32 374 -78
79 -154 150 -169 158 -15 8 -44 14 -64 14 -34 0 -47 -10 -149 -110 l-111 -110
-70 35 c-38 19 -101 46 -139 58 l-70 24 -5 154 c-8 231 -5 229 -302 228 -111
0 -212 -4 -223 -9z m405 -250 c0 -151 11 -199 49 -219 11 -6 60 -25 108 -42
48 -17 118 -46 154 -65 36 -19 76 -34 88 -34 43 0 87 30 181 125 l95 95 127
-127 128 -127 -110 -112 c-104 -105 -110 -113 -110 -152 0 -28 13 -66 40 -120
21 -43 49 -111 62 -152 27 -86 60 -124 115 -133 21 -4 93 -7 161 -7 l122 0 -2
-177 -3 -178 -158 -5 -159 -5 -28 -32 c-15 -17 -35 -55 -44 -85 -25 -86 -65
-170 -79 -165 -204 81 -297 121 -297 128 0 6 9 28 21 50 36 72 59 184 59 292
0 124 -19 205 -73 317 -33 69 -58 102 -132 176 -73 74 -106 98 -175 132 -121
59 -194 76 -325 76 -198 0 -344 -62 -490 -208 -73 -73 -99 -107 -133 -176 -59
-121 -75 -198 -70 -345 4 -96 10 -135 32 -199 15 -43 25 -80 24 -81 -13 -12
-300 -96 -312 -92 -8 3 -25 39 -37 79 -15 50 -33 83 -55 106 l-32 32 -156 0
-156 0 0 180 0 180 123 0 c67 0 139 3 160 7 55 9 88 47 115 133 13 41 41 109
62 152 27 54 40 92 40 120 0 39 -6 47 -110 152 l-110 112 128 127 127 127 95
-95 c93 -94 138 -125 179 -125 12 0 63 20 114 44 50 24 117 51 147 61 132 43
140 56 140 255 l0 140 180 0 180 0 0 -140z"/>
<path d="M762 3094 c-18 -9 -41 -29 -51 -43 -28 -41 -561 -1410 -561 -1442 0
-41 23 -89 56 -120 17 -15 102 -55 199 -93 218 -84 255 -86 331 -15 l30 29 75
-51 c41 -28 76 -53 78 -55 3 -2 -15 -42 -38 -87 -36 -71 -43 -93 -43 -143 0
-70 17 -116 62 -168 43 -48 99 -76 166 -83 l54 -6 0 -41 c0 -23 9 -59 19 -81
24 -53 103 -122 155 -136 40 -11 134 -8 167 6 12 4 18 -1 23 -20 9 -36 72
-102 120 -128 43 -22 136 -29 187 -15 23 7 28 4 33 -15 11 -45 66 -106 121
-133 108 -52 226 -28 304 63 l38 45 132 -92 c72 -50 152 -98 177 -107 64 -22
144 -12 203 24 49 31 107 114 113 162 2 20 8 25 23 22 11 -2 56 -4 100 -5 63
0 88 4 120 21 78 42 144 138 145 210 l0 31 75 -5 c56 -4 85 -2 118 11 95 36
158 107 177 202 11 52 12 54 38 47 58 -17 145 -8 198 20 97 49 143 129 144
247 l0 75 137 61 136 60 31 -60 c25 -49 40 -65 76 -83 24 -13 57 -23 72 -23
30 0 369 130 406 155 37 26 65 92 59 139 -7 60 -540 1412 -568 1443 -29 31
-78 53 -119 53 -39 0 -364 -125 -407 -156 -18 -14 -39 -43 -49 -70 -15 -39
-16 -53 -6 -91 7 -24 10 -48 7 -53 -10 -16 -87 -32 -119 -26 -17 4 -179 66
-361 138 l-330 132 -96 4 c-106 5 -180 -11 -258 -54 -24 -13 -48 -24 -53 -24
-5 0 -60 25 -121 55 -89 44 -129 58 -194 67 -108 16 -164 6 -404 -71 -253 -81
-325 -95 -467 -89 -62 3 -118 10 -123 15 -6 6 -6 20 1 39 18 46 3 111 -33 150
-25 27 -68 49 -197 101 -184 73 -251 86 -308 57z m252 -164 c85 -34 160 -68
167 -76 10 -12 -34 -133 -251 -687 -144 -370 -269 -682 -276 -694 -8 -13 -24
-23 -35 -23 -27 0 -309 109 -331 128 -10 8 -18 20 -18 26 0 9 254 661 531
1364 13 33 41 28 213 -38z m3300 -102 c25 -40 537 -1359 534 -1377 -4 -23
-335 -155 -362 -144 -27 13 -560 1370 -548 1397 6 13 60 40 168 82 87 35 167
63 176 63 10 1 24 -9 32 -21z m-2004 -61 c62 -15 156 -59 153 -72 0 -5 -129
-78 -285 -162 -218 -118 -292 -164 -324 -197 -129 -139 -77 -367 101 -442 47
-19 152 -20 198 0 19 8 128 64 240 125 113 61 211 111 217 111 6 0 298 -198
648 -440 417 -287 643 -450 655 -469 25 -43 22 -120 -5 -161 -41 -59 -112 -83
-173 -60 -15 6 -199 129 -410 275 -210 145 -394 270 -408 276 -22 10 -31 9
-52 -5 -25 -16 -34 -58 -17 -82 4 -6 147 -107 317 -224 171 -117 325 -227 343
-244 105 -99 24 -270 -121 -254 -38 5 -102 45 -452 287 -224 154 -413 281
-420 281 -32 0 -59 -39 -56 -82 1 -11 128 -105 334 -247 182 -126 343 -241
356 -255 37 -39 41 -128 9 -176 -43 -64 -125 -87 -191 -53 -18 9 -168 110
-333 225 -166 114 -310 208 -319 208 -10 0 -26 -7 -35 -15 -13 -11 -24 -13
-51 -5 -18 6 -46 10 -60 10 -24 0 -27 5 -38 59 -20 103 -94 179 -197 202 l-51
12 14 46 c18 58 10 121 -24 184 -80 146 -272 170 -395 49 -21 -20 -38 -31 -38
-24 0 7 -18 30 -41 51 -77 76 -201 91 -294 37 -40 -24 -53 -37 -104 -105 l-18
-24 -86 59 c-71 49 -85 63 -80 79 3 11 99 259 214 550 l208 530 33 -2 c304
-20 350 -15 623 73 279 91 308 96 415 71z m1015 -177 c310 -125 334 -133 400
-134 45 -1 85 5 112 16 l42 17 75 -192 c41 -106 132 -336 201 -512 69 -175
122 -322 117 -326 -4 -4 -68 -35 -143 -69 l-137 -62 -388 269 c-833 577 -946
655 -968 664 -27 12 -35 9 -336 -155 -172 -94 -201 -106 -244 -106 -148 0
-212 185 -95 272 41 31 767 424 818 444 23 9 67 13 126 11 l90 -3 330 -134z
m-2036 -1158 c45 -24 74 -76 68 -123 -5 -35 -141 -284 -180 -326 -75 -84 -217
-28 -217 86 0 40 11 66 84 191 88 154 123 190 180 190 17 0 47 -8 65 -18z
m437 -22 c44 -28 71 -96 55 -141 -6 -17 -80 -151 -163 -297 -166 -287 -178
-302 -257 -302 -37 0 -49 6 -83 40 -39 39 -40 42 -36 93 5 45 26 88 153 307
150 260 175 296 210 310 35 15 87 11 121 -10z m201 -351 c65 -24 100 -89 82
-152 -5 -17 -50 -104 -101 -192 -107 -183 -134 -210 -206 -202 -77 8 -132 87
-112 158 9 30 151 283 193 343 20 28 67 55 99 56 9 0 29 -5 45 -11z m298 -273
c42 -18 75 -69 75 -115 0 -41 -107 -239 -156 -288 -77 -79 -214 -20 -214 92 0
37 38 114 123 249 45 71 102 91 172 62z m378 -189 c87 -60 166 -121 175 -135
24 -36 20 -102 -7 -140 -28 -40 -87 -60 -134 -45 -36 11 -287 182 -287 195 0
4 14 33 31 64 23 40 33 72 37 119 3 44 8 62 16 58 6 -4 82 -56 169 -116z"/>
</g>
</svg>
