<?xml version="1.0" encoding="UTF-8"?>
<svg version="1.1" xmlns="http://www.w3.org/2000/svg" width="512" height="512">
<path d="M0 0 C0.98452148 -0.01260864 1.96904297 -0.02521729 2.98339844 -0.03820801 C4.0355957 -0.03011108 5.08779297 -0.02201416 6.171875 -0.01367188 C7.26274414 -0.01749878 8.35361328 -0.02132568 9.47753906 -0.02526855 C11.78060836 -0.02798677 14.08370858 -0.02063202 16.38671875 -0.00390625 C19.90955512 0.01750325 23.43035198 -0.00371249 26.953125 -0.02929688 C29.19271283 -0.02665358 31.43229939 -0.02152858 33.671875 -0.01367188 C34.72407227 -0.0217688 35.77626953 -0.02986572 36.86035156 -0.03820801 C37.84487305 -0.02559937 38.82939453 -0.01299072 39.84375 0 C41.13684082 0.00477356 41.13684082 0.00477356 42.45605469 0.00964355 C45.94992562 0.72934637 47.45101162 1.93681808 49.921875 4.51757812 C50.41270058 7.48929884 50.57764245 9.88705063 50.52314758 12.8571167 C50.52741971 13.70582974 50.53169183 14.55454278 50.53609341 15.42897439 C50.54434054 18.27772788 50.51681042 21.1250146 50.48950195 23.97363281 C50.48809185 26.0136054 50.48888271 28.05358053 50.49171448 30.09355164 C50.49315152 35.63674785 50.46371479 41.17940523 50.42884469 46.72247601 C50.39762931 52.51338165 50.39465425 58.30429908 50.38871765 64.09527588 C50.37316507 75.06358713 50.33211728 86.03164978 50.2819702 96.99985147 C50.22612089 109.48576589 50.19860131 121.97169206 50.17349303 134.45770025 C50.12120281 160.14446414 50.03323288 185.83100722 49.921875 211.51757812 C50.53925034 211.58133636 51.15662567 211.6450946 51.79270935 211.71078491 C53.00798058 211.84016953 53.00798058 211.84016953 54.24780273 211.97216797 C55.05080307 212.05655121 55.85380341 212.14093445 56.68113708 212.22787476 C64.84375247 213.28321334 71.45986267 217.52031292 76.921875 223.51757812 C84.12345578 232.9914134 84.97210038 242.97636146 83.921875 254.51757812 C82.12083788 263.74033867 75.61988817 271.33109625 67.96704102 276.52172852 C64.66273444 278.39438097 61.3192885 280.13231288 57.921875 281.83007812 C56.68240658 282.46912702 55.44397948 283.11019922 54.20654297 283.75317383 C51.68080658 285.06141307 49.14959375 286.35786656 46.61230469 287.64355469 C42.10789943 289.92646449 37.62900121 292.25774522 33.14990234 294.58984375 C31.07609328 295.66933398 29.00088773 296.74614551 26.92431641 297.8203125 C20.33132371 301.23541792 13.7994089 304.74615142 7.296875 308.33007812 C-2.24647885 313.58781625 -11.91228333 318.58591883 -21.60626221 323.55776978 C-29.82307208 327.77435919 -37.99299442 332.05173969 -46.078125 336.51757812 C-54.82863082 341.35093794 -63.68419725 345.95593341 -72.578125 350.51757812 C-81.76104842 355.22804941 -90.90512063 359.98824285 -99.953125 364.95507812 C-100.83218506 365.43654297 -101.71124512 365.91800781 -102.61694336 366.4140625 C-105.89666303 368.21300973 -109.17475957 370.01450636 -112.44287109 371.83447266 C-125.19912162 378.92788905 -137.50004785 384.54573545 -152.390625 384.83007812 C-153.64488281 384.86746094 -154.89914062 384.90484375 -156.19140625 384.94335938 C-172.51257288 384.0991611 -188.68094132 376.57834903 -203.828125 371.08007812 C-206.32030778 370.18184502 -208.8127415 369.2843079 -211.30541992 368.38745117 C-217.43724506 366.17934765 -223.5659367 363.96270157 -229.69354248 361.74291992 C-234.67554979 359.93925233 -239.65995898 358.14226744 -244.64453125 356.34570312 C-249.38279381 354.6374853 -254.12081235 352.92863132 -258.85644531 351.21313477 C-259.88365944 350.84106903 -259.88365944 350.84106903 -260.93162537 350.46148682 C-262.72839908 349.81039798 -264.52497521 349.15876394 -266.3215332 348.50708008 C-271.31458205 346.71478294 -275.63270838 346.30631685 -280.90234375 346.20117188 C-281.76374466 346.18039078 -282.62514557 346.15960968 -283.51264954 346.13819885 C-286.26356044 346.07282904 -289.01456656 346.01387681 -291.765625 345.95507812 C-293.63086921 345.91188095 -295.4961038 345.86826627 -297.36132812 345.82421875 C-301.93349624 345.7171605 -306.5057601 345.61585758 -311.078125 345.51757812 C-311.02011719 346.68675781 -310.96210938 347.8559375 -310.90234375 349.06054688 C-310.85543051 350.60868392 -310.80993202 352.1568643 -310.765625 353.70507812 C-310.72373047 354.47400391 -310.68183594 355.24292969 -310.63867188 356.03515625 C-310.62255859 356.78603516 -310.60644531 357.53691406 -310.58984375 358.31054688 C-310.56365967 358.99656982 -310.53747559 359.68259277 -310.51049805 360.3894043 C-311.47203673 363.99445063 -313.08461555 365.32908261 -316.078125 367.51757812 C-319.51571403 368.24547045 -322.8854522 368.19070529 -326.38867188 368.14868164 C-327.42500259 368.15583694 -328.46133331 368.16299225 -329.52906799 368.17036438 C-332.95211976 368.18726264 -336.37386401 368.16784089 -339.796875 368.14648438 C-342.17671823 368.14731296 -344.5565614 368.14977195 -346.93640137 368.15379333 C-351.92310826 368.15665213 -356.9093662 368.14194135 -361.89599609 368.11450195 C-368.28869425 368.08041977 -374.68058953 368.08643702 -381.07332611 368.10516453 C-385.98727105 368.115732 -390.9010291 368.10679884 -395.81495667 368.09177971 C-398.17207789 368.08659563 -400.52921862 368.08708242 -402.88633728 368.09332466 C-406.18051129 368.09877355 -409.47353514 368.07841053 -412.76757812 368.05102539 C-413.74227554 368.05755127 -414.71697296 368.06407715 -415.72120667 368.07080078 C-417.07114967 368.0517141 -417.07114967 368.0517141 -418.44836426 368.03224182 C-419.22631599 368.0294349 -420.00426773 368.02662798 -420.80579376 368.023736 C-424.19865607 367.26798176 -425.75134553 366.10211812 -428.078125 363.51757812 C-428.49315336 360.55971003 -428.60419482 358.22698189 -428.45848083 355.29187012 C-428.43763064 354.4925077 -428.41678044 353.69314528 -428.39529842 352.86955976 C-428.32073126 350.41645401 -428.2065695 347.96840696 -428.078125 345.51757812 C-428.04370906 344.81536448 -428.00929312 344.11315083 -427.97383428 343.38965797 C-427.7275787 338.62892931 -427.36917423 333.88048308 -426.99243164 329.12890625 C-426.87524866 327.58588992 -426.75866519 326.04282796 -426.6426239 324.49972534 C-426.33050022 320.3716663 -426.01007243 316.24429221 -425.68790746 312.1170063 C-425.3499028 307.76859833 -425.01959146 303.41960532 -424.68833923 299.07067871 C-424.13207631 291.78146987 -423.57088437 284.49265517 -423.00610352 277.20410156 C-422.21143456 266.9486821 -421.42599185 256.69257099 -420.64225972 246.43631077 C-420.03025955 238.4320099 -419.41566465 230.42790794 -418.80078125 222.42382812 C-418.73540389 221.572335 -418.67002654 220.72084187 -418.60266805 219.84354591 C-418.22598155 214.93917977 -417.84798996 210.03491737 -417.46805 205.13080215 C-417.35359137 203.65146448 -417.23950537 202.17209792 -417.12583542 200.69269943 C-416.87464316 197.42537554 -416.61756317 194.15902788 -416.34645271 190.89326477 C-416.17783781 188.7720114 -416.03260766 186.64863616 -415.92129326 184.52360535 C-415.67469045 180.65474794 -415.28819898 177.95339671 -413.59082031 174.43202209 C-409.81493482 171.55514277 -406.50685444 171.82472293 -401.875 171.88647461 C-400.94449829 171.87931931 -400.01399658 171.872164 -399.05529785 171.86479187 C-395.97907436 171.84788119 -392.90430331 171.86732166 -389.828125 171.88867188 C-387.6910795 171.8878434 -385.55403406 171.88538482 -383.41699219 171.88136292 C-378.93795595 171.87850328 -374.45941931 171.89322268 -369.98046875 171.9206543 C-364.23667523 171.95473696 -358.49377525 171.94872022 -352.74993896 171.92999172 C-348.33700096 171.91942752 -343.92427118 171.92835436 -339.51135254 171.94337654 C-337.39343891 171.94856305 -335.27550357 171.94807089 -333.15759277 171.94183159 C-330.19833553 171.93638652 -327.24036112 171.95673228 -324.28125 171.98413086 C-322.96574158 171.97434204 -322.96574158 171.97434204 -321.62365723 171.96435547 C-315.69198762 172.05782846 -315.69198762 172.05782846 -312.53131104 174.42500305 C-310.91280415 176.75563869 -310.60256505 177.82409994 -310.6875 180.62695312 C-310.69749023 181.30725586 -310.70748047 181.98755859 -310.71777344 182.68847656 C-310.75418945 183.53958008 -310.79060547 184.39068359 -310.828125 185.26757812 C-310.910625 187.99007812 -310.993125 190.71257812 -311.078125 193.51757812 C-301.178125 193.51757812 -291.278125 193.51757812 -281.078125 193.51757812 C-281.10132813 190.09898437 -281.12453125 186.68039062 -281.1484375 183.15820312 C-281.16403329 179.84863659 -281.17617847 176.53907414 -281.18798828 173.22949219 C-281.1980482 170.92869231 -281.21169762 168.62790522 -281.22900391 166.32714844 C-281.25325235 163.02080123 -281.26460823 159.71462301 -281.2734375 156.40820312 C-281.28892136 154.86425873 -281.28892136 154.86425873 -281.30471802 153.28912354 C-281.30486908 152.32842957 -281.30502014 151.3677356 -281.30517578 150.37792969 C-281.309617 149.53409729 -281.31405823 148.69026489 -281.31863403 147.82086182 C-281.04640937 145.21384695 -280.5500962 143.68684093 -279.078125 141.51757812 C-276.12841242 139.517295 -273.70470746 139.26537318 -270.18945312 139.25878906 C-269.22164917 139.25248474 -268.25384521 139.24618042 -267.25671387 139.23968506 C-266.21809204 139.24373352 -265.17947021 139.24778198 -264.109375 139.25195312 C-262.50068542 139.24908295 -262.50068542 139.24908295 -260.85949707 139.24615479 C-258.59334071 139.24479455 -256.32717652 139.24847972 -254.06103516 139.25683594 C-250.59129339 139.26753751 -247.1220694 139.25693496 -243.65234375 139.24414062 C-241.45051969 139.24546225 -239.24869595 139.2480247 -237.046875 139.25195312 C-236.00825317 139.24790466 -234.96963135 139.2438562 -233.89953613 139.23968506 C-232.4478302 139.24914154 -232.4478302 139.24914154 -230.96679688 139.25878906 C-229.69249817 139.26117584 -229.69249817 139.26117584 -228.39245605 139.26361084 C-225.78719246 139.54950413 -224.24761208 140.04638788 -222.078125 141.51757812 C-219.67837925 144.85357732 -219.83574537 148.01411452 -219.85107422 152.03027344 C-219.85078217 152.6745932 -219.85049011 153.31891296 -219.85018921 153.98275757 C-219.85157806 156.10387834 -219.86711784 158.22464402 -219.8828125 160.34570312 C-219.88654422 161.81972054 -219.88939044 163.29374044 -219.89138794 164.76776123 C-219.89901189 168.6410206 -219.91864965 172.51412917 -219.9407959 176.3873291 C-219.96128106 180.34218303 -219.97039536 184.2970614 -219.98046875 188.25195312 C-220.00189679 196.00723009 -220.03601768 203.76238295 -220.078125 211.51757812 C-219.20397949 211.78940918 -218.32983398 212.06124023 -217.42919922 212.34130859 C-214.25211185 213.45650653 -211.43456722 214.76754684 -208.4609375 216.33789062 C-207.44257813 216.87285156 -206.42421875 217.4078125 -205.375 217.95898438 C-204.32828125 218.51457031 -203.2815625 219.07015625 -202.203125 219.64257812 C-201.13320312 220.20589844 -200.06328125 220.76921875 -198.9609375 221.34960938 C-196.33118483 222.73492551 -193.70369417 224.12435409 -191.078125 225.51757812 C-191.08089038 224.87281682 -191.08365576 224.22805552 -191.08650494 223.56375599 C-191.15276693 207.87304251 -191.20240658 192.18237773 -191.23356152 176.49155903 C-191.24902839 168.90358263 -191.2701144 161.31569964 -191.30444336 153.7277832 C-191.33435131 147.11391248 -191.35370132 140.50010942 -191.36039048 133.88617295 C-191.36430041 130.384335 -191.37348531 126.88269059 -191.39531517 123.38091469 C-191.41949081 119.47111008 -191.42009409 115.56149458 -191.41870117 111.65161133 C-191.429487 110.49139465 -191.44027283 109.33117798 -191.4513855 108.13580322 C-191.44726151 107.06874649 -191.44313751 106.00168976 -191.43888855 104.90229797 C-191.44165393 103.97773961 -191.44441931 103.05318125 -191.44726849 102.10060596 C-190.99898366 98.96379809 -189.91918212 97.07497742 -188.078125 94.51757812 C-185.60391147 93.28047136 -183.90904878 93.36394216 -181.14111328 93.32470703 C-180.11309601 93.3086441 -179.08507874 93.29258118 -178.02590942 93.27603149 C-173.32733768 93.2316665 -168.6289078 93.19052874 -163.93017578 93.16748047 C-161.4489607 93.15090219 -158.96779374 93.12358801 -156.48681641 93.08544922 C-152.91543727 93.03081192 -149.34517772 93.00882698 -145.7734375 92.99414062 C-144.66292023 92.97147125 -143.55240295 92.94880188 -142.40823364 92.92544556 C-140.85675125 92.92972061 -140.85675125 92.92972061 -139.27392578 92.93408203 C-137.91063644 92.92195175 -137.91063644 92.92195175 -136.51980591 92.90957642 C-133.00271274 93.78536598 -132.05813885 95.54614525 -130.078125 98.51757812 C-129.58593369 101.22554493 -129.58593369 101.22554493 -129.59710693 104.20600891 C-129.59160828 105.34037888 -129.58610962 106.47474884 -129.58044434 107.64349365 C-129.60201599 109.49602753 -129.60201599 109.49602753 -129.62402344 111.38598633 C-129.62343933 112.69369492 -129.62285522 114.0014035 -129.62225342 115.34873962 C-129.62110722 118.92706274 -129.64460051 122.50484794 -129.67254925 126.0830462 C-129.69757901 129.82528969 -129.69990613 133.56754594 -129.70465088 137.30986023 C-129.71707608 144.39300592 -129.74989134 151.47590423 -129.79004884 158.55894107 C-129.83478087 166.62416483 -129.85675716 174.6894005 -129.87683058 182.75471747 C-129.91862458 199.34250527 -129.99197101 215.92995239 -130.078125 232.51757812 C-120.178125 232.51757812 -110.278125 232.51757812 -100.078125 232.51757812 C-100.08700745 230.32151917 -100.09588989 228.12546021 -100.1050415 225.862854 C-100.18670154 205.20266243 -100.24627149 184.54249208 -100.28537369 163.88217545 C-100.30601194 153.2596017 -100.33415668 142.63714626 -100.37988281 132.01464844 C-100.41971189 122.75767558 -100.44554862 113.50078838 -100.45447898 104.24373221 C-100.45970039 99.34070722 -100.4719988 94.43792733 -100.50104523 89.53498077 C-100.52815227 84.92211665 -100.53657956 80.3095991 -100.53055573 75.6966629 C-100.53165808 74.00191364 -100.53964005 72.30715303 -100.5549469 70.61247253 C-100.57480182 68.30129895 -100.57008164 65.99143979 -100.55914307 63.68023682 C-100.56283024 62.38603947 -100.56651741 61.09184212 -100.57031631 59.75842667 C-99.99435633 55.96600078 -99.11498003 54.78492029 -96.078125 52.51757812 C-93.64990234 52.00964355 -93.64990234 52.00964355 -90.9140625 52 C-89.88619629 51.98739136 -88.85833008 51.97478271 -87.79931641 51.96179199 C-86.14295166 51.97393738 -86.14295166 51.97393738 -84.453125 51.98632812 C-82.74455322 51.98058777 -82.74455322 51.98058777 -81.00146484 51.97473145 C-78.59406653 51.97201038 -76.18663874 51.97938502 -73.77929688 51.99609375 C-70.09177818 52.01749887 -66.40620801 51.9962968 -62.71875 51.97070312 C-60.38020403 51.97334636 -58.04165927 51.97847126 -55.703125 51.98632812 C-54.59888184 51.9782312 -53.49463867 51.97013428 -52.35693359 51.96179199 C-51.32906738 51.97440063 -50.30120117 51.98700928 -49.2421875 52 C-48.33936035 52.00318237 -47.4365332 52.00636475 -46.50634766 52.00964355 C-43.16562728 52.708454 -42.1503749 53.8103099 -40.078125 56.51757812 C-39.69365499 59.24432196 -39.55395542 61.56402206 -39.59710693 64.28765869 C-39.59368923 65.07511844 -39.59027153 65.8625782 -39.58675027 66.67390037 C-39.58015632 69.31519596 -39.60217179 71.95547757 -39.62402344 74.59667969 C-39.62515159 76.48887101 -39.62451868 78.38106409 -39.62225342 80.27325439 C-39.62110409 85.41350237 -39.64464891 90.55337824 -39.67254925 95.69353962 C-39.69752639 101.06404556 -39.69990199 106.43455969 -39.70465088 111.80511475 C-39.71709149 121.97652977 -39.74992785 132.14777315 -39.79004884 142.31911254 C-39.83473273 153.89816272 -39.85674509 165.47722102 -39.87683058 177.05633593 C-39.91865948 200.87684843 -39.98983686 224.69719643 -40.078125 248.51757812 C-25.723125 242.08257812 -25.723125 242.08257812 -11.078125 235.51757812 C-11.07598747 231.1899234 -11.07598747 231.1899234 -11.07380676 226.77484131 C-11.05843508 200.32907361 -11.01835699 173.8834219 -10.95126938 147.43773501 C-10.94250243 143.97297614 -10.93395266 140.50821677 -10.92553711 137.04345703 C-10.92301852 136.00878288 -10.92301852 136.00878288 -10.92044904 134.95320621 C-10.89376582 123.77850993 -10.88468302 112.60386493 -10.88208357 101.42914006 C-10.8790261 89.96619305 -10.85673045 78.50343287 -10.81760043 67.04054475 C-10.79622898 60.60054359 -10.7836912 54.16079351 -10.79197121 47.72075653 C-10.79948494 41.66321733 -10.78379729 35.60618797 -10.75006485 29.54874229 C-10.74179927 27.32188355 -10.74211935 25.09497441 -10.75152779 22.86812019 C-10.76308017 19.83422249 -10.74413728 16.80201517 -10.71736145 13.76824951 C-10.72803471 12.88109182 -10.73870797 11.99393413 -10.74970466 11.07989287 C-10.65129875 5.12933021 -10.65129875 5.12933021 -7.69228649 1.97115707 C-4.8503336 0.39091694 -3.22745153 0.01191442 0 0 Z M5.921875 16.51757812 C5.921875 86.14757812 5.921875 155.77757812 5.921875 227.51757812 C16.81709404 224.08639072 16.81709404 224.08639072 33.921875 215.51757812 C33.921875 149.84757812 33.921875 84.17757812 33.921875 16.51757812 C24.681875 16.51757812 15.441875 16.51757812 5.921875 16.51757812 Z M-84.078125 68.51757812 C-84.21704592 90.56184926 -84.32410627 112.60601489 -84.38899803 134.65063572 C-84.41992994 144.88646411 -84.46209782 155.12201545 -84.53076172 165.35766602 C-84.59058401 174.27956466 -84.62927899 183.20126265 -84.64265597 192.12335628 C-84.65047496 196.8472105 -84.6688373 201.57049069 -84.71250534 206.29416084 C-84.75329121 210.74218026 -84.7657821 215.18939031 -84.75677109 219.63757896 C-84.75841907 221.268204 -84.77031905 222.89885665 -84.79335785 224.52931976 C-85.26860839 234.31298053 -85.26860839 234.31298053 -81.17617798 242.80430603 C-80.65155283 243.26177688 -80.12692768 243.71924772 -79.5864048 244.19058132 C-74.21371579 248.91751669 -73.12121148 256.81986492 -72.078125 263.51757812 C-70.53511822 262.91684228 -68.99378808 262.31179943 -67.453125 261.70507812 C-66.59460938 261.36863281 -65.73609375 261.0321875 -64.8515625 260.68554688 C-61.8676492 259.42894113 -58.97402508 257.96552816 -56.078125 256.51757812 C-56.078125 194.47757812 -56.078125 132.43757812 -56.078125 68.51757812 C-65.318125 68.51757812 -74.558125 68.51757812 -84.078125 68.51757812 Z M-174.078125 109.51757812 C-174.078125 150.10757813 -174.078125 190.69757813 -174.078125 232.51757812 C-164.838125 232.51757812 -155.598125 232.51757812 -146.078125 232.51757812 C-146.078125 191.92757812 -146.078125 151.33757812 -146.078125 109.51757812 C-155.318125 109.51757812 -164.558125 109.51757812 -174.078125 109.51757812 Z M-264.078125 156.51757812 C-264.078125 168.72757813 -264.078125 180.93757813 -264.078125 193.51757812 C-260.118125 194.17757812 -256.158125 194.83757812 -252.078125 195.51757812 C-247.203125 197.51757812 -247.203125 197.51757812 -245.2109375 198.51757812 C-242.59473341 199.74422327 -239.81934077 200.60383953 -237.078125 201.51757812 C-237.078125 186.66757812 -237.078125 171.81757813 -237.078125 156.51757812 C-245.988125 156.51757812 -254.898125 156.51757812 -264.078125 156.51757812 Z M-399.078125 188.51757812 C-400.79110038 205.62321521 -400.79110038 205.62321521 -402.22314453 222.74658203 C-402.32097229 224.02091095 -402.41880005 225.29523987 -402.51959229 226.60818481 C-402.78204207 230.02888192 -403.04154314 233.44979594 -403.3002038 236.87078142 C-403.51807299 239.74892427 -403.73737748 242.62695713 -403.95663154 245.50499475 C-404.47379684 252.29434093 -404.98843428 259.08387539 -405.50146484 265.87353516 C-406.02828218 272.84499701 -406.55967748 279.81609963 -407.09323037 286.78704894 C-407.55459064 292.81707689 -408.01301361 298.8473234 -408.46913612 304.8777498 C-408.74016192 308.46053882 -409.01228036 312.04323583 -409.2872963 315.62572098 C-409.59309341 319.61100568 -409.89276143 323.59672909 -410.19189453 327.58251953 C-410.32744247 329.33290527 -410.32744247 329.33290527 -410.46572876 331.11865234 C-410.54697998 332.21416412 -410.6282312 333.3096759 -410.71194458 334.43838501 C-410.78309038 335.3766041 -410.85423618 336.31482319 -410.92753792 337.28147316 C-411.13263641 341.68902429 -411.078125 346.10525761 -411.078125 350.51757812 C-383.358125 350.51757812 -355.638125 350.51757812 -327.078125 350.51757812 C-327.078125 297.05757812 -327.078125 243.59757812 -327.078125 188.51757812 C-350.838125 188.51757812 -374.598125 188.51757812 -399.078125 188.51757812 Z M-311.078125 209.51757812 C-311.078125 248.78757812 -311.078125 288.05757813 -311.078125 328.51757812 C-292.268125 329.01257813 -292.268125 329.01257813 -273.078125 329.51757812 C-265.46876072 331.4199192 -258.27506001 333.32933758 -250.953125 335.96679688 C-249.55815041 336.46182709 -249.55815041 336.46182709 -248.13499451 336.96685791 C-245.11402851 338.04071661 -242.0960621 339.12273965 -239.078125 340.20507812 C-236.965053 340.95812259 -234.85185112 341.71080268 -232.73852539 342.46313477 C-216.09711282 348.39699159 -199.48946955 354.42518778 -182.90429688 360.5144043 C-182.02354996 360.83681091 -181.14280304 361.15921753 -180.23536682 361.49139404 C-178.60743364 362.08740864 -176.98020235 362.68534584 -175.35386658 363.28570557 C-168.19352392 365.90406979 -161.58385127 367.87837087 -153.890625 367.89257812 C-153.21193359 367.91707031 -152.53324219 367.9415625 -151.83398438 367.96679688 C-140.71760987 368.02849738 -130.76526668 362.64742009 -121.203125 357.51757812 C-120.11725098 356.94434814 -119.03137695 356.37111816 -117.91259766 355.78051758 C-110.17068215 351.67936732 -102.48512152 347.47634954 -94.81103516 343.25 C-86.13953015 338.49789784 -77.34770316 333.98956151 -68.54998779 329.47738647 C-60.33317792 325.26079706 -52.16325558 320.98341656 -44.078125 316.51757812 C-34.66188905 311.31650091 -25.11894551 306.38503767 -15.54833984 301.4765625 C-6.46745672 296.81654903 2.53660711 292.04795334 11.46972656 287.10888672 C20.92151921 281.91163192 30.52743295 277.01342321 40.140625 272.12304688 C55.37078227 265.11618235 55.37078227 265.11618235 66.921875 253.51757812 C68.57726814 248.26528137 68.58892038 243.43317584 66.296875 238.39257812 C63.65102068 233.54341451 60.24699291 230.29261743 54.921875 228.51757812 C45.19324633 226.74247295 36.83474383 231.58902463 28.296875 235.58007812 C26.6921006 236.31337042 25.08661902 237.04511687 23.48046875 237.77539062 C18.61486482 239.99571127 13.76641856 242.2517381 8.921875 244.51757812 C8.21003052 244.85005554 7.49818604 245.18253296 6.76477051 245.52508545 C0.83840428 248.29414529 -5.08282557 251.0740111 -10.99682617 253.86938477 C-22.42329328 259.26167296 -33.95594214 264.39997787 -45.51342773 269.50415039 C-57.68777963 274.8827384 -69.81017851 280.37012859 -81.91186523 285.91015625 C-82.90759048 286.36504173 -82.90759048 286.36504173 -83.9234314 286.82911682 C-85.70938614 287.64513431 -87.49449517 288.46300206 -89.27954102 289.28100586 C-92.74635038 290.81283779 -95.42859679 291.64236474 -99.18817139 291.65560913 C-100.02359467 291.66106247 -100.85901794 291.66651581 -101.71975708 291.6721344 C-102.63304779 291.67317673 -103.5463385 291.67421906 -104.48730469 291.67529297 C-105.45185577 291.68037369 -106.41640686 291.68545441 -107.41018677 291.69068909 C-109.50709879 291.70139664 -111.60402227 291.71001531 -113.70095062 291.71680832 C-117.02166216 291.7285925 -120.34224337 291.74804492 -123.66290283 291.76992798 C-133.10530247 291.83155542 -142.54768932 291.88556632 -151.99023438 291.91894531 C-157.76448 291.93990753 -163.53848892 291.9752254 -169.31259918 292.01970291 C-171.51174378 292.03385269 -173.71093027 292.04258303 -175.9101181 292.04575729 C-178.99078576 292.0506739 -182.0708271 292.0738525 -185.15136719 292.10107422 C-186.05656097 292.09806808 -186.96175476 292.09506195 -187.89437866 292.09196472 C-194.01347991 292.1721335 -199.41225652 292.81782149 -203.921875 297.38476562 C-205.63710935 300.54867764 -206.36866171 303.80223137 -207.234375 307.27539062 C-208.078125 309.51757812 -208.078125 309.51757812 -211.078125 311.51757812 C-214.54379907 311.9600046 -216.41027037 311.90423081 -219.453125 310.14257812 C-222.0039769 306.02197121 -221.7692818 302.23126753 -221.078125 297.51757812 C-218.40601343 288.87411518 -214.12911365 283.7589144 -206.19921875 279.53320312 C-202.99369889 277.99833174 -200.4355092 277.39177363 -196.92338562 277.37954712 C-196.07810303 277.37409378 -195.23282043 277.36864044 -194.36192322 277.36302185 C-193.43771072 277.36197952 -192.51349823 277.36093719 -191.5612793 277.35986328 C-190.09741287 277.3522422 -190.09741287 277.3522422 -188.60397339 277.34446716 C-186.48250415 277.33375966 -184.36102358 277.32514097 -182.23953819 277.31834793 C-178.88129636 277.30656679 -175.52318358 277.28711572 -172.16499329 277.26522827 C-162.61597996 277.20358656 -153.06697959 277.14956467 -143.51782227 277.11621094 C-137.67874371 277.09526557 -131.83989997 277.05996245 -126.00095558 277.01545334 C-123.77586443 277.00129143 -121.55073172 276.99257048 -119.32559776 276.98939896 C-116.21120004 276.98449023 -113.09742541 276.96133234 -109.9831543 276.93408203 C-108.6059446 276.93859123 -108.6059446 276.93859123 -107.20091248 276.94319153 C-102.08186613 276.87667786 -98.50193278 276.38004041 -94.078125 273.51757812 C-90.17867699 269.19656817 -88.71791615 266.52294648 -88.79296875 260.61523438 C-89.37909007 256.30362961 -91.97604316 253.48607428 -95.140625 250.70507812 C-99.20576356 248.21354159 -103.09183599 248.36642847 -107.69555664 248.35986328 C-108.46997101 248.35478256 -109.24438538 248.34970184 -110.04226685 248.34446716 C-111.72501049 248.33376588 -113.40776835 248.32514474 -115.0905323 248.31834793 C-117.76098621 248.30654023 -120.43127976 248.28707942 -123.10166931 248.26522827 C-130.69492178 248.20369763 -138.28815988 248.14971137 -145.8815918 248.11621094 C-150.5276883 248.09516294 -155.1734954 248.059773 -159.81942558 248.01545334 C-161.58346568 248.00136622 -163.34755701 247.99258751 -165.11165047 247.98939896 C-177.39978644 247.96485122 -186.97276155 246.94251211 -198.0625 241.14648438 C-198.67713608 240.82794998 -199.29177216 240.50941559 -199.92503357 240.18122864 C-201.89731548 239.15602944 -203.86275465 238.11845593 -205.828125 237.08007812 C-207.20454781 236.36094288 -208.58126018 235.6423616 -209.95825195 234.92431641 C-219.01040076 230.19113024 -227.99520293 225.33740088 -236.94799805 220.41894531 C-264.02215422 205.54777461 -270.3893601 209.51757812 -311.078125 209.51757812 Z " fill="#2C2178" transform="translate(428.078125,109.482421875)"/>
<path d="M0 0 C2.46582945 -0.08993349 4.93058965 -0.15260816 7.39746094 -0.20507812 C8.11627441 -0.23480713 8.83508789 -0.26453613 9.57568359 -0.29516602 C12.77311821 -0.33178963 15.15614536 0.11105375 18.10839844 1.34570312 C21.52784948 5.97702858 20.70504938 11.02411994 20.52246094 16.60742188 C20.49885498 17.80963379 20.47524902 19.0118457 20.45092773 20.25048828 C20.39710839 22.69951234 20.33129422 25.14830254 20.25341797 27.59667969 C20.15715753 30.78613843 20.11048857 33.97147629 20.08105469 37.16210938 C20.04350194 38.93560864 20.00332036 40.70905507 19.95996094 42.48242188 C19.95198486 43.69188477 19.95198486 43.69188477 19.94384766 44.92578125 C19.78597672 48.9320797 19.30215814 50.90782095 16.81933594 54.11132812 C14.14746094 56.10742188 14.14746094 56.10742188 10.58496094 56.66992188 C6.66644382 56.02870998 5.52187867 55.21242968 3.14746094 52.10742188 C1.9731983 49.75889659 2.03237921 48.36968122 2.04980469 45.75585938 C2.05302734 44.90507813 2.05625 44.05429687 2.05957031 43.17773438 C2.06794922 42.28828125 2.07632812 41.39882813 2.08496094 40.48242188 C2.08947266 39.58523437 2.09398437 38.68804687 2.09863281 37.76367188 C2.11043503 35.54485539 2.12689938 33.32617169 2.14746094 31.10742188 C1.48042963 31.77721856 1.48042963 31.77721856 0.79992294 32.46054649 C-10.01946078 43.32409433 -20.84436945 54.18210158 -31.67546463 65.03397179 C-36.91316062 70.28198139 -42.14896741 75.53185017 -47.38037109 80.78613281 C-51.93993756 85.3656305 -56.50300593 89.94160456 -61.07031798 94.51337779 C-63.48866013 96.93432776 -65.90520942 99.35700841 -68.31757355 101.78391647 C-71.0111353 104.49194672 -73.71084075 107.19370341 -76.41210938 109.89404297 C-77.21124252 110.70036667 -78.01037567 111.50669037 -78.83372498 112.33744812 C-79.57125504 113.07222885 -80.3087851 113.80700958 -81.06866455 114.5640564 C-81.7065453 115.20378073 -82.34442604 115.84350506 -83.00163651 116.50261497 C-84.90107988 118.14950871 -86.50928452 119.20334658 -88.85253906 120.10742188 C-91.34832715 119.8734501 -93.64861502 119.52805247 -96.09594727 119.0456543 C-123.70405312 114.21927941 -159.44235513 108.85244949 -184.20849609 124.96508789 C-199.99728641 136.24025773 -213.54839352 150.33756957 -226.66503906 164.54492188 C-227.14330281 165.0623645 -227.62156655 165.57980712 -228.11432314 166.11292982 C-239.00245817 177.91414217 -249.64331226 189.92731387 -259.8229723 202.34848309 C-260.43168517 203.08184289 -261.04039804 203.81520269 -261.66755676 204.57078552 C-262.18984265 205.20921103 -262.71212854 205.84763655 -263.25024128 206.50540829 C-265.03039728 208.28524855 -266.50605277 209.20695953 -268.85253906 210.10742188 C-273.03773353 210.03268626 -275.13632125 209.71620701 -278.35253906 206.98242188 C-279.89220244 204.0314004 -280.23067098 202.40125846 -279.65437126 199.13796616 C-277.82304935 194.50036213 -273.73430744 191.21102733 -270.23364258 187.79150391 C-268.87761932 186.43175697 -268.87761932 186.43175697 -267.49420166 185.04454041 C-265.02202873 182.56638847 -262.53174423 180.10720448 -260.03760266 177.65119028 C-257.4295661 175.07701026 -254.83819222 172.48616192 -252.24485779 169.89718628 C-247.89071287 165.55498802 -243.52580869 161.22386681 -239.15307617 156.90039062 C-232.98212459 150.79890504 -226.83133033 144.67740402 -220.68420899 138.55192399 C-215.91222912 133.79823177 -211.13469131 129.05012678 -206.35644531 124.30273438 C-205.84341268 123.79287318 -205.33038004 123.28301198 -204.80180097 122.75770044 C-201.40564903 119.38322404 -198.00449436 116.01387177 -194.60083008 112.64697266 C-193.73997299 111.79194656 -192.87911591 110.93692047 -191.99217224 110.0559845 C-191.20835175 109.28220963 -190.42453125 108.50843475 -189.61695862 107.71121216 C-188.93428704 107.0354117 -188.25161547 106.35961124 -187.54825687 105.66333199 C-185.85253906 104.10742188 -185.85253906 104.10742188 -183.85253906 103.10742188 C-181.44520726 103.42431987 -179.08468751 103.806865 -176.69677734 104.23510742 C-147.25865862 109.10152494 -110.2306224 114.30518002 -84.45071983 96.17425251 C-70.43610984 85.51949615 -58.14052407 72.95565143 -46.22753906 60.04492188 C-45.76384572 59.54351291 -45.30015238 59.04210395 -44.82240772 58.52550077 C-32.72482995 45.42634619 -21.07693081 31.96315722 -9.85253906 18.10742188 C-10.46250732 18.13360596 -11.07247559 18.15979004 -11.70092773 18.18676758 C-14.48036664 18.29107906 -17.25939345 18.3558517 -20.04003906 18.41992188 C-20.99974609 18.46181641 -21.95945312 18.50371094 -22.94824219 18.546875 C-30.09421242 18.6705077 -30.09421242 18.6705077 -33.99316406 15.77539062 C-35.85253906 13.10742188 -35.85253906 13.10742188 -36.41503906 10.10742188 C-35.71967103 6.39879235 -34.54499267 4.72508511 -31.85253906 2.10742188 C-28.80187688 1.06986826 -25.83112098 0.91986707 -22.62597656 0.79101562 C-21.60213867 0.74871826 -20.57830078 0.7064209 -19.5234375 0.6628418 C-15.03993338 0.50243198 -10.55654744 0.34429197 -6.07226562 0.20703125 C-4.04796949 0.14440516 -2.0238301 0.07621407 0 0 Z " fill="#2C2178" transform="translate(448.8525390625,17.892578125)"/>
</svg>
