<?xml version="1.0" standalone="no"?>
<!DOCTYPE svg PUBLIC "-//W3C//DTD SVG 20010904//EN"
 "http://www.w3.org/TR/2001/REC-SVG-20010904/DTD/svg10.dtd">
<svg version="1.0" xmlns="http://www.w3.org/2000/svg"
 width="512.000000pt" height="512.000000pt" viewBox="0 0 512.000000 512.000000"
 preserveAspectRatio="xMidYMid meet">

<g transform="translate(0.000000,512.000000) scale(0.100000,-0.100000)"
fill="#2C2178" stroke="none">
<path d="M2380 4944 c-14 -2 -52 -9 -85 -15 -172 -29 -374 -113 -536 -220
-114 -76 -313 -272 -382 -376 -300 -454 -334 -993 -92 -1472 19 -38 45 -77 57
-85 47 -33 111 -11 123 43 5 22 -4 49 -38 118 -98 195 -139 363 -139 573 -1
155 17 272 62 409 144 440 533 776 990 855 119 20 321 21 436 1 116 -21 279
-75 376 -127 81 -44 95 -58 54 -58 -29 0 -66 -43 -66 -76 0 -12 11 -35 24 -50
l23 -28 144 3 c155 3 184 10 208 53 14 24 12 36 -23 163 -45 157 -62 185 -112
185 -42 0 -84 -37 -84 -74 0 -24 -1 -24 -107 29 -116 58 -242 103 -363 130
-72 16 -409 30 -470 19z"/>
<path d="M2373 4548 c-11 -13 -30 -51 -42 -84 -21 -58 -26 -63 -69 -79 -26
-10 -68 -29 -95 -42 l-47 -24 -69 31 c-106 46 -106 46 -237 -83 -131 -130
-132 -134 -85 -240 19 -41 26 -69 20 -78 -4 -8 -23 -51 -40 -96 l-32 -82 -59
-22 c-111 -41 -108 -35 -108 -225 0 -91 4 -173 10 -183 5 -10 43 -31 85 -47
68 -26 76 -32 86 -64 7 -19 24 -62 39 -96 l27 -61 -28 -63 c-47 -103 -46 -107
84 -237 130 -130 136 -132 241 -84 62 28 63 28 97 10 19 -10 62 -28 96 -39 56
-19 63 -25 74 -58 26 -82 50 -120 81 -131 40 -14 276 -14 316 0 31 11 55 49
81 130 10 31 18 38 74 58 34 12 77 30 96 40 34 18 35 18 97 -10 105 -48 111
-46 241 84 130 130 131 134 84 237 l-28 63 27 61 c15 34 32 77 39 96 10 32 18
38 86 64 42 16 80 37 85 47 6 10 10 92 10 183 0 190 3 184 -108 225 l-59 22
-32 82 c-17 45 -36 88 -40 96 -6 9 1 37 20 78 47 105 46 109 -84 240 -130 130
-131 130 -238 83 l-69 -31 -47 24 c-27 13 -69 32 -95 42 -43 16 -48 21 -69 79
-39 107 -36 106 -229 106 -160 0 -167 -1 -187 -22z m287 -195 c28 -76 42 -89
109 -108 31 -9 94 -35 139 -58 l84 -41 41 16 c23 9 57 22 74 29 33 13 34 13
87 -40 l54 -53 -29 -65 c-16 -36 -29 -71 -29 -77 0 -7 15 -42 34 -77 18 -35
43 -95 56 -134 12 -38 29 -77 37 -87 8 -9 41 -26 74 -38 l59 -22 0 -80 c0 -79
0 -79 -30 -89 -16 -6 -48 -20 -72 -32 -38 -20 -45 -28 -61 -82 -9 -33 -36 -99
-59 -147 l-41 -88 26 -62 c15 -35 27 -67 27 -73 0 -5 -23 -33 -51 -61 l-51
-51 -69 29 -70 29 -97 -45 c-53 -24 -116 -50 -140 -56 -54 -14 -75 -34 -97
-96 -27 -72 -30 -74 -105 -74 -75 0 -78 2 -105 74 -22 62 -43 82 -97 96 -24 6
-87 32 -140 56 l-97 45 -69 -29 -70 -29 -55 54 -54 55 30 69 31 68 -42 88
c-23 48 -50 115 -59 148 -17 56 -21 62 -69 86 -29 14 -61 29 -73 32 -19 5 -21
12 -21 85 l0 80 59 22 c33 12 66 29 74 38 8 10 25 49 37 87 13 39 38 99 56
134 19 35 34 70 34 77 0 6 -13 41 -29 77 l-29 65 54 53 c53 53 54 53 87 40 17
-7 51 -20 74 -29 l41 -16 84 41 c45 23 108 49 139 58 67 19 81 32 109 108 l21
57 79 0 79 0 21 -57z"/>
<path d="M2444 4045 c-256 -56 -438 -298 -421 -560 19 -285 254 -505 537 -505
283 0 518 220 537 505 24 353 -306 636 -653 560z m246 -170 c154 -54 261 -221
247 -387 -11 -133 -92 -250 -216 -311 -60 -29 -74 -32 -161 -32 -82 0 -103 4
-152 27 -273 128 -305 492 -58 660 98 67 227 83 340 43z"/>
<path d="M3693 4268 c-12 -6 -27 -24 -34 -40 -11 -26 -7 -39 44 -146 95 -200
129 -349 130 -557 0 -219 -44 -402 -143 -594 -154 -299 -426 -526 -750 -629
-135 -42 -226 -56 -380 -56 -211 1 -387 42 -574 136 l-100 50 31 13 c63 27 81
88 37 132 l-26 26 -156 -5 c-154 -5 -156 -5 -179 -32 -12 -15 -23 -36 -23 -47
0 -26 70 -269 84 -291 38 -62 146 -27 146 48 0 21 5 20 93 -26 417 -220 910
-222 1325 -5 622 325 921 1043 710 1705 -39 121 -109 272 -142 305 -26 26 -56
31 -93 13z"/>
<path d="M333 3990 c-69 -28 -146 -98 -178 -165 l-27 -54 -25 -868 c-29 -980
-30 -955 44 -1103 34 -69 66 -104 430 -470 l393 -396 0 -67 0 -67 -66 0 c-89
0 -141 -17 -184 -60 -53 -53 -63 -101 -58 -277 4 -169 15 -205 81 -257 l39
-31 696 0 697 1 48 23 c31 15 58 38 75 64 26 39 27 45 30 211 4 193 -5 234
-63 285 -41 36 -90 51 -167 51 l-56 0 -4 412 c-5 450 -7 465 -67 593 -39 83
-79 125 -259 277 -87 72 -231 206 -322 296 -190 191 -229 215 -339 215 -82 0
-149 -27 -208 -85 l-41 -41 -8 49 c-4 27 -5 251 -2 499 3 247 2 494 -3 548
-20 208 -90 342 -214 409 -59 31 -173 35 -242 8z m184 -159 c42 -26 78 -90
100 -176 15 -63 17 -124 14 -595 -2 -456 0 -535 14 -604 34 -164 108 -267 397
-553 171 -170 187 -183 220 -183 28 0 42 7 57 26 45 57 37 69 -168 272 -104
103 -199 203 -210 222 -45 76 -17 165 63 195 71 27 111 8 220 -110 48 -52 160
-158 249 -236 285 -248 326 -288 354 -342 45 -89 52 -169 53 -568 l0 -366
-137 -6 c-75 -4 -243 -7 -375 -7 l-238 0 0 102 0 102 -409 411 c-447 447 -451
452 -473 588 -7 45 -3 298 15 899 27 942 20 879 106 925 54 28 105 29 148 4z
m1642 -3195 c8 -9 11 -59 9 -152 l-3 -139 -120 -6 c-66 -4 -364 -7 -662 -8
-527 -1 -543 0 -553 18 -16 30 -13 266 3 280 10 7 147 12 443 14 236 1 529 3
650 5 179 2 224 -1 233 -12z"/>
<path d="M1946 549 c-30 -24 -35 -72 -10 -107 23 -33 86 -31 113 4 24 30 26
43 10 77 -11 24 -47 47 -73 47 -7 0 -25 -9 -40 -21z"/>
<path d="M4590 4001 c-120 -37 -208 -154 -246 -326 -16 -72 -18 -132 -15 -598
1 -284 0 -536 -4 -558 l-7 -41 -42 40 c-58 58 -125 85 -207 85 -110 0 -150
-25 -335 -210 -87 -88 -236 -225 -329 -305 -184 -156 -222 -197 -260 -280 -56
-124 -58 -141 -63 -586 l-4 -412 -56 0 c-77 0 -126 -15 -167 -51 -58 -51 -67
-92 -63 -285 3 -166 4 -172 30 -211 17 -26 44 -49 75 -64 l48 -23 697 -1 696
0 39 31 c66 52 77 88 81 257 5 176 -5 224 -58 277 -43 43 -95 60 -184 60 l-66
0 0 68 0 67 371 370 c253 253 386 393 419 443 58 85 89 177 96 282 3 41 -6
450 -20 908 l-24 833 -27 54 c-33 68 -110 138 -181 164 -56 21 -145 27 -194
12z m161 -174 c86 -46 79 17 106 -925 18 -601 22 -854 15 -899 -22 -136 -26
-141 -473 -588 l-409 -411 0 -102 0 -102 -238 0 c-132 0 -300 3 -375 7 l-137
6 0 366 c1 399 8 479 53 568 28 54 69 94 354 342 89 78 203 185 253 240 75 81
99 101 135 111 37 10 48 10 88 -8 75 -33 100 -118 56 -192 -11 -19 -106 -119
-210 -222 -205 -204 -212 -216 -168 -272 15 -19 29 -26 57 -26 33 0 49 13 220
183 289 286 363 389 397 553 14 69 16 148 14 604 -3 470 -1 532 14 595 43 170
133 233 248 172z m-463 -3200 c15 -12 17 -249 2 -278 -10 -18 -26 -19 -553
-18 -298 1 -596 4 -662 8 l-120 6 -3 139 c-2 94 1 143 9 152 10 12 112 13 663
8 403 -4 656 -10 664 -17z"/>
<path d="M3088 555 c-37 -20 -46 -69 -21 -104 28 -37 94 -42 117 -9 25 35 21
83 -10 107 -31 24 -49 26 -86 6z"/>
</g>
</svg>
