<svg xmlns="http://www.w3.org/2000/svg" width="80.25" height="80.25" viewBox="0 0 80.25 80.25">
  <path id="Icon_awesome-whatsapp" data-name="Icon awesome-whatsapp" d="M68.23,13.911A39.78,39.78,0,0,0,5.643,61.9L0,82.5l21.084-5.535A39.646,39.646,0,0,0,40.089,81.8h.018C62.015,81.8,80.25,63.96,80.25,42.035A39.923,39.923,0,0,0,68.23,13.911ZM40.107,75.1a32.994,32.994,0,0,1-16.838-4.6l-1.2-.717L9.566,73.06l3.332-12.2-.788-1.254A33.117,33.117,0,1,1,73.533,42.035C73.533,60.27,58.325,75.1,40.107,75.1ZM58.235,50.346c-.985-.5-5.875-2.9-6.789-3.224-.914-.34-1.576-.5-2.239.5s-2.562,3.224-3.153,3.905c-.573.663-1.164.752-2.15.251-5.84-2.92-9.673-5.213-13.524-11.823-1.021-1.755,1.021-1.63,2.92-5.428a1.841,1.841,0,0,0-.09-1.738c-.251-.5-2.239-5.392-3.063-7.38-.806-1.935-1.63-1.666-2.239-1.7-.573-.036-1.236-.036-1.9-.036a3.681,3.681,0,0,0-2.651,1.236A11.166,11.166,0,0,0,19.883,33.2c0,4.89,3.565,9.619,4.048,10.282.5.663,7,10.694,16.981,15.011,6.305,2.723,8.777,2.956,11.93,2.49,1.917-.287,5.875-2.4,6.7-4.729s.824-4.317.573-4.729C59.883,51.081,59.22,50.83,58.235,50.346Z" transform="translate(0 -2.25)" fill="#25d366"/>
</svg>
